<svg xmlns="http://www.w3.org/2000/svg" xmlns:xlink="http://www.w3.org/1999/xlink" width="61" zoomAndPan="magnify" viewBox="0 0 45.75 45.749998" height="61" preserveAspectRatio="xMidYMid meet" version="1.0"><defs><clipPath id="f01bfd54ca"><path d="M 0 0 L 45.316406 0 L 45.316406 45.316406 L 0 45.316406 Z M 0 0 " clip-rule="nonzero"/></clipPath><clipPath id="55c6f77ff5"><path d="M 22.65625 0 C 10.144531 0 0 10.144531 0 22.65625 C 0 35.171875 10.144531 45.316406 22.65625 45.316406 C 35.171875 45.316406 45.316406 35.171875 45.316406 22.65625 C 45.316406 10.144531 35.171875 0 22.65625 0 Z M 22.65625 0 " clip-rule="nonzero"/></clipPath><clipPath id="e1e212f0ca"><path d="M 9.09375 12.386719 L 35.949219 12.386719 L 35.949219 28.796875 L 9.09375 28.796875 Z M 9.09375 12.386719 " clip-rule="nonzero"/></clipPath><clipPath id="6c490a5536"><path d="M 11.632812 13.21875 L 34 13.21875 L 34 32.613281 L 11.632812 32.613281 Z M 11.632812 13.21875 " clip-rule="nonzero"/></clipPath></defs><g clip-path="url(#f01bfd54ca)"><g clip-path="url(#55c6f77ff5)"><path stroke-linecap="butt" transform="matrix(0.745924, 0, 0, 0.745924, 0.00000075, 0.00000000000001325)" fill="none" stroke-linejoin="miter" d="M 30.373407 -0.000000000000017764 C 13.599954 -0.000000000000017764 -0.00000100546 13.599955 -0.00000100546 30.373408 C -0.00000100546 47.152098 13.599954 60.752054 30.373407 60.752054 C 47.152097 60.752054 60.752053 47.152098 60.752053 30.373408 C 60.752053 13.599955 47.152097 -0.000000000000017764 30.373407 -0.000000000000017764 Z M 30.373407 -0.000000000000017764 " stroke="#1d3b79" stroke-width="8" stroke-opacity="1" stroke-miterlimit="4"/></g></g><g clip-path="url(#e1e212f0ca)"><path fill="#1d3b79" d="M 31.695312 29.34375 C 32.945312 29.34375 33.945312 28.332031 33.945312 27.082031 L 33.957031 14.652344 C 33.957031 13.402344 32.945312 12.390625 31.695312 12.390625 L 13.617188 12.390625 C 12.367188 12.390625 11.355469 13.402344 11.355469 14.652344 L 11.355469 27.082031 C 11.355469 28.332031 12.367188 29.34375 13.617188 29.34375 L 9.09375 29.34375 C 9.09375 30.589844 10.105469 31.601562 11.355469 31.601562 L 33.957031 31.601562 C 35.207031 31.601562 36.214844 30.589844 36.214844 29.34375 Z M 13.617188 14.652344 L 31.695312 14.652344 L 31.695312 27.082031 L 13.617188 27.082031 Z M 22.65625 30.472656 C 22.035156 30.472656 21.527344 29.964844 21.527344 29.34375 C 21.527344 28.722656 22.035156 28.210938 22.65625 28.210938 C 23.277344 28.210938 23.785156 28.722656 23.785156 29.34375 C 23.785156 29.964844 23.277344 30.472656 22.65625 30.472656 Z M 22.65625 30.472656 " fill-opacity="1" fill-rule="nonzero"/></g><g clip-path="url(#6c490a5536)"><path fill="#1d3b79" d="M 33.925781 27.5 L 33.925781 14.929688 C 33.925781 14.703125 33.882812 14.484375 33.792969 14.273438 C 33.707031 14.066406 33.582031 13.878906 33.421875 13.71875 C 33.261719 13.558594 33.078125 13.433594 32.867188 13.347656 C 32.660156 13.261719 32.441406 13.21875 32.214844 13.21875 L 13.347656 13.21875 C 13.121094 13.21875 12.902344 13.261719 12.691406 13.347656 C 12.480469 13.433594 12.296875 13.558594 12.136719 13.71875 C 11.976562 13.878906 11.851562 14.066406 11.765625 14.273438 C 11.679688 14.484375 11.636719 14.703125 11.636719 14.929688 L 11.636719 27.5 C 11.636719 27.726562 11.679688 27.945312 11.765625 28.15625 C 11.851562 28.363281 11.976562 28.550781 12.136719 28.710938 C 12.296875 28.871094 12.480469 28.996094 12.691406 29.082031 C 12.902344 29.167969 13.121094 29.210938 13.347656 29.210938 L 20.445312 29.210938 L 20.445312 30.203125 C 20.445312 30.386719 20.410156 30.5625 20.339844 30.730469 C 20.269531 30.898438 20.167969 31.050781 20.039062 31.179688 C 19.910156 31.308594 19.761719 31.40625 19.589844 31.476562 C 19.421875 31.546875 19.246094 31.582031 19.0625 31.582031 L 17.515625 31.582031 C 17.339844 31.582031 17.167969 31.617188 17.003906 31.6875 C 16.839844 31.753906 16.691406 31.851562 16.566406 31.976562 C 16.441406 32.101562 16.34375 32.246094 16.277344 32.414062 C 16.207031 32.578125 16.175781 32.75 16.175781 32.925781 L 29.386719 32.925781 C 29.386719 32.75 29.351562 32.578125 29.285156 32.414062 C 29.214844 32.246094 29.117188 32.101562 28.992188 31.976562 C 28.867188 31.851562 28.722656 31.753906 28.558594 31.6875 C 28.390625 31.617188 28.222656 31.582031 28.042969 31.582031 L 26.496094 31.582031 C 26.3125 31.582031 26.136719 31.546875 25.96875 31.476562 C 25.800781 31.40625 25.648438 31.308594 25.519531 31.179688 C 25.390625 31.050781 25.289062 30.898438 25.21875 30.730469 C 25.148438 30.5625 25.117188 30.386719 25.117188 30.203125 L 25.117188 29.210938 L 32.214844 29.210938 C 32.441406 29.210938 32.660156 29.167969 32.867188 29.082031 C 33.078125 28.996094 33.261719 28.871094 33.421875 28.710938 C 33.582031 28.550781 33.707031 28.363281 33.792969 28.15625 C 33.882812 27.945312 33.925781 27.726562 33.925781 27.5 Z M 12.679688 26.867188 L 12.679688 15.003906 C 12.679688 14.804688 12.75 14.636719 12.890625 14.496094 C 13.03125 14.355469 13.199219 14.285156 13.398438 14.285156 L 32.160156 14.285156 C 32.359375 14.285156 32.527344 14.355469 32.667969 14.496094 C 32.808594 14.636719 32.878906 14.804688 32.878906 15.003906 L 32.878906 26.867188 C 32.878906 27.066406 32.808594 27.234375 32.667969 27.375 C 32.527344 27.515625 32.359375 27.585938 32.160156 27.585938 L 13.398438 27.585938 C 13.199219 27.585938 13.03125 27.515625 12.890625 27.375 C 12.75 27.234375 12.679688 27.066406 12.679688 26.867188 Z M 12.679688 26.867188 " fill-opacity="1" fill-rule="nonzero"/></g></svg>