<svg xmlns="http://www.w3.org/2000/svg" xmlns:xlink="http://www.w3.org/1999/xlink" width="61" zoomAndPan="magnify" viewBox="0 0 45.75 45.749998" height="61" preserveAspectRatio="xMidYMid meet" version="1.0"><defs><clipPath id="41f3a1ead4"><path d="M 0 0 L 45.316406 0 L 45.316406 45.316406 L 0 45.316406 Z M 0 0 " clip-rule="nonzero"/></clipPath><clipPath id="05c4b3067b"><path d="M 22.65625 0 C 10.144531 0 0 10.144531 0 22.65625 C 0 35.171875 10.144531 45.316406 22.65625 45.316406 C 35.171875 45.316406 45.316406 35.171875 45.316406 22.65625 C 45.316406 10.144531 35.171875 0 22.65625 0 Z M 22.65625 0 " clip-rule="nonzero"/></clipPath><clipPath id="275c8ab97a"><path d="M 15.824219 11.097656 L 29.25 11.097656 L 29.25 34.222656 L 15.824219 34.222656 Z M 15.824219 11.097656 " clip-rule="nonzero"/></clipPath></defs><g clip-path="url(#41f3a1ead4)"><g clip-path="url(#05c4b3067b)"><path stroke-linecap="butt" transform="matrix(0.745924, 0, 0, 0.745924, 0.00000075, 0.00000000000001325)" fill="none" stroke-linejoin="miter" d="M 30.373407 -0.000000000000017764 C 13.599954 -0.000000000000017764 -0.00000100546 13.599955 -0.00000100546 30.373408 C -0.00000100546 47.152098 13.599954 60.752054 30.373407 60.752054 C 47.152097 60.752054 60.752053 47.152098 60.752053 30.373408 C 60.752053 13.599955 47.152097 -0.000000000000017764 30.373407 -0.000000000000017764 Z M 30.373407 -0.000000000000017764 " stroke="#1d3b79" stroke-width="8" stroke-opacity="1" stroke-miterlimit="4"/></g></g><g clip-path="url(#275c8ab97a)"><path fill="#1d3b79" d="M 26.855469 11.097656 L 18.453125 11.097656 C 17.003906 11.097656 15.824219 12.273438 15.824219 13.726562 L 15.824219 31.585938 C 15.824219 33.035156 17.003906 34.210938 18.453125 34.210938 L 26.855469 34.210938 C 28.304688 34.210938 29.484375 33.035156 29.484375 31.585938 L 29.484375 13.726562 C 29.484375 12.273438 28.304688 11.097656 26.855469 11.097656 Z M 22.652344 33.160156 C 21.78125 33.160156 21.078125 32.457031 21.078125 31.585938 C 21.078125 30.710938 21.78125 30.007812 22.652344 30.007812 C 23.527344 30.007812 24.230469 30.710938 24.230469 31.585938 C 24.230469 32.457031 23.527344 33.160156 22.652344 33.160156 Z M 27.382812 28.957031 L 17.925781 28.957031 L 17.925781 14.25 L 27.382812 14.25 Z M 27.382812 28.957031 " fill-opacity="1" fill-rule="nonzero"/></g></svg>