<svg xmlns="http://www.w3.org/2000/svg" xmlns:xlink="http://www.w3.org/1999/xlink" width="61" zoomAndPan="magnify" viewBox="0 0 45.75 45.749998" height="61" preserveAspectRatio="xMidYMid meet" version="1.0"><defs><clipPath id="0409549711"><path d="M 0 0 L 45.316406 0 L 45.316406 45.316406 L 0 45.316406 Z M 0 0 " clip-rule="nonzero"/></clipPath><clipPath id="17b9a64fa1"><path d="M 22.65625 0 C 10.144531 0 0 10.144531 0 22.65625 C 0 35.171875 10.144531 45.316406 22.65625 45.316406 C 35.171875 45.316406 45.316406 35.171875 45.316406 22.65625 C 45.316406 10.144531 35.171875 0 22.65625 0 Z M 22.65625 0 " clip-rule="nonzero"/></clipPath><clipPath id="286787c19d"><path d="M 10.703125 7.289062 L 32.335938 7.289062 L 32.335938 34.140625 L 10.703125 34.140625 Z M 10.703125 7.289062 " clip-rule="nonzero"/></clipPath></defs><g clip-path="url(#0409549711)"><g clip-path="url(#17b9a64fa1)"><path stroke-linecap="butt" transform="matrix(0.745924, 0, 0, 0.745924, 0.00000075, 0.00000000000001325)" fill="none" stroke-linejoin="miter" d="M 30.373407 -0.000000000000017764 C 13.599954 -0.000000000000017764 -0.00000100546 13.599955 -0.00000100546 30.373408 C -0.00000100546 47.152098 13.599954 60.752054 30.373407 60.752054 C 47.152097 60.752054 60.752053 47.152098 60.752053 30.373408 C 60.752053 13.599955 47.152097 -0.000000000000017764 30.373407 -0.000000000000017764 Z M 30.373407 -0.000000000000017764 " stroke="#1d3b79" stroke-width="8" stroke-opacity="1" stroke-miterlimit="4"/></g></g><g clip-path="url(#286787c19d)"><path fill="#1d3b79" d="M 20.796875 34.105469 L 20.640625 34.105469 C 20.640625 24.824219 19.136719 24.148438 10.683594 24.148438 L 10.683594 23.992188 C 19.136719 23.992188 20.640625 23.320312 20.640625 14.039062 L 20.796875 14.039062 C 20.796875 23.320312 22.300781 23.992188 30.75 23.992188 L 30.75 24.148438 C 22.300781 24.148438 20.796875 24.824219 20.796875 34.105469 Z M 30.058594 21.472656 L 30.023438 21.472656 C 30.023438 19.394531 29.6875 19.242188 27.792969 19.242188 L 27.792969 19.207031 C 29.6875 19.207031 30.023438 19.054688 30.023438 16.976562 L 30.058594 16.976562 C 30.058594 19.054688 30.394531 19.207031 32.285156 19.207031 L 32.285156 19.242188 C 30.394531 19.242188 30.058594 19.394531 30.058594 21.472656 Z M 25.746094 16.308594 L 25.679688 16.308594 C 25.679688 12.179688 25.007812 11.882812 21.253906 11.882812 L 21.253906 11.8125 C 25.007812 11.8125 25.679688 11.511719 25.679688 7.390625 L 25.746094 7.390625 C 25.746094 11.511719 26.414062 11.8125 30.171875 11.8125 L 30.171875 11.882812 C 26.414062 11.882812 25.746094 12.179688 25.746094 16.308594 " fill-opacity="1" fill-rule="evenodd"/></g></svg>