<svg xmlns="http://www.w3.org/2000/svg" xmlns:xlink="http://www.w3.org/1999/xlink" width="52" zoomAndPan="magnify" viewBox="0 0 39 38.999999" height="52" preserveAspectRatio="xMidYMid meet" version="1.0"><defs><clipPath id="6b8bcdacd6"><path d="M 0 0 L 38.859375 0 L 38.859375 38.859375 L 0 38.859375 Z M 0 0 " clip-rule="nonzero"/></clipPath><clipPath id="1a9f8be74a"><path d="M 19.429688 0 C 8.699219 0 0 8.699219 0 19.429688 C 0 30.160156 8.699219 38.859375 19.429688 38.859375 C 30.160156 38.859375 38.859375 30.160156 38.859375 19.429688 C 38.859375 8.699219 30.160156 0 19.429688 0 Z M 19.429688 0 " clip-rule="nonzero"/></clipPath><clipPath id="2fd0a477e4"><path d="M 9 11.632812 L 29 11.632812 L 29 20 L 9 20 Z M 9 11.632812 " clip-rule="nonzero"/></clipPath><clipPath id="15bba28abf"><path d="M 8.503906 12 L 30.253906 12 L 30.253906 27.382812 L 8.503906 27.382812 Z M 8.503906 12 " clip-rule="nonzero"/></clipPath></defs><g clip-path="url(#6b8bcdacd6)"><g clip-path="url(#1a9f8be74a)"><path stroke-linecap="butt" transform="matrix(0.75, 0, 0, 0.75, 0.0000005, -0.000000000000021316)" fill="none" stroke-linejoin="miter" d="M 25.906251 0.000000000000028422 C 11.598958 0.000000000000028422 -0.000000666667 11.598959 -0.000000666667 25.906252 C -0.000000666667 40.213544 11.598958 51.812503 25.906251 51.812503 C 40.213544 51.812503 51.812503 40.213544 51.812503 25.906252 C 51.812503 11.598959 40.213544 0.000000000000028422 25.906251 0.000000000000028422 Z M 25.906251 0.000000000000028422 " stroke="#ffffff" stroke-width="6" stroke-opacity="1" stroke-miterlimit="4"/></g></g><g clip-path="url(#2fd0a477e4)"><path fill="#ffffff" d="M 28.914062 11.8125 C 28.625 11.691406 28.324219 11.632812 28.011719 11.632812 L 10.851562 11.632812 C 10.554688 11.632812 10.269531 11.691406 9.996094 11.804688 L 19.429688 19.695312 Z M 28.914062 11.8125 " fill-opacity="1" fill-rule="nonzero"/></g><g clip-path="url(#15bba28abf)"><path fill="#ffffff" d="M 30.070312 12.878906 L 19.929688 21.3125 C 19.785156 21.429688 19.621094 21.492188 19.429688 21.488281 C 19.242188 21.492188 19.078125 21.429688 18.933594 21.3125 L 8.808594 12.847656 C 8.617188 13.199219 8.519531 13.574219 8.511719 13.972656 L 8.511719 24.890625 C 8.511719 25.199219 8.570312 25.5 8.691406 25.785156 C 8.808594 26.074219 8.980469 26.324219 9.199219 26.542969 C 9.417969 26.765625 9.671875 26.933594 9.957031 27.050781 C 10.242188 27.171875 10.542969 27.230469 10.851562 27.230469 L 28.011719 27.230469 C 28.320312 27.230469 28.617188 27.171875 28.90625 27.050781 C 29.191406 26.933594 29.445312 26.765625 29.664062 26.542969 C 29.882812 26.324219 30.050781 26.074219 30.171875 25.785156 C 30.289062 25.5 30.347656 25.199219 30.347656 24.890625 L 30.347656 13.972656 C 30.347656 13.585938 30.253906 13.222656 30.070312 12.878906 Z M 30.070312 12.878906 " fill-opacity="1" fill-rule="nonzero"/></g></svg>