<svg xmlns="http://www.w3.org/2000/svg" xmlns:xlink="http://www.w3.org/1999/xlink" width="52" zoomAndPan="magnify" viewBox="0 0 39 38.999999" height="52" preserveAspectRatio="xMidYMid meet" version="1.0"><defs><clipPath id="3dc5d90d40"><path d="M 0 0 L 38.859375 0 L 38.859375 38.859375 L 0 38.859375 Z M 0 0 " clip-rule="nonzero"/></clipPath><clipPath id="09f1ab5ef1"><path d="M 19.429688 0 C 8.699219 0 0 8.699219 0 19.429688 C 0 30.160156 8.699219 38.859375 19.429688 38.859375 C 30.160156 38.859375 38.859375 30.160156 38.859375 19.429688 C 38.859375 8.699219 30.160156 0 19.429688 0 Z M 19.429688 0 " clip-rule="nonzero"/></clipPath><clipPath id="6bf2a617b6"><path d="M 10.761719 8.628906 L 28.011719 8.628906 L 28.011719 30.359375 L 10.761719 30.359375 Z M 10.761719 8.628906 " clip-rule="nonzero"/></clipPath></defs><g clip-path="url(#3dc5d90d40)"><g clip-path="url(#09f1ab5ef1)"><path stroke-linecap="butt" transform="matrix(0.75, 0, 0, 0.75, 0.0000005, -0.000000000000021316)" fill="none" stroke-linejoin="miter" d="M 25.906251 0.000000000000028422 C 11.598958 0.000000000000028422 -0.000000666667 11.598959 -0.000000666667 25.906252 C -0.000000666667 40.213544 11.598958 51.812503 25.906251 51.812503 C 40.213544 51.812503 51.812503 40.213544 51.812503 25.906252 C 51.812503 11.598959 40.213544 0.000000000000028422 25.906251 0.000000000000028422 Z M 25.906251 0.000000000000028422 " stroke="#ffffff" stroke-width="6" stroke-opacity="1" stroke-miterlimit="4"/></g></g><g clip-path="url(#6bf2a617b6)"><path fill="#ffffff" d="M 19.433594 30.648438 C 17.773438 30.648438 10.761719 22.082031 10.761719 17.300781 C 10.761719 12.515625 14.648438 8.628906 19.433594 8.628906 C 24.214844 8.628906 28.105469 12.515625 28.105469 17.300781 C 28.105469 22.082031 21.089844 30.648438 19.433594 30.648438 Z M 19.433594 12.621094 C 16.851562 12.621094 14.753906 14.71875 14.753906 17.300781 C 14.753906 19.878906 16.851562 21.976562 19.433594 21.976562 C 22.011719 21.976562 24.109375 19.878906 24.109375 17.300781 C 24.109375 14.71875 22.011719 12.621094 19.433594 12.621094 Z M 19.433594 12.621094 " fill-opacity="1" fill-rule="nonzero"/></g></svg>