<svg xmlns="http://www.w3.org/2000/svg" xmlns:xlink="http://www.w3.org/1999/xlink" width="52" zoomAndPan="magnify" viewBox="0 0 39 38.999999" height="52" preserveAspectRatio="xMidYMid meet" version="1.0"><defs><clipPath id="2901f88d96"><path d="M 0 0 L 38.859375 0 L 38.859375 38.859375 L 0 38.859375 Z M 0 0 " clip-rule="nonzero"/></clipPath><clipPath id="a61f69055b"><path d="M 19.429688 0 C 8.699219 0 0 8.699219 0 19.429688 C 0 30.160156 8.699219 38.859375 19.429688 38.859375 C 30.160156 38.859375 38.859375 30.160156 38.859375 19.429688 C 38.859375 8.699219 30.160156 0 19.429688 0 Z M 19.429688 0 " clip-rule="nonzero"/></clipPath><clipPath id="c45ea7b4e0"><path d="M 8.503906 8.175781 L 30.253906 8.175781 L 30.253906 29.925781 L 8.503906 29.925781 Z M 8.503906 8.175781 " clip-rule="nonzero"/></clipPath></defs><g clip-path="url(#2901f88d96)"><g clip-path="url(#a61f69055b)"><path stroke-linecap="butt" transform="matrix(0.75, 0, 0, 0.75, 0.0000005, -0.000000000000021316)" fill="none" stroke-linejoin="miter" d="M 25.906251 0.000000000000028422 C 11.598958 0.000000000000028422 -0.000000666667 11.598959 -0.000000666667 25.906252 C -0.000000666667 40.213544 11.598958 51.812503 25.906251 51.812503 C 40.213544 51.812503 51.812503 40.213544 51.812503 25.906252 C 51.812503 11.598959 40.213544 0.000000000000028422 25.906251 0.000000000000028422 Z M 25.906251 0.000000000000028422 " stroke="#ffffff" stroke-width="6" stroke-opacity="1" stroke-miterlimit="4"/></g></g><g clip-path="url(#c45ea7b4e0)"><path fill="#ffffff" d="M 30.089844 24.21875 C 30.25 24.644531 30.339844 25.105469 30.355469 25.582031 C 30.359375 25.628906 30.359375 25.675781 30.359375 25.722656 C 30.359375 28.101562 28.429688 30.03125 26.050781 30.03125 C 16.359375 30.03125 8.503906 22.175781 8.503906 12.484375 C 8.503906 10.105469 10.433594 8.175781 12.8125 8.175781 C 12.859375 8.175781 12.90625 8.175781 12.953125 8.179688 C 13.429688 8.191406 13.890625 8.285156 14.316406 8.445312 L 15.933594 15.449219 C 15.933594 15.453125 15.933594 15.457031 15.929688 15.457031 L 12.960938 16.789062 L 12.953125 16.792969 C 14.316406 20.941406 17.59375 24.21875 21.738281 25.582031 L 21.742188 25.574219 L 23.078125 22.605469 L 30.089844 24.21875 " fill-opacity="1" fill-rule="nonzero"/></g></svg>