<svg xmlns="http://www.w3.org/2000/svg" xmlns:xlink="http://www.w3.org/1999/xlink" width="119" zoomAndPan="magnify" viewBox="0 0 89.25 77.999999" height="104" preserveAspectRatio="xMidYMid meet" version="1.0"><defs><clipPath id="a4282dce88"><path d="M 23 0.324219 L 86 0.324219 L 86 43 L 23 43 Z M 23 0.324219 " clip-rule="nonzero"/></clipPath><clipPath id="b78ae0d05e"><path d="M 0 43 L 87.761719 43 L 87.761719 77.675781 L 0 77.675781 Z M 0 43 " clip-rule="nonzero"/></clipPath><clipPath id="73c2a15eae"><path d="M 23 0.324219 L 86 0.324219 L 86 43 L 23 43 Z M 23 0.324219 " clip-rule="nonzero"/></clipPath><clipPath id="ad43c3efc6"><path d="M 0 43 L 87.761719 43 L 87.761719 77.675781 L 0 77.675781 Z M 0 43 " clip-rule="nonzero"/></clipPath></defs><g clip-path="url(#a4282dce88)"><path fill="#1d3b79" d="M 23.640625 25.550781 L 23.640625 31.257812 C 23.640625 32.070312 24.304688 32.734375 25.117188 32.734375 L 37.046875 32.734375 C 36.972656 33.398438 36.9375 34.082031 36.9375 34.765625 L 36.9375 40.671875 C 36.9375 41.484375 37.601562 42.152344 38.414062 42.152344 L 70.914062 42.152344 C 71.726562 42.152344 72.390625 41.484375 72.390625 40.671875 L 72.390625 34.765625 C 72.390625 34.082031 72.355469 33.398438 72.28125 32.734375 L 84.210938 32.734375 C 85.023438 32.734375 85.6875 32.070312 85.6875 31.257812 L 85.6875 25.550781 C 85.6875 19.992188 82.066406 15.28125 77.0625 13.621094 C 78.46875 12.21875 79.316406 10.277344 79.316406 8.136719 C 79.316406 3.832031 75.808594 0.324219 71.503906 0.324219 C 67.296875 0.324219 63.859375 3.667969 63.695312 7.824219 C 62.660156 3.519531 58.78125 0.324219 54.164062 0.324219 C 49.789062 0.324219 46.078125 3.1875 44.804688 7.15625 C 44.324219 3.316406 41.035156 0.324219 37.066406 0.324219 C 32.761719 0.324219 29.253906 3.832031 29.253906 8.136719 C 29.253906 10.371094 30.195312 12.402344 31.730469 13.824219 C 27.003906 15.632812 23.640625 20.214844 23.640625 25.550781 Z M 82.734375 25.550781 L 82.734375 29.777344 L 71.671875 29.777344 C 70.359375 25.308594 67.332031 21.5625 63.34375 19.308594 C 65.152344 17.183594 67.8125 15.929688 70.65625 15.929688 L 73.128906 15.929688 C 78.429688 15.949219 82.734375 20.25 82.734375 25.550781 Z M 71.503906 3.28125 C 74.183594 3.28125 76.363281 5.457031 76.363281 8.136719 C 76.363281 10.8125 74.183594 12.992188 71.503906 12.992188 C 68.828125 12.992188 66.648438 10.8125 66.648438 8.136719 C 66.648438 5.457031 68.828125 3.28125 71.503906 3.28125 Z M 63.988281 10.242188 C 64.378906 11.625 65.132812 12.863281 66.167969 13.824219 C 63.972656 14.671875 62.03125 16.113281 60.59375 18.050781 C 60.460938 17.996094 60.332031 17.960938 60.203125 17.921875 C 62.476562 16.132812 63.972656 13.363281 63.988281 10.242188 Z M 54.164062 3.28125 C 57.953125 3.28125 61.054688 6.363281 61.054688 10.167969 C 61.054688 13.972656 57.96875 17.054688 54.164062 17.054688 C 50.363281 17.054688 47.277344 13.953125 47.277344 10.167969 C 47.277344 6.382812 50.363281 3.28125 54.164062 3.28125 Z M 54.664062 19.992188 C 62.808594 19.992188 69.4375 26.621094 69.4375 34.765625 L 69.4375 39.195312 L 39.890625 39.195312 L 39.890625 34.765625 C 39.890625 26.621094 46.519531 19.992188 54.664062 19.992188 Z M 44.359375 10.886719 C 44.472656 12.421875 44.933594 13.859375 45.671875 15.117188 C 44.730469 14.46875 43.695312 13.972656 42.605469 13.621094 C 43.363281 12.84375 43.972656 11.921875 44.359375 10.886719 Z M 37.046875 3.28125 C 39.726562 3.28125 41.902344 5.457031 41.902344 8.136719 C 41.902344 10.8125 39.726562 12.992188 37.046875 12.992188 C 34.371094 12.992188 32.191406 10.8125 32.191406 8.136719 C 32.191406 5.457031 34.371094 3.28125 37.046875 3.28125 Z M 36.199219 15.949219 L 38.671875 15.949219 C 41.515625 15.949219 44.15625 17.183594 45.984375 19.328125 C 41.996094 21.578125 38.96875 25.328125 37.65625 29.796875 L 26.597656 29.796875 L 26.597656 25.566406 C 26.597656 20.25 30.898438 15.949219 36.199219 15.949219 Z M 36.199219 15.949219 " fill-opacity="1" fill-rule="nonzero"/></g><g clip-path="url(#b78ae0d05e)"><path fill="#1d3b79" d="M 13.742188 43.167969 L 1.480469 43.167969 C 0.667969 43.167969 0.00390625 43.832031 0.00390625 44.644531 L 0.00390625 71.972656 C 0.00390625 72.785156 0.667969 73.453125 1.480469 73.453125 L 13.742188 73.453125 C 14.554688 73.453125 15.21875 72.785156 15.21875 71.972656 L 15.21875 69.628906 L 21.128906 69.628906 L 38.652344 75.1875 C 42.625 76.664062 45.96875 77.382812 49.289062 77.382812 C 52.632812 77.382812 55.976562 76.644531 59.964844 75.167969 C 60.113281 75.113281 60.257812 75.039062 60.390625 74.929688 L 86.058594 53.988281 C 86.128906 53.914062 86.203125 53.839844 86.277344 53.765625 C 88.105469 51.496094 88.015625 48.023438 86.058594 45.863281 C 84.117188 43.703125 80.996094 43.480469 78.816406 45.363281 L 66.003906 55.722656 C 66.003906 55.59375 66.003906 55.464844 66.003906 55.335938 C 65.945312 52.253906 63.527344 49.722656 60.59375 49.722656 L 46.355469 49.722656 C 45.542969 49.722656 44.765625 49.242188 44.285156 48.449219 C 44.175781 48.28125 44.046875 48.132812 43.878906 48.003906 C 37.839844 43.628906 30.214844 42.796875 23.511719 45.789062 L 21.039062 46.898438 L 15.21875 46.898438 L 15.21875 44.644531 C 15.21875 43.832031 14.574219 43.167969 13.742188 43.167969 Z M 7.390625 68.28125 C 6.578125 68.28125 5.914062 67.617188 5.914062 66.804688 C 5.914062 65.992188 6.578125 65.324219 7.390625 65.324219 C 8.203125 65.324219 8.867188 65.992188 8.867188 66.804688 C 8.867188 67.617188 8.203125 68.28125 7.390625 68.28125 Z M 12.265625 48.390625 L 12.265625 70.496094 L 9.847656 70.496094 C 11.027344 69.703125 11.824219 68.355469 11.824219 66.804688 C 11.824219 64.367188 9.828125 62.371094 7.390625 62.371094 C 4.953125 62.371094 2.960938 64.367188 2.960938 66.804688 C 2.960938 68.335938 3.753906 69.703125 4.933594 70.496094 L 2.960938 70.496094 L 2.960938 46.121094 L 12.265625 46.121094 Z M 21.371094 49.871094 C 21.574219 49.871094 21.777344 49.832031 21.960938 49.742188 L 24.730469 48.503906 C 30.382812 45.992188 36.789062 46.65625 41.941406 50.257812 C 42.976562 51.789062 44.601562 52.675781 46.375 52.675781 L 60.609375 52.675781 C 61.941406 52.675781 63.046875 53.894531 63.066406 55.371094 C 63.085938 56.203125 62.789062 56.980469 62.253906 57.515625 C 61.996094 57.773438 61.679688 57.976562 61.367188 58.085938 C 60.941406 58.160156 60.519531 58.199219 60.09375 58.199219 L 44.25 58.199219 C 43.4375 58.199219 42.773438 58.863281 42.773438 59.675781 C 42.773438 60.488281 43.4375 61.152344 44.25 61.152344 L 60.757812 61.152344 C 61.203125 61.152344 61.644531 61.097656 62.070312 60.988281 C 63.914062 60.652344 65.652344 59.839844 67.183594 58.621094 L 80.738281 47.652344 C 80.757812 47.636719 80.757812 47.636719 80.777344 47.617188 C 81.734375 46.785156 83.046875 46.898438 83.914062 47.839844 C 84.875 48.890625 84.949219 50.644531 84.097656 51.808594 L 58.765625 72.492188 C 51.597656 75.113281 46.925781 75.078125 39.707031 72.398438 C 39.6875 72.398438 39.667969 72.378906 39.632812 72.378906 L 21.867188 66.730469 C 21.71875 66.691406 21.574219 66.65625 21.425781 66.65625 L 15.21875 66.65625 L 15.21875 49.851562 L 21.371094 49.851562 Z M 21.371094 49.871094 " fill-opacity="1" fill-rule="nonzero"/></g><g clip-path="url(#73c2a15eae)"><path fill="#1d3b79" d="M 23.640625 25.550781 L 23.640625 31.257812 C 23.640625 32.070312 24.304688 32.734375 25.117188 32.734375 L 37.046875 32.734375 C 36.972656 33.398438 36.9375 34.082031 36.9375 34.765625 L 36.9375 40.671875 C 36.9375 41.484375 37.601562 42.152344 38.414062 42.152344 L 70.914062 42.152344 C 71.726562 42.152344 72.390625 41.484375 72.390625 40.671875 L 72.390625 34.765625 C 72.390625 34.082031 72.355469 33.398438 72.28125 32.734375 L 84.210938 32.734375 C 85.023438 32.734375 85.6875 32.070312 85.6875 31.257812 L 85.6875 25.550781 C 85.6875 19.992188 82.066406 15.28125 77.0625 13.621094 C 78.46875 12.21875 79.316406 10.277344 79.316406 8.136719 C 79.316406 3.832031 75.808594 0.324219 71.503906 0.324219 C 67.296875 0.324219 63.859375 3.667969 63.695312 7.824219 C 62.660156 3.519531 58.78125 0.324219 54.164062 0.324219 C 49.789062 0.324219 46.078125 3.1875 44.804688 7.15625 C 44.324219 3.316406 41.035156 0.324219 37.066406 0.324219 C 32.761719 0.324219 29.253906 3.832031 29.253906 8.136719 C 29.253906 10.371094 30.195312 12.402344 31.730469 13.824219 C 27.003906 15.632812 23.640625 20.214844 23.640625 25.550781 Z M 82.734375 25.550781 L 82.734375 29.777344 L 71.671875 29.777344 C 70.359375 25.308594 67.332031 21.5625 63.34375 19.308594 C 65.152344 17.183594 67.8125 15.929688 70.65625 15.929688 L 73.128906 15.929688 C 78.429688 15.949219 82.734375 20.25 82.734375 25.550781 Z M 71.503906 3.28125 C 74.183594 3.28125 76.363281 5.457031 76.363281 8.136719 C 76.363281 10.8125 74.183594 12.992188 71.503906 12.992188 C 68.828125 12.992188 66.648438 10.8125 66.648438 8.136719 C 66.648438 5.457031 68.828125 3.28125 71.503906 3.28125 Z M 63.988281 10.242188 C 64.378906 11.625 65.132812 12.863281 66.167969 13.824219 C 63.972656 14.671875 62.03125 16.113281 60.59375 18.050781 C 60.460938 17.996094 60.332031 17.960938 60.203125 17.921875 C 62.476562 16.132812 63.972656 13.363281 63.988281 10.242188 Z M 54.164062 3.28125 C 57.953125 3.28125 61.054688 6.363281 61.054688 10.167969 C 61.054688 13.972656 57.96875 17.054688 54.164062 17.054688 C 50.363281 17.054688 47.277344 13.953125 47.277344 10.167969 C 47.277344 6.382812 50.363281 3.28125 54.164062 3.28125 Z M 54.664062 19.992188 C 62.808594 19.992188 69.4375 26.621094 69.4375 34.765625 L 69.4375 39.195312 L 39.890625 39.195312 L 39.890625 34.765625 C 39.890625 26.621094 46.519531 19.992188 54.664062 19.992188 Z M 44.359375 10.886719 C 44.472656 12.421875 44.933594 13.859375 45.671875 15.117188 C 44.730469 14.46875 43.695312 13.972656 42.605469 13.621094 C 43.363281 12.84375 43.972656 11.921875 44.359375 10.886719 Z M 37.046875 3.28125 C 39.726562 3.28125 41.902344 5.457031 41.902344 8.136719 C 41.902344 10.8125 39.726562 12.992188 37.046875 12.992188 C 34.371094 12.992188 32.191406 10.8125 32.191406 8.136719 C 32.191406 5.457031 34.371094 3.28125 37.046875 3.28125 Z M 36.199219 15.949219 L 38.671875 15.949219 C 41.515625 15.949219 44.15625 17.183594 45.984375 19.328125 C 41.996094 21.578125 38.96875 25.328125 37.65625 29.796875 L 26.597656 29.796875 L 26.597656 25.566406 C 26.597656 20.25 30.898438 15.949219 36.199219 15.949219 Z M 36.199219 15.949219 " fill-opacity="1" fill-rule="nonzero"/></g><g clip-path="url(#ad43c3efc6)"><path fill="#1d3b79" d="M 13.742188 43.167969 L 1.480469 43.167969 C 0.667969 43.167969 0.00390625 43.832031 0.00390625 44.644531 L 0.00390625 71.972656 C 0.00390625 72.785156 0.667969 73.453125 1.480469 73.453125 L 13.742188 73.453125 C 14.554688 73.453125 15.21875 72.785156 15.21875 71.972656 L 15.21875 69.628906 L 21.128906 69.628906 L 38.652344 75.1875 C 42.625 76.664062 45.96875 77.382812 49.289062 77.382812 C 52.632812 77.382812 55.976562 76.644531 59.964844 75.167969 C 60.113281 75.113281 60.257812 75.039062 60.390625 74.929688 L 86.058594 53.988281 C 86.128906 53.914062 86.203125 53.839844 86.277344 53.765625 C 88.105469 51.496094 88.015625 48.023438 86.058594 45.863281 C 84.117188 43.703125 80.996094 43.480469 78.816406 45.363281 L 66.003906 55.722656 C 66.003906 55.59375 66.003906 55.464844 66.003906 55.335938 C 65.945312 52.253906 63.527344 49.722656 60.59375 49.722656 L 46.355469 49.722656 C 45.542969 49.722656 44.765625 49.242188 44.285156 48.449219 C 44.175781 48.28125 44.046875 48.132812 43.878906 48.003906 C 37.839844 43.628906 30.214844 42.796875 23.511719 45.789062 L 21.039062 46.898438 L 15.21875 46.898438 L 15.21875 44.644531 C 15.21875 43.832031 14.574219 43.167969 13.742188 43.167969 Z M 7.390625 68.28125 C 6.578125 68.28125 5.914062 67.617188 5.914062 66.804688 C 5.914062 65.992188 6.578125 65.324219 7.390625 65.324219 C 8.203125 65.324219 8.867188 65.992188 8.867188 66.804688 C 8.867188 67.617188 8.203125 68.28125 7.390625 68.28125 Z M 12.265625 48.390625 L 12.265625 70.496094 L 9.847656 70.496094 C 11.027344 69.703125 11.824219 68.355469 11.824219 66.804688 C 11.824219 64.367188 9.828125 62.371094 7.390625 62.371094 C 4.953125 62.371094 2.960938 64.367188 2.960938 66.804688 C 2.960938 68.335938 3.753906 69.703125 4.933594 70.496094 L 2.960938 70.496094 L 2.960938 46.121094 L 12.265625 46.121094 Z M 21.371094 49.871094 C 21.574219 49.871094 21.777344 49.832031 21.960938 49.742188 L 24.730469 48.503906 C 30.382812 45.992188 36.789062 46.65625 41.941406 50.257812 C 42.976562 51.789062 44.601562 52.675781 46.375 52.675781 L 60.609375 52.675781 C 61.941406 52.675781 63.046875 53.894531 63.066406 55.371094 C 63.085938 56.203125 62.789062 56.980469 62.253906 57.515625 C 61.996094 57.773438 61.679688 57.976562 61.367188 58.085938 C 60.941406 58.160156 60.519531 58.199219 60.09375 58.199219 L 44.25 58.199219 C 43.4375 58.199219 42.773438 58.863281 42.773438 59.675781 C 42.773438 60.488281 43.4375 61.152344 44.25 61.152344 L 60.757812 61.152344 C 61.203125 61.152344 61.644531 61.097656 62.070312 60.988281 C 63.914062 60.652344 65.652344 59.839844 67.183594 58.621094 L 80.738281 47.652344 C 80.757812 47.636719 80.757812 47.636719 80.777344 47.617188 C 81.734375 46.785156 83.046875 46.898438 83.914062 47.839844 C 84.875 48.890625 84.949219 50.644531 84.097656 51.808594 L 58.765625 72.492188 C 51.597656 75.113281 46.925781 75.078125 39.707031 72.398438 C 39.6875 72.398438 39.667969 72.378906 39.632812 72.378906 L 21.867188 66.730469 C 21.71875 66.691406 21.574219 66.65625 21.425781 66.65625 L 15.21875 66.65625 L 15.21875 49.851562 L 21.371094 49.851562 Z M 21.371094 49.871094 " fill-opacity="1" fill-rule="nonzero"/></g></svg>