<svg width="675.5px" height="131.6px" xmlns="http://www.w3.org/2000/svg" viewBox="-87.75 9.200000000000003 675.5 131.6" style="background: rgba(0, 0, 0, 0);" preserveAspectRatio="xMidYMid"><defs><filter id="editing-extrusion" x="-100%" y="-100%" width="300%" height="300%"><feFlood result="color1" flood-color="#444"></feFlood><feConvolveMatrix order="8,8" divisor="1" kernelMatrix="1 0 0 0 0 0 0 0 0 1 0 0 0 0 0 0 0 0 1 0 0 0 0 0 0 0 0 1 0 0 0 0 0 0 0 0 1 0 0 0 0 0 0 0 0 1 0 0 0 0 0 0 0 0 1 0 0 0 0 0 0 0 0 1" in="SourceAlpha" result="extrude"></feConvolveMatrix><feComposite in="color1" in2="extrude" result="comp-extrude" operator="in"></feComposite><feOffset dx="4" dy="4" in="comp-extrude" result="offset-extrude"></feOffset><feMerge><feMergeNode in="offset-extrude"></feMergeNode><feMergeNode in="SourceGraphic"></feMergeNode></feMerge></filter></defs><g filter="url(#editing-extrusion)"><g transform="translate(8.999977588653564, 100.65500068664551)"><path d="M31.81-12.63L31.81-12.63L31.81-12.63Q31.81-10.13 30.78-7.78L30.78-7.78L30.78-7.78Q29.75-5.44 27.88-3.66L27.88-3.66L27.88-3.66Q26-1.88 23.25-0.81L23.25-0.81L23.25-0.81Q20.50 0.25 17 0.25L17 0.25L17 0.25Q15.50 0.25 13.91 0.09L13.91 0.09L13.91 0.09Q12.31-0.06 10.69-0.44L10.69-0.44L10.69-0.44Q9.06-0.81 7.59-1.47L7.59-1.47L7.59-1.47Q6.13-2.13 5.06-3.06L5.06-3.06L6.38-8.44L6.38-8.44Q7.25-7.94 8.59-7.47L8.59-7.47L8.59-7.47Q9.94-7 11.38-6.59L11.38-6.59L11.38-6.59Q12.81-6.19 14.25-5.94L14.25-5.94L14.25-5.94Q15.69-5.69 16.94-5.69L16.94-5.69L16.94-5.69Q20.75-5.69 22.78-7.47L22.78-7.47L22.78-7.47Q24.81-9.25 24.81-12.75L24.81-12.75L24.81-12.75Q24.81-14.88 23.38-16.38L23.38-16.38L23.38-16.38Q21.94-17.88 19.78-19.09L19.78-19.09L19.78-19.09Q17.63-20.31 15.13-21.53L15.13-21.53L15.13-21.53Q12.63-22.75 10.44-24.41L10.44-24.41L10.44-24.41Q8.25-26.06 6.81-28.31L6.81-28.31L6.81-28.31Q5.38-30.56 5.38-33.94L5.38-33.94L5.38-33.94Q5.38-37 6.50-39.38L6.50-39.38L6.50-39.38Q7.63-41.75 9.53-43.41L9.53-43.41L9.53-43.41Q11.44-45.06 13.97-45.94L13.97-45.94L13.97-45.94Q16.50-46.81 19.31-46.81L19.31-46.81L19.31-46.81Q22.19-46.81 25.13-46.28L25.13-46.28L25.13-46.28Q28.06-45.75 29.88-44.56L29.88-44.56L29.88-44.56Q29.50-43.75 29-42.78L29-42.78L29-42.78Q28.50-41.81 28.06-40.97L28.06-40.97L28.06-40.97Q27.63-40.13 27.31-39.56L27.31-39.56L27.31-39.56Q27-39 26.94-38.94L26.94-38.94L26.94-38.94Q26.56-39.13 26.09-39.44L26.09-39.44L26.09-39.44Q25.63-39.75 24.75-40.06L24.75-40.06L24.75-40.06Q23.88-40.38 22.44-40.50L22.44-40.50L22.44-40.50Q21-40.63 18.75-40.44L18.75-40.44L18.75-40.44Q17.50-40.31 16.38-39.72L16.38-39.72L16.38-39.72Q15.25-39.13 14.38-38.25L14.38-38.25L14.38-38.25Q13.50-37.38 13-36.28L13-36.28L13-36.28Q12.50-35.19 12.50-34.19L12.50-34.19L12.50-34.19Q12.50-31.69 13.94-30.16L13.94-30.16L13.94-30.16Q15.38-28.63 17.50-27.47L17.50-27.47L17.50-27.47Q19.63-26.31 22.13-25.22L22.13-25.22L22.13-25.22Q24.63-24.13 26.78-22.56L26.78-22.56L26.78-22.56Q28.94-21 30.38-18.66L30.38-18.66L30.38-18.66Q31.81-16.31 31.81-12.63ZM49.31-30.13L49.31-10.69L49.31-10.69Q49.31-8.56 49.88-7.38L49.88-7.38L49.88-7.38Q50.44-6.19 51.47-5.56L51.47-5.56L51.47-5.56Q52.50-4.94 53.78-4.78L53.78-4.78L53.78-4.78Q55.06-4.63 56.50-4.63L56.50-4.63L56.50 0L56.50 0Q55.69 0.13 54.88 0.19L54.88 0.19L54.88 0.19Q54.19 0.25 53.22 0.28L53.22 0.28L53.22 0.28Q52.25 0.31 51.31 0.31L51.31 0.31L51.31 0.31Q50.38 0.31 49.41 0.25L49.41 0.25L49.41 0.25Q48.44 0.19 47.75 0.06L47.75 0.06L47.75 0.06Q45.63-0.31 44.44-1.78L44.44-1.78L44.44-1.78Q43.25-3.25 42.66-5.03L42.66-5.03L42.66-5.03Q42.06-6.81 41.91-8.50L41.91-8.50L41.91-8.50Q41.75-10.19 41.75-11.13L41.75-11.13L41.75-30.13L37.13-30.13L37.13-35.25L41.75-35.25L41.75-45.25L49.31-45.25L49.31-35.25L54.94-35.25L54.94-30.13L49.31-30.13ZM90.94-19.06L90.94-10.94L90.94-10.44L90.94-10.44Q90.94-9.94 91-8.97L91-8.97L91-8.97Q91.06-8 91.25-7L91.25-7L91.25-7Q91.44-6 91.84-5.19L91.84-5.19L91.84-5.19Q92.25-4.38 92.94-4.13L92.94-4.13L90.94 0.06L90.94 0.06Q90.13 0.06 89.22-0.31L89.22-0.31L89.22-0.31Q88.31-0.69 87.47-1.38L87.47-1.38L87.47-1.38Q86.63-2.06 86.03-2.91L86.03-2.91L86.03-2.91Q85.44-3.75 85.13-4.75L85.13-4.75L85.13-4.75Q84.69-3.69 83.59-2.78L83.59-2.78L83.59-2.78Q82.50-1.88 81.13-1.16L81.13-1.16L81.13-1.16Q79.75-0.44 78.16-0.06L78.16-0.06L78.16-0.06Q76.56 0.31 75.19 0.31L75.19 0.31L75.19 0.31Q73.06 0.31 71.09-0.25L71.09-0.25L71.09-0.25Q69.13-0.81 67.63-2.06L67.63-2.06L67.63-2.06Q66.13-3.31 65.28-5.38L65.28-5.38L65.28-5.38Q64.44-7.44 64.44-10.44L64.44-10.44L64.44-10.44Q64.44-13.31 65.66-15.41L65.66-15.41L65.66-15.41Q66.88-17.50 68.78-18.84L68.78-18.84L68.78-18.84Q70.69-20.19 73.13-20.84L73.13-20.84L73.13-20.84Q75.56-21.50 78.06-21.50L78.06-21.50L83.38-21.50L83.38-21.50Q83.38-24.56 83.06-26.38L83.06-26.38L83.06-26.38Q82.75-28.19 82-29.03L82-29.03L82-29.03Q81.25-29.88 80.16-30.09L80.16-30.09L80.16-30.09Q79.06-30.31 77.56-30.31L77.56-30.31L77.56-30.31Q76.19-30.31 74.97-29.97L74.97-29.97L74.97-29.97Q73.75-29.63 72.72-29.16L72.72-29.16L72.72-29.16Q71.69-28.69 70.91-28.13L70.91-28.13L70.91-28.13Q70.13-27.56 69.75-27.25L69.75-27.25L66.94-31.56L66.94-31.56Q67.56-32.25 68.81-32.97L68.81-32.97L68.81-32.97Q70.06-33.69 71.69-34.25L71.69-34.25L71.69-34.25Q73.31-34.81 75.22-35.16L75.22-35.16L75.22-35.16Q77.13-35.50 79.19-35.50L79.19-35.50L79.19-35.50Q81.06-35.50 82.84-35.13L82.84-35.13L82.84-35.13Q84.63-34.75 86.09-33.88L86.09-33.88L86.09-33.88Q87.56-33 88.66-31.53L88.66-31.53L88.66-31.53Q89.75-30.06 90.19-27.88L90.19-27.88L90.19-27.88Q90.63-25.69 90.78-23.47L90.78-23.47L90.78-23.47Q90.94-21.25 90.94-19.06L90.94-19.06ZM83.44-8.44L83.44-17.06L79.44-17.06L79.44-17.06Q78.19-17.06 76.81-16.81L76.81-16.81L76.81-16.81Q75.44-16.56 74.25-15.88L74.25-15.88L74.25-15.88Q73.06-15.19 72.28-13.91L72.28-13.91L72.28-13.91Q71.50-12.63 71.50-10.63L71.50-10.63L71.50-10.63Q71.50-7.50 72.91-6.13L72.91-6.13L72.91-6.13Q74.31-4.75 77-4.75L77-4.75L77-4.75Q78.88-4.75 80.59-5.75L80.59-5.75L80.59-5.75Q82.31-6.75 83.44-8.44L83.44-8.44ZM134-24.56L134-24.56L134-24.56Q134.75-21.69 134.75-18.25L134.75-18.25L134.75-18.25Q134.75-14.69 133.91-11.31L133.91-11.31L133.91-11.31Q133.06-7.94 131.34-5.34L131.34-5.34L131.34-5.34Q129.63-2.75 127.03-1.22L127.03-1.22L127.03-1.22Q124.44 0.31 120.94 0.31L120.94 0.31L120.94 0.31Q119.06 0.31 117.31-0.06L117.31-0.06L117.31-0.06Q115.56-0.44 114.16-1.09L114.16-1.09L114.16-1.09Q112.75-1.75 111.84-2.53L111.84-2.53L111.84-2.53Q110.94-3.31 110.75-4.19L110.75-4.19L110.75-4.19Q110.69-3.31 110.56-2.19L110.56-2.19L110.56-2.19Q110.44-1.06 110.38 0L110.38 0L103.19 0L103.19-48.56L110.75-48.56L110.75-31.69L110.75-31.69Q112-33.44 114.53-34.50L114.53-34.50L114.53-34.50Q117.06-35.56 120.13-35.56L120.13-35.56L120.13-35.56Q122.19-35.56 124.31-35L124.31-35L124.31-35Q126.44-34.44 128.28-33.13L128.28-33.13L128.28-33.13Q130.13-31.81 131.66-29.69L131.66-29.69L131.66-29.69Q133.19-27.56 134-24.56ZM118.38-5.63L118.38-5.63L118.38-5.63Q120.25-5.63 121.78-6.56L121.78-6.56L121.78-6.56Q123.31-7.50 124.41-9.09L124.41-9.09L124.41-9.09Q125.50-10.69 126.16-12.88L126.16-12.88L126.16-12.88Q126.81-15.06 126.81-17.56L126.81-17.56L126.81-17.56Q126.81-20 126.22-22.19L126.22-22.19L126.22-22.19Q125.63-24.38 124.59-26.06L124.59-26.06L124.59-26.06Q123.56-27.75 122.06-28.75L122.06-28.75L122.06-28.75Q120.56-29.75 118.69-29.75L118.69-29.75L118.69-29.75Q116.81-29.75 115.25-28.81L115.25-28.81L115.25-28.81Q113.69-27.88 112.59-26.28L112.59-26.28L112.59-26.28Q111.50-24.69 110.91-22.53L110.91-22.53L110.91-22.53Q110.31-20.38 110.31-17.88L110.31-17.88L110.31-17.88Q110.31-15.38 110.84-13.16L110.84-13.16L110.84-13.16Q111.38-10.94 112.44-9.28L112.44-9.28L112.44-9.28Q113.50-7.63 114.97-6.63L114.97-6.63L114.97-6.63Q116.44-5.63 118.38-5.63ZM150.75-48.56L150.75-10.75L150.75-10.75Q150.75-8.63 151.31-7.41L151.31-7.41L151.31-7.41Q151.88-6.19 152.88-5.59L152.88-5.59L152.88-5.59Q153.88-5 155.16-4.81L155.16-4.81L155.16-4.81Q156.44-4.63 157.94-4.63L157.94-4.63L157.94 0L157.94 0Q157.13 0.13 156.25 0.19L156.25 0.19L156.25 0.19Q155.56 0.25 154.63 0.28L154.63 0.28L154.63 0.28Q153.69 0.31 152.75 0.31L152.75 0.31L152.75 0.31Q151.81 0.31 150.88 0.25L150.88 0.25L150.88 0.25Q149.94 0.19 149.19 0.06L149.19 0.06L149.19 0.06Q147.06-0.38 145.88-1.81L145.88-1.81L145.88-1.81Q144.69-3.25 144.06-5.03L144.06-5.03L144.06-5.03Q143.44-6.81 143.28-8.50L143.28-8.50L143.28-8.50Q143.13-10.19 143.13-11.13L143.13-11.13L143.13-11.88L143.13-48.56L150.75-48.56ZM180.69-35.63L180.69-35.63L180.69-35.63Q184.94-35.63 188.19-33.91L188.19-33.91L188.19-33.91Q191.44-32.19 193.53-29.34L193.53-29.34L193.53-29.34Q195.63-26.50 196.53-22.78L196.53-22.78L196.53-22.78Q197.44-19.06 196.88-15.06L196.88-15.06L172.38-15.06L172.38-15.06Q172.38-13.06 173.13-11.38L173.13-11.38L173.13-11.38Q173.88-9.69 175.16-8.47L175.16-8.47L175.16-8.47Q176.44-7.25 178.22-6.56L178.22-6.56L178.22-6.56Q180-5.88 182.06-5.88L182.06-5.88L182.06-5.88Q182.75-5.88 183.78-6.03L183.78-6.03L183.78-6.03Q184.81-6.19 185.97-6.59L185.97-6.59L185.97-6.59Q187.13-7 188.28-7.63L188.28-7.63L188.28-7.63Q189.44-8.25 190.31-9.13L190.31-9.13L193.06-4.94L193.06-4.94Q191-2.38 188.25-1.06L188.25-1.06L188.25-1.06Q185.50 0.25 181.25 0.25L181.25 0.25L181.25 0.25Q177.81 0.25 174.81-1.16L174.81-1.16L174.81-1.16Q171.81-2.56 169.69-5L169.69-5L169.69-5Q167.56-7.44 166.31-10.69L166.31-10.69L166.31-10.69Q165.06-13.94 165.06-17.69L165.06-17.69L165.06-17.69Q165.06-21.38 166.31-24.66L166.31-24.66L166.31-24.66Q167.56-27.94 169.66-30.38L169.66-30.38L169.66-30.38Q171.75-32.81 174.63-34.22L174.63-34.22L174.63-34.22Q177.50-35.63 180.69-35.63ZM172.63-20.56L189.88-20.56L189.88-20.56Q189.88-22.25 189.25-23.88L189.25-23.88L189.25-23.88Q188.63-25.50 187.53-26.81L187.53-26.81L187.53-26.81Q186.44-28.13 184.88-28.91L184.88-28.91L184.88-28.91Q183.31-29.69 181.50-29.75L181.50-29.75L181.50-29.75Q179.56-29.75 177.94-29L177.94-29L177.94-29Q176.31-28.25 175.13-27L175.13-27L175.13-27Q173.94-25.75 173.28-24.03L173.28-24.03L173.28-24.03Q172.63-22.31 172.63-20.56L172.63-20.56ZM251-12.63L251-12.63L251-12.63Q251-10.13 249.97-7.78L249.97-7.78L249.97-7.78Q248.94-5.44 247.06-3.66L247.06-3.66L247.06-3.66Q245.19-1.88 242.44-0.81L242.44-0.81L242.44-0.81Q239.69 0.25 236.19 0.25L236.19 0.25L236.19 0.25Q234.69 0.25 233.09 0.09L233.09 0.09L233.09 0.09Q231.50-0.06 229.88-0.44L229.88-0.44L229.88-0.44Q228.25-0.81 226.78-1.47L226.78-1.47L226.78-1.47Q225.31-2.13 224.25-3.06L224.25-3.06L225.56-8.44L225.56-8.44Q226.44-7.94 227.78-7.47L227.78-7.47L227.78-7.47Q229.13-7 230.56-6.59L230.56-6.59L230.56-6.59Q232-6.19 233.44-5.94L233.44-5.94L233.44-5.94Q234.88-5.69 236.13-5.69L236.13-5.69L236.13-5.69Q239.94-5.69 241.97-7.47L241.97-7.47L241.97-7.47Q244-9.25 244-12.75L244-12.75L244-12.75Q244-14.88 242.56-16.38L242.56-16.38L242.56-16.38Q241.13-17.88 238.97-19.09L238.97-19.09L238.97-19.09Q236.81-20.31 234.31-21.53L234.31-21.53L234.31-21.53Q231.81-22.75 229.63-24.41L229.63-24.41L229.63-24.41Q227.44-26.06 226-28.31L226-28.31L226-28.31Q224.56-30.56 224.56-33.94L224.56-33.94L224.56-33.94Q224.56-37 225.69-39.38L225.69-39.38L225.69-39.38Q226.81-41.75 228.72-43.41L228.72-43.41L228.72-43.41Q230.63-45.06 233.16-45.94L233.16-45.94L233.16-45.94Q235.69-46.81 238.50-46.81L238.50-46.81L238.50-46.81Q241.38-46.81 244.31-46.28L244.31-46.28L244.31-46.28Q247.25-45.75 249.06-44.56L249.06-44.56L249.06-44.56Q248.69-43.75 248.19-42.78L248.19-42.78L248.19-42.78Q247.69-41.81 247.25-40.97L247.25-40.97L247.25-40.97Q246.81-40.13 246.50-39.56L246.50-39.56L246.50-39.56Q246.19-39 246.13-38.94L246.13-38.94L246.13-38.94Q245.75-39.13 245.28-39.44L245.28-39.44L245.28-39.44Q244.81-39.75 243.94-40.06L243.94-40.06L243.94-40.06Q243.06-40.38 241.63-40.50L241.63-40.50L241.63-40.50Q240.19-40.63 237.94-40.44L237.94-40.44L237.94-40.44Q236.69-40.31 235.56-39.72L235.56-39.72L235.56-39.72Q234.44-39.13 233.56-38.25L233.56-38.25L233.56-38.25Q232.69-37.38 232.19-36.28L232.19-36.28L232.19-36.28Q231.69-35.19 231.69-34.19L231.69-34.19L231.69-34.19Q231.69-31.69 233.13-30.16L233.13-30.16L233.13-30.16Q234.56-28.63 236.69-27.47L236.69-27.47L236.69-27.47Q238.81-26.31 241.31-25.22L241.31-25.22L241.31-25.22Q243.81-24.13 245.97-22.56L245.97-22.56L245.97-22.56Q248.13-21 249.56-18.66L249.56-18.66L249.56-18.66Q251-16.31 251-12.63ZM274.13-35.44L274.13-35.44L274.13-35.44Q277.75-35.44 280.69-34.03L280.69-34.03L280.69-34.03Q283.63-32.63 285.69-30.19L285.69-30.19L285.69-30.19Q287.75-27.75 288.88-24.50L288.88-24.50L288.88-24.50Q290-21.25 290-17.50L290-17.50L290-17.50Q290-13.75 288.81-10.47L288.81-10.47L288.81-10.47Q287.63-7.19 285.47-4.78L285.47-4.78L285.47-4.78Q283.31-2.38 280.34-1.03L280.34-1.03L280.34-1.03Q277.38 0.31 273.75 0.31L273.75 0.31L273.75 0.31Q270.06 0.31 267.03-1.06L267.03-1.06L267.03-1.06Q264-2.44 261.91-4.88L261.91-4.88L261.91-4.88Q259.81-7.31 258.69-10.56L258.69-10.56L258.69-10.56Q257.56-13.81 257.56-17.63L257.56-17.63L257.56-17.63Q257.56-21.44 258.78-24.75L258.78-24.75L258.78-24.75Q260-28.06 262.16-30.41L262.16-30.41L262.16-30.41Q264.31-32.75 267.38-34.09L267.38-34.09L267.38-34.09Q270.44-35.44 274.13-35.44ZM273.63-5.63L273.63-5.63L273.63-5.63Q275.50-5.63 277.03-6.53L277.03-6.53L277.03-6.53Q278.56-7.44 279.66-9.03L279.66-9.03L279.66-9.03Q280.75-10.63 281.41-12.81L281.41-12.81L281.41-12.81Q282.06-15 282.06-17.50L282.06-17.50L282.06-17.50Q282.06-20 281.47-22.19L281.47-22.19L281.47-22.19Q280.88-24.38 279.84-26.03L279.84-26.03L279.84-26.03Q278.81-27.69 277.31-28.69L277.31-28.69L277.31-28.69Q275.81-29.69 273.94-29.69L273.94-29.69L273.94-29.69Q272.06-29.69 270.50-28.75L270.50-28.75L270.50-28.75Q268.94-27.81 267.84-26.22L267.84-26.22L267.84-26.22Q266.75-24.63 266.16-22.47L266.16-22.47L266.16-22.47Q265.56-20.31 265.56-17.81L265.56-17.81L265.56-17.81Q265.56-15.31 266.09-13.09L266.09-13.09L266.09-13.09Q266.63-10.88 267.69-9.25L267.69-9.25L267.69-9.25Q268.75-7.63 270.22-6.63L270.22-6.63L270.22-6.63Q271.69-5.63 273.63-5.63ZM307.31-48.56L307.31-10.75L307.31-10.75Q307.31-8.63 307.88-7.41L307.88-7.41L307.88-7.41Q308.44-6.19 309.44-5.59L309.44-5.59L309.44-5.59Q310.44-5 311.72-4.81L311.72-4.81L311.72-4.81Q313-4.63 314.50-4.63L314.50-4.63L314.50 0L314.50 0Q313.69 0.13 312.81 0.19L312.81 0.19L312.81 0.19Q312.13 0.25 311.19 0.28L311.19 0.28L311.19 0.28Q310.25 0.31 309.31 0.31L309.31 0.31L309.31 0.31Q308.38 0.31 307.44 0.25L307.44 0.25L307.44 0.25Q306.50 0.19 305.75 0.06L305.75 0.06L305.75 0.06Q303.63-0.38 302.44-1.81L302.44-1.81L302.44-1.81Q301.25-3.25 300.63-5.03L300.63-5.03L300.63-5.03Q300-6.81 299.84-8.50L299.84-8.50L299.84-8.50Q299.69-10.19 299.69-11.13L299.69-11.13L299.69-11.88L299.69-48.56L307.31-48.56ZM322.25-34.06L322.25-34L322.25-35.25L329.88-35.25L329.88-16.06L329.88-16.06Q329.88-13.88 330.06-11.97L330.06-11.97L330.06-11.97Q330.25-10.06 330.88-8.63L330.88-8.63L330.88-8.63Q331.50-7.19 332.75-6.31L332.75-6.31L332.75-6.31Q334-5.44 336.06-5.44L336.06-5.44L336.06-5.44Q336.69-5.44 337.81-5.59L337.81-5.59L337.81-5.59Q338.94-5.75 340.09-6.13L340.09-6.13L340.09-6.13Q341.25-6.50 342.28-7.06L342.28-7.06L342.28-7.06Q343.31-7.63 343.81-8.38L343.81-8.38L343.81-8.81L343.81-8.88L343.81-22.88L343.81-22.94L343.81-35.25L351.44-35.25L351.44 0L344.63 0L343.81-3.63L343.81-3.63Q343.06-2.94 341.94-2.25L341.94-2.25L341.94-2.25Q340.81-1.56 339.47-0.97L339.47-0.97L339.47-0.97Q338.13-0.38 336.72-0.03L336.72-0.03L336.72-0.03Q335.31 0.31 333.94 0.31L333.94 0.31L333.94 0.31Q332.44 0.31 331.25 0.03L331.25 0.03L331.25 0.03Q330.06-0.25 329.03-0.84L329.03-0.84L329.03-0.84Q328-1.44 327.06-2.19L327.06-2.19L327.06-2.19Q326.13-2.94 325.19-3.88L325.19-3.88L325.19-3.88Q324.13-4.94 323.50-6.34L323.50-6.34L323.50-6.34Q322.88-7.75 322.59-9.28L322.59-9.28L322.59-9.28Q322.31-10.81 322.28-12.38L322.28-12.38L322.28-12.38Q322.25-13.94 322.25-15.44L322.25-15.44L322.25-34.06ZM372.13-30.13L372.13-10.69L372.13-10.69Q372.13-8.56 372.69-7.38L372.69-7.38L372.69-7.38Q373.25-6.19 374.28-5.56L374.28-5.56L374.28-5.56Q375.31-4.94 376.59-4.78L376.59-4.78L376.59-4.78Q377.88-4.63 379.31-4.63L379.31-4.63L379.31 0L379.31 0Q378.50 0.13 377.69 0.19L377.69 0.19L377.69 0.19Q377 0.25 376.03 0.28L376.03 0.28L376.03 0.28Q375.06 0.31 374.13 0.31L374.13 0.31L374.13 0.31Q373.19 0.31 372.22 0.25L372.22 0.25L372.22 0.25Q371.25 0.19 370.56 0.06L370.56 0.06L370.56 0.06Q368.44-0.31 367.25-1.78L367.25-1.78L367.25-1.78Q366.06-3.25 365.47-5.03L365.47-5.03L365.47-5.03Q364.88-6.81 364.72-8.50L364.72-8.50L364.72-8.50Q364.56-10.19 364.56-11.13L364.56-11.13L364.56-30.13L359.94-30.13L359.94-35.25L364.56-35.25L364.56-45.25L372.13-45.25L372.13-35.25L377.75-35.25L377.75-30.13L372.13-30.13ZM395.75-35.25L395.75 0L388.13 0L388.13-35.25L395.75-35.25ZM396.44-46.50L396.44-46.50L396.44-46.50Q396.44-44.63 395.13-43.34L395.13-43.34L395.13-43.34Q393.81-42.06 391.94-42.06L391.94-42.06L391.94-42.06Q390.06-42.06 388.78-43.38L388.78-43.38L388.78-43.38Q387.50-44.69 387.50-46.50L387.50-46.50L387.50-46.50Q387.50-48.38 388.81-49.69L388.81-49.69L388.81-49.69Q390.13-51 391.94-51L391.94-51L391.94-51Q393.81-51 395.13-49.69L395.13-49.69L395.13-49.69Q396.44-48.38 396.44-46.50ZM422.06-35.44L422.06-35.44L422.06-35.44Q425.69-35.44 428.63-34.03L428.63-34.03L428.63-34.03Q431.56-32.63 433.63-30.19L433.63-30.19L433.63-30.19Q435.69-27.75 436.81-24.50L436.81-24.50L436.81-24.50Q437.94-21.25 437.94-17.50L437.94-17.50L437.94-17.50Q437.94-13.75 436.75-10.47L436.75-10.47L436.75-10.47Q435.56-7.19 433.41-4.78L433.41-4.78L433.41-4.78Q431.25-2.38 428.28-1.03L428.28-1.03L428.28-1.03Q425.31 0.31 421.69 0.31L421.69 0.31L421.69 0.31Q418 0.31 414.97-1.06L414.97-1.06L414.97-1.06Q411.94-2.44 409.84-4.88L409.84-4.88L409.84-4.88Q407.75-7.31 406.63-10.56L406.63-10.56L406.63-10.56Q405.50-13.81 405.50-17.63L405.50-17.63L405.50-17.63Q405.50-21.44 406.72-24.75L406.72-24.75L406.72-24.75Q407.94-28.06 410.09-30.41L410.09-30.41L410.09-30.41Q412.25-32.75 415.31-34.09L415.31-34.09L415.31-34.09Q418.38-35.44 422.06-35.44ZM421.56-5.63L421.56-5.63L421.56-5.63Q423.44-5.63 424.97-6.53L424.97-6.53L424.97-6.53Q426.50-7.44 427.59-9.03L427.59-9.03L427.59-9.03Q428.69-10.63 429.34-12.81L429.34-12.81L429.34-12.81Q430-15 430-17.50L430-17.50L430-17.50Q430-20 429.41-22.19L429.41-22.19L429.41-22.19Q428.81-24.38 427.78-26.03L427.78-26.03L427.78-26.03Q426.75-27.69 425.25-28.69L425.25-28.69L425.25-28.69Q423.75-29.69 421.88-29.69L421.88-29.69L421.88-29.69Q420-29.69 418.44-28.75L418.44-28.75L418.44-28.75Q416.88-27.81 415.78-26.22L415.78-26.22L415.78-26.22Q414.69-24.63 414.09-22.47L414.09-22.47L414.09-22.47Q413.50-20.31 413.50-17.81L413.50-17.81L413.50-17.81Q413.50-15.31 414.03-13.09L414.03-13.09L414.03-13.09Q414.56-10.88 415.63-9.25L415.63-9.25L415.63-9.25Q416.69-7.63 418.16-6.63L418.16-6.63L418.16-6.63Q419.63-5.63 421.56-5.63ZM476.94-1.25L476.94 0L469.31 0L469.31-19.19L469.31-19.19Q469.31-21.31 469.13-23.25L469.13-23.25L469.13-23.25Q468.94-25.19 468.25-26.69L468.25-26.69L468.25-26.69Q467.56-28.19 466.38-29.03L466.38-29.03L466.38-29.03Q465.19-29.88 463.06-29.88L463.06-29.88L463.06-29.88Q462.38-29.88 461.28-29.69L461.28-29.69L461.28-29.69Q460.19-29.50 459.03-29.13L459.03-29.13L459.03-29.13Q457.88-28.75 456.84-28.19L456.84-28.19L456.84-28.19Q455.81-27.63 455.31-26.88L455.31-26.88L455.31-26.50L455.31-26.38L455.31-12.50L455.31-12.38L455.31 0L447.75 0L447.75-35.25L454.50-35.25L455.31-31.69L455.31-31.69Q456.06-32.38 457.22-33.09L457.22-33.09L457.22-33.09Q458.38-33.81 459.75-34.38L459.75-34.38L459.75-34.38Q461.13-34.94 462.56-35.28L462.56-35.28L462.56-35.28Q464-35.63 465.38-35.63L465.38-35.63L465.38-35.63Q468.19-35.63 470.13-34.44L470.13-34.44L470.13-34.44Q472.06-33.25 474-31.38L474-31.38L474-31.38Q475.06-30.31 475.66-28.91L475.66-28.91L475.66-28.91Q476.25-27.50 476.53-25.97L476.53-25.97L476.53-25.97Q476.81-24.44 476.88-22.88L476.88-22.88L476.88-22.88Q476.94-21.31 476.94-19.81L476.94-19.81L476.94-1.25Z" fill="#ccc"></path></g></g><style>text {
  font-size: 64px;
  font-family: Arial Black;
  dominant-baseline: central;
  text-anchor: middle;
}</style></svg>