<svg xmlns="http://www.w3.org/2000/svg" xmlns:xlink="http://www.w3.org/1999/xlink" width="649" zoomAndPan="magnify" viewBox="0 0 486.75 103.5" height="138" preserveAspectRatio="xMidYMid meet" version="1.0"><defs><g/><clipPath id="606d605129"><path d="M 55 65.148438 L 119 65.148438 L 119 95.75 L 55 95.75 Z M 55 65.148438 " clip-rule="nonzero"/></clipPath><clipPath id="205ef36024"><path d="M 178.546875 18 L 484 18 L 484 102 L 178.546875 102 Z M 178.546875 18 " clip-rule="nonzero"/></clipPath></defs><g clip-path="url(#606d605129)"><path fill="#ffffff" d="M 86.839844 96.003906 C 85.90625 96 84.972656 95.960938 84.042969 95.878906 C 83.113281 95.796875 82.1875 95.675781 81.265625 95.515625 C 80.34375 95.351562 79.433594 95.148438 78.53125 94.910156 C 77.628906 94.667969 76.738281 94.386719 75.859375 94.070312 C 74.980469 93.75 74.117188 93.394531 73.269531 93 C 72.421875 92.605469 71.59375 92.175781 70.785156 91.710938 C 69.972656 91.242188 69.183594 90.742188 68.417969 90.207031 C 67.652344 89.675781 66.910156 89.109375 66.191406 88.507812 C 65.476562 87.910156 64.785156 87.28125 64.125 86.621094 C 63.460938 85.960938 62.828125 85.277344 62.226562 84.5625 C 61.621094 83.847656 61.050781 83.109375 60.511719 82.34375 C 59.976562 81.582031 59.472656 80.796875 59 79.988281 C 58.53125 79.179688 58.097656 78.355469 57.699219 77.507812 C 57.300781 76.664062 56.9375 75.800781 56.613281 74.925781 C 56.292969 74.046875 56.007812 73.160156 55.761719 72.257812 C 55.515625 71.355469 55.308594 70.445312 55.140625 69.527344 C 55.058594 69.070312 55.0625 68.613281 55.160156 68.160156 C 55.257812 67.703125 55.4375 67.285156 55.699219 66.902344 C 55.960938 66.519531 56.289062 66.199219 56.679688 65.945312 C 57.070312 65.695312 57.492188 65.523438 57.949219 65.441406 C 58.40625 65.355469 58.863281 65.363281 59.316406 65.457031 C 59.773438 65.554688 60.191406 65.734375 60.574219 65.996094 C 60.957031 66.261719 61.273438 66.585938 61.527344 66.976562 C 61.78125 67.367188 61.949219 67.789062 62.035156 68.246094 C 62.3125 69.683594 62.707031 71.089844 63.222656 72.457031 C 63.742188 73.824219 64.371094 75.140625 65.113281 76.402344 C 65.855469 77.664062 66.699219 78.851562 67.644531 79.96875 C 68.59375 81.082031 69.628906 82.109375 70.75 83.046875 C 71.875 83.984375 73.066406 84.820312 74.335938 85.554688 C 75.601562 86.289062 76.921875 86.90625 78.292969 87.414062 C 79.667969 87.921875 81.074219 88.304688 82.511719 88.570312 C 83.949219 88.835938 85.402344 88.976562 86.863281 88.992188 C 86.964844 88.992188 87.066406 88.992188 87.167969 88.992188 C 88.617188 88.964844 90.054688 88.816406 91.484375 88.546875 C 92.910156 88.273438 94.300781 87.882812 95.660156 87.371094 C 97.019531 86.859375 98.324219 86.238281 99.574219 85.5 C 100.824219 84.765625 102.003906 83.929688 103.113281 82.992188 C 104.222656 82.054688 105.242188 81.027344 106.171875 79.914062 C 107.105469 78.800781 107.933594 77.617188 108.660156 76.359375 C 109.390625 75.105469 110.003906 73.792969 110.507812 72.433594 C 111.011719 71.070312 111.394531 69.675781 111.65625 68.25 C 111.742188 67.792969 111.910156 67.367188 112.164062 66.976562 C 112.417969 66.585938 112.734375 66.261719 113.117188 65.996094 C 113.5 65.734375 113.921875 65.554688 114.375 65.457031 C 114.828125 65.359375 115.285156 65.355469 115.742188 65.4375 C 116.199219 65.523438 116.625 65.691406 117.015625 65.945312 C 117.402344 66.199219 117.730469 66.515625 117.992188 66.902344 C 118.257812 67.285156 118.4375 67.703125 118.535156 68.15625 C 118.628906 68.613281 118.636719 69.070312 118.550781 69.527344 C 118.382812 70.4375 118.175781 71.335938 117.929688 72.230469 C 117.683594 73.121094 117.398438 74 117.078125 74.871094 C 116.757812 75.738281 116.398438 76.589844 116.003906 77.425781 C 115.609375 78.261719 115.179688 79.082031 114.714844 79.882812 C 114.25 80.683594 113.753906 81.460938 113.222656 82.21875 C 112.691406 82.976562 112.128906 83.710938 111.53125 84.417969 C 110.9375 85.128906 110.316406 85.8125 109.660156 86.46875 C 109.007812 87.121094 108.328125 87.75 107.621094 88.347656 C 106.914062 88.945312 106.183594 89.511719 105.429688 90.046875 C 104.675781 90.582031 103.898438 91.082031 103.097656 91.550781 C 102.300781 92.019531 101.484375 92.453125 100.648438 92.847656 C 99.8125 93.246094 98.964844 93.609375 98.097656 93.933594 C 97.230469 94.261719 96.351562 94.546875 95.460938 94.796875 C 94.570312 95.046875 93.667969 95.257812 92.761719 95.429688 C 91.851562 95.605469 90.9375 95.738281 90.015625 95.832031 C 89.09375 95.925781 88.171875 95.980469 87.246094 95.996094 Z M 86.839844 96.003906 " fill-opacity="1" fill-rule="nonzero"/></g><g clip-path="url(#205ef36024)"><path fill="#ffffff" d="M 430.5 18.183594 C 398.382812 18.183594 353.042969 20.109375 321.757812 20.109375 C 298.101562 20.109375 242.289062 17.683594 219.765625 23.105469 C 217.890625 23.554688 215.664062 36.191406 214.917969 49.429688 C 201.21875 50.964844 182.488281 49.808594 178.984375 47.359375 C 181.535156 55.550781 199.660156 67.15625 214.070312 75.347656 C 214.996094 88.40625 218.511719 101.1875 224.546875 101.515625 C 245.359375 102.648438 443.640625 99.542969 460.121094 99.3125 C 468.152344 99.199219 479.558594 96.980469 482.585938 82.054688 C 484.039062 74.894531 484.289062 27.972656 476.976562 23.363281 C 470.644531 19.371094 452.476562 18.183594 430.5 18.183594 " fill-opacity="1" fill-rule="nonzero"/></g><path fill="#ffffff" d="M 427.542969 21.648438 C 395.507812 21.652344 352.734375 24.175781 321.53125 24.175781 C 297.9375 24.175781 244.71875 22.101562 222.253906 27.507812 C 220.382812 27.957031 218.414062 39 217.671875 52.207031 C 203.957031 53.046875 187.753906 53.433594 184.261719 50.988281 C 186.753906 55.453125 203.34375 65.566406 217.722656 73.738281 C 218.644531 86.761719 221.464844 97.539062 227.480469 97.867188 C 248.242188 98.992188 440.1875 95.875 456.628906 95.644531 C 464.636719 95.535156 475.261719 93.320312 478.28125 78.433594 C 479.730469 71.289062 480.441406 31.414062 473.148438 26.8125 C 466.832031 22.832031 449.464844 21.648438 427.542969 21.648438 " fill-opacity="1" fill-rule="nonzero"/><path fill="#ffffff" d="M 184.261719 50.988281 C 186.753906 55.453125 203.347656 65.566406 217.722656 73.738281 C 218.644531 86.761719 221.464844 97.539062 227.480469 97.867188 C 248.242188 98.992188 440.1875 95.875 456.625 95.644531 C 464.636719 95.535156 475.261719 93.320312 478.28125 78.433594 C 479.011719 74.828125 479.554688 62.890625 478.976562 51.359375 C 478.25 66.054688 470.4375 82.578125 463.019531 86.085938 C 455.367188 89.703125 401.476562 88.730469 401.476562 88.730469 C 401.476562 88.730469 234.472656 93.003906 229.550781 89.855469 C 224.632812 86.707031 223.253906 70.648438 223.253906 70.648438 C 223.253906 70.648438 215.972656 66.515625 209.082031 64.351562 C 204.679688 62.964844 193.34375 56.128906 184.960938 51.371094 C 184.691406 51.25 184.453125 51.125 184.261719 50.988281 " fill-opacity="1" fill-rule="nonzero"/><g fill="#ffffff" fill-opacity="1"><g transform="translate(21.47648, 55.754775)"><g><path d="M 22.96875 -18.3125 C 22.96875 -16.75 22.609375 -15.316406 21.890625 -14.015625 C 21.171875 -12.722656 20.066406 -11.675781 18.578125 -10.875 C 17.085938 -10.082031 15.242188 -9.6875 13.046875 -9.6875 L 8.96875 -9.6875 L 8.96875 0 L 2.390625 0 L 2.390625 -27 L 13.046875 -27 C 15.191406 -27 17.007812 -26.628906 18.5 -25.890625 C 19.988281 -25.148438 21.101562 -24.125 21.84375 -22.8125 C 22.59375 -21.5 22.96875 -20 22.96875 -18.3125 Z M 12.546875 -14.921875 C 13.796875 -14.921875 14.726562 -15.21875 15.34375 -15.8125 C 15.957031 -16.40625 16.265625 -17.238281 16.265625 -18.3125 C 16.265625 -19.382812 15.957031 -20.21875 15.34375 -20.8125 C 14.726562 -21.40625 13.796875 -21.703125 12.546875 -21.703125 L 8.96875 -21.703125 L 8.96875 -14.921875 Z M 12.546875 -14.921875 "/></g></g></g><g fill="#ffffff" fill-opacity="1"><g transform="translate(45.483051, 55.754775)"><g><path d="M 12.15625 0.3125 C 10.050781 0.3125 8.160156 -0.132812 6.484375 -1.03125 C 4.804688 -1.9375 3.484375 -3.222656 2.515625 -4.890625 C 1.554688 -6.554688 1.078125 -8.503906 1.078125 -10.734375 C 1.078125 -12.941406 1.5625 -14.882812 2.53125 -16.5625 C 3.507812 -18.238281 4.84375 -19.523438 6.53125 -20.421875 C 8.226562 -21.316406 10.128906 -21.765625 12.234375 -21.765625 C 14.335938 -21.765625 16.234375 -21.316406 17.921875 -20.421875 C 19.617188 -19.523438 20.953125 -18.238281 21.921875 -16.5625 C 22.898438 -14.882812 23.390625 -12.941406 23.390625 -10.734375 C 23.390625 -8.523438 22.894531 -6.582031 21.90625 -4.90625 C 20.914062 -3.226562 19.566406 -1.9375 17.859375 -1.03125 C 16.160156 -0.132812 14.257812 0.3125 12.15625 0.3125 Z M 12.15625 -5.390625 C 13.414062 -5.390625 14.488281 -5.847656 15.375 -6.765625 C 16.257812 -7.691406 16.703125 -9.015625 16.703125 -10.734375 C 16.703125 -12.453125 16.269531 -13.769531 15.40625 -14.6875 C 14.550781 -15.613281 13.492188 -16.078125 12.234375 -16.078125 C 10.953125 -16.078125 9.882812 -15.617188 9.03125 -14.703125 C 8.1875 -13.796875 7.765625 -12.472656 7.765625 -10.734375 C 7.765625 -9.015625 8.179688 -7.691406 9.015625 -6.765625 C 9.847656 -5.847656 10.894531 -5.390625 12.15625 -5.390625 Z M 12.15625 -5.390625 "/></g></g></g><g fill="#ffffff" fill-opacity="1"><g transform="translate(69.989764, 55.754775)"><g><path d="M 8.96875 -17.890625 C 9.738281 -19.066406 10.695312 -19.992188 11.84375 -20.671875 C 13 -21.359375 14.28125 -21.703125 15.6875 -21.703125 L 15.6875 -14.734375 L 13.890625 -14.734375 C 12.242188 -14.734375 11.007812 -14.378906 10.1875 -13.671875 C 9.375 -12.972656 8.96875 -11.738281 8.96875 -9.96875 L 8.96875 0 L 2.390625 0 L 2.390625 -21.46875 L 8.96875 -21.46875 Z M 8.96875 -17.890625 "/></g></g></g><g fill="#ffffff" fill-opacity="1"><g transform="translate(86.455816, 55.754775)"><g><path d="M 13.15625 -16 L 9.625 -16 L 9.625 0 L 3.03125 0 L 3.03125 -16 L 0.65625 -16 L 0.65625 -21.46875 L 3.03125 -21.46875 L 3.03125 -22.078125 C 3.03125 -24.722656 3.785156 -26.726562 5.296875 -28.09375 C 6.816406 -29.46875 9.039062 -30.15625 11.96875 -30.15625 C 12.445312 -30.15625 12.804688 -30.144531 13.046875 -30.125 L 13.046875 -24.546875 C 11.785156 -24.617188 10.898438 -24.4375 10.390625 -24 C 9.878906 -23.5625 9.625 -22.78125 9.625 -21.65625 L 9.625 -21.46875 L 13.15625 -21.46875 Z M 13.15625 -16 "/></g></g></g><g fill="#ffffff" fill-opacity="1"><g transform="translate(100.305757, 55.754775)"><g><path d="M 12.15625 0.3125 C 10.050781 0.3125 8.160156 -0.132812 6.484375 -1.03125 C 4.804688 -1.9375 3.484375 -3.222656 2.515625 -4.890625 C 1.554688 -6.554688 1.078125 -8.503906 1.078125 -10.734375 C 1.078125 -12.941406 1.5625 -14.882812 2.53125 -16.5625 C 3.507812 -18.238281 4.84375 -19.523438 6.53125 -20.421875 C 8.226562 -21.316406 10.128906 -21.765625 12.234375 -21.765625 C 14.335938 -21.765625 16.234375 -21.316406 17.921875 -20.421875 C 19.617188 -19.523438 20.953125 -18.238281 21.921875 -16.5625 C 22.898438 -14.882812 23.390625 -12.941406 23.390625 -10.734375 C 23.390625 -8.523438 22.894531 -6.582031 21.90625 -4.90625 C 20.914062 -3.226562 19.566406 -1.9375 17.859375 -1.03125 C 16.160156 -0.132812 14.257812 0.3125 12.15625 0.3125 Z M 12.15625 -5.390625 C 13.414062 -5.390625 14.488281 -5.847656 15.375 -6.765625 C 16.257812 -7.691406 16.703125 -9.015625 16.703125 -10.734375 C 16.703125 -12.453125 16.269531 -13.769531 15.40625 -14.6875 C 14.550781 -15.613281 13.492188 -16.078125 12.234375 -16.078125 C 10.953125 -16.078125 9.882812 -15.617188 9.03125 -14.703125 C 8.1875 -13.796875 7.765625 -12.472656 7.765625 -10.734375 C 7.765625 -9.015625 8.179688 -7.691406 9.015625 -6.765625 C 9.847656 -5.847656 10.894531 -5.390625 12.15625 -5.390625 Z M 12.15625 -5.390625 "/></g></g></g><g fill="#ffffff" fill-opacity="1"><g transform="translate(124.812471, 55.754775)"><g><path d="M 8.96875 -28.46875 L 8.96875 0 L 2.390625 0 L 2.390625 -28.46875 Z M 8.96875 -28.46875 "/></g></g></g><g fill="#ffffff" fill-opacity="1"><g transform="translate(136.161733, 55.754775)"><g><path d="M 5.6875 -23.703125 C 4.539062 -23.703125 3.597656 -24.039062 2.859375 -24.71875 C 2.128906 -25.394531 1.765625 -26.234375 1.765625 -27.234375 C 1.765625 -28.265625 2.128906 -29.117188 2.859375 -29.796875 C 3.597656 -30.472656 4.539062 -30.8125 5.6875 -30.8125 C 6.820312 -30.8125 7.753906 -30.472656 8.484375 -29.796875 C 9.210938 -29.117188 9.578125 -28.265625 9.578125 -27.234375 C 9.578125 -26.234375 9.210938 -25.394531 8.484375 -24.71875 C 7.753906 -24.039062 6.820312 -23.703125 5.6875 -23.703125 Z M 8.96875 -21.46875 L 8.96875 0 L 2.390625 0 L 2.390625 -21.46875 Z M 8.96875 -21.46875 "/></g></g></g><g fill="#ffffff" fill-opacity="1"><g transform="translate(147.510995, 55.754775)"><g><path d="M 12.15625 0.3125 C 10.050781 0.3125 8.160156 -0.132812 6.484375 -1.03125 C 4.804688 -1.9375 3.484375 -3.222656 2.515625 -4.890625 C 1.554688 -6.554688 1.078125 -8.503906 1.078125 -10.734375 C 1.078125 -12.941406 1.5625 -14.882812 2.53125 -16.5625 C 3.507812 -18.238281 4.84375 -19.523438 6.53125 -20.421875 C 8.226562 -21.316406 10.128906 -21.765625 12.234375 -21.765625 C 14.335938 -21.765625 16.234375 -21.316406 17.921875 -20.421875 C 19.617188 -19.523438 20.953125 -18.238281 21.921875 -16.5625 C 22.898438 -14.882812 23.390625 -12.941406 23.390625 -10.734375 C 23.390625 -8.523438 22.894531 -6.582031 21.90625 -4.90625 C 20.914062 -3.226562 19.566406 -1.9375 17.859375 -1.03125 C 16.160156 -0.132812 14.257812 0.3125 12.15625 0.3125 Z M 12.15625 -5.390625 C 13.414062 -5.390625 14.488281 -5.847656 15.375 -6.765625 C 16.257812 -7.691406 16.703125 -9.015625 16.703125 -10.734375 C 16.703125 -12.453125 16.269531 -13.769531 15.40625 -14.6875 C 14.550781 -15.613281 13.492188 -16.078125 12.234375 -16.078125 C 10.953125 -16.078125 9.882812 -15.617188 9.03125 -14.703125 C 8.1875 -13.796875 7.765625 -12.472656 7.765625 -10.734375 C 7.765625 -9.015625 8.179688 -7.691406 9.015625 -6.765625 C 9.847656 -5.847656 10.894531 -5.390625 12.15625 -5.390625 Z M 12.15625 -5.390625 "/></g></g></g><g fill="#a7c500" fill-opacity="1"><g transform="translate(231.530031, 51.955186)"><g><path d="M 4.59375 -16.59375 L 6.015625 -15.71875 C 5.691406 -15.238281 5.398438 -14.753906 5.140625 -14.265625 C 4.890625 -13.773438 4.707031 -13.242188 4.59375 -12.671875 L 4.328125 -11.078125 L 1.953125 -11.078125 L 2.171875 -12.46875 C 2.421875 -14.101562 3.226562 -15.476562 4.59375 -16.59375 Z M 8.109375 -16.59375 L 9.53125 -15.71875 C 9.207031 -15.238281 8.914062 -14.753906 8.65625 -14.265625 C 8.40625 -13.773438 8.222656 -13.242188 8.109375 -12.671875 L 7.84375 -11.078125 L 5.46875 -11.078125 L 5.6875 -12.46875 C 5.9375 -14.101562 6.742188 -15.476562 8.109375 -16.59375 Z M 8.109375 -16.59375 "/></g></g><g transform="translate(240.154383, 51.955186)"><g><path d="M 13.6875 -12.8125 L 9.125 -12.8125 L 6.90625 0 L 3.8125 0 L 6.03125 -12.8125 L 1.515625 -12.8125 L 1.96875 -15.390625 L 14.15625 -15.390625 Z M 13.6875 -12.8125 "/></g></g><g transform="translate(253.249446, 51.955186)"><g><path d="M 4.578125 -10.171875 C 5.472656 -11.171875 6.503906 -11.660156 7.671875 -11.640625 C 8.804688 -11.617188 9.640625 -11.210938 10.171875 -10.421875 C 10.703125 -9.640625 10.898438 -8.566406 10.765625 -7.203125 L 9.5625 0 L 6.578125 0 L 7.796875 -7.234375 C 7.828125 -7.515625 7.832031 -7.769531 7.8125 -8 C 7.75 -8.757812 7.304688 -9.148438 6.484375 -9.171875 C 5.679688 -9.203125 4.976562 -8.859375 4.375 -8.140625 L 2.9375 0 L -0.046875 0 L 2.765625 -16.234375 L 5.765625 -16.234375 Z M 4.578125 -10.171875 "/></g></g><g transform="translate(265.10793, 51.955186)"><g><path d="M 3.1875 0 L 0.171875 0 L 2.171875 -11.4375 L 5.171875 -11.4375 Z M 2.515625 -14.34375 C 2.503906 -14.8125 2.660156 -15.203125 2.984375 -15.515625 C 3.304688 -15.828125 3.695312 -15.984375 4.15625 -15.984375 C 4.601562 -15.992188 4.992188 -15.851562 5.328125 -15.5625 C 5.660156 -15.269531 5.832031 -14.894531 5.84375 -14.4375 C 5.851562 -14.007812 5.703125 -13.628906 5.390625 -13.296875 C 5.085938 -12.972656 4.691406 -12.804688 4.203125 -12.796875 C 3.765625 -12.785156 3.375 -12.921875 3.03125 -13.203125 C 2.695312 -13.484375 2.523438 -13.863281 2.515625 -14.34375 Z M 2.515625 -14.34375 "/></g></g><g transform="translate(270.783514, 51.955186)"><g><path d="M 6.65625 -3.21875 C 6.769531 -3.78125 6.378906 -4.191406 5.484375 -4.453125 L 4.515625 -4.6875 C 2.242188 -5.3125 1.140625 -6.421875 1.203125 -8.015625 C 1.234375 -9.085938 1.707031 -9.960938 2.625 -10.640625 C 3.550781 -11.328125 4.660156 -11.660156 5.953125 -11.640625 C 7.242188 -11.628906 8.285156 -11.285156 9.078125 -10.609375 C 9.878906 -9.941406 10.285156 -9.054688 10.296875 -7.953125 L 7.34375 -7.953125 C 7.351562 -8.929688 6.867188 -9.429688 5.890625 -9.453125 C 5.421875 -9.453125 5.015625 -9.332031 4.671875 -9.09375 C 4.328125 -8.863281 4.117188 -8.550781 4.046875 -8.15625 C 3.941406 -7.59375 4.367188 -7.195312 5.328125 -6.96875 L 5.75 -6.875 C 6.71875 -6.632812 7.457031 -6.363281 7.96875 -6.0625 C 8.488281 -5.769531 8.882812 -5.398438 9.15625 -4.953125 C 9.4375 -4.515625 9.566406 -3.984375 9.546875 -3.359375 C 9.523438 -2.628906 9.289062 -1.992188 8.84375 -1.453125 C 8.394531 -0.910156 7.78125 -0.488281 7 -0.1875 C 6.226562 0.101562 5.410156 0.238281 4.546875 0.21875 C 3.285156 0.195312 2.226562 -0.164062 1.375 -0.875 C 0.53125 -1.59375 0.101562 -2.519531 0.09375 -3.65625 L 2.90625 -3.640625 C 2.9375 -2.546875 3.519531 -1.988281 4.65625 -1.96875 C 5.207031 -1.96875 5.660156 -2.082031 6.015625 -2.3125 C 6.367188 -2.539062 6.582031 -2.84375 6.65625 -3.21875 Z M 6.65625 -3.21875 "/></g></g><g transform="translate(281.680213, 51.955186)"><g/></g><g transform="translate(287.017588, 51.955186)"><g><path d="M 3.1875 0 L 0.171875 0 L 2.171875 -11.4375 L 5.171875 -11.4375 Z M 2.515625 -14.34375 C 2.503906 -14.8125 2.660156 -15.203125 2.984375 -15.515625 C 3.304688 -15.828125 3.695312 -15.984375 4.15625 -15.984375 C 4.601562 -15.992188 4.992188 -15.851562 5.328125 -15.5625 C 5.660156 -15.269531 5.832031 -14.894531 5.84375 -14.4375 C 5.851562 -14.007812 5.703125 -13.628906 5.390625 -13.296875 C 5.085938 -12.972656 4.691406 -12.804688 4.203125 -12.796875 C 3.765625 -12.785156 3.375 -12.921875 3.03125 -13.203125 C 2.695312 -13.484375 2.523438 -13.863281 2.515625 -14.34375 Z M 2.515625 -14.34375 "/></g></g><g transform="translate(292.693172, 51.955186)"><g><path d="M 6.65625 -3.21875 C 6.769531 -3.78125 6.378906 -4.191406 5.484375 -4.453125 L 4.515625 -4.6875 C 2.242188 -5.3125 1.140625 -6.421875 1.203125 -8.015625 C 1.234375 -9.085938 1.707031 -9.960938 2.625 -10.640625 C 3.550781 -11.328125 4.660156 -11.660156 5.953125 -11.640625 C 7.242188 -11.628906 8.285156 -11.285156 9.078125 -10.609375 C 9.878906 -9.941406 10.285156 -9.054688 10.296875 -7.953125 L 7.34375 -7.953125 C 7.351562 -8.929688 6.867188 -9.429688 5.890625 -9.453125 C 5.421875 -9.453125 5.015625 -9.332031 4.671875 -9.09375 C 4.328125 -8.863281 4.117188 -8.550781 4.046875 -8.15625 C 3.941406 -7.59375 4.367188 -7.195312 5.328125 -6.96875 L 5.75 -6.875 C 6.71875 -6.632812 7.457031 -6.363281 7.96875 -6.0625 C 8.488281 -5.769531 8.882812 -5.398438 9.15625 -4.953125 C 9.4375 -4.515625 9.566406 -3.984375 9.546875 -3.359375 C 9.523438 -2.628906 9.289062 -1.992188 8.84375 -1.453125 C 8.394531 -0.910156 7.78125 -0.488281 7 -0.1875 C 6.226562 0.101562 5.410156 0.238281 4.546875 0.21875 C 3.285156 0.195312 2.226562 -0.164062 1.375 -0.875 C 0.53125 -1.59375 0.101562 -2.519531 0.09375 -3.65625 L 2.90625 -3.640625 C 2.9375 -2.546875 3.519531 -1.988281 4.65625 -1.96875 C 5.207031 -1.96875 5.660156 -2.082031 6.015625 -2.3125 C 6.367188 -2.539062 6.582031 -2.84375 6.65625 -3.21875 Z M 6.65625 -3.21875 "/></g></g><g transform="translate(303.589872, 51.955186)"><g/></g><g transform="translate(308.927246, 51.955186)"><g><path d="M 10.359375 -4.15625 L 13.078125 -11.4375 L 16.046875 -11.4375 L 11.234375 0 L 8.734375 0 L 7.890625 -7.15625 L 4.546875 0 L 2.0625 0 L 1.21875 -11.4375 L 4 -11.4375 L 4.1875 -4.234375 L 7.453125 -11.4375 L 9.609375 -11.4375 Z M 10.359375 -4.15625 "/></g></g><g transform="translate(324.463762, 51.955186)"><g><path d="M 4.578125 -10.171875 C 5.472656 -11.171875 6.503906 -11.660156 7.671875 -11.640625 C 8.804688 -11.617188 9.640625 -11.210938 10.171875 -10.421875 C 10.703125 -9.640625 10.898438 -8.566406 10.765625 -7.203125 L 9.5625 0 L 6.578125 0 L 7.796875 -7.234375 C 7.828125 -7.515625 7.832031 -7.769531 7.8125 -8 C 7.75 -8.757812 7.304688 -9.148438 6.484375 -9.171875 C 5.679688 -9.203125 4.976562 -8.859375 4.375 -8.140625 L 2.9375 0 L -0.046875 0 L 2.765625 -16.234375 L 5.765625 -16.234375 Z M 4.578125 -10.171875 "/></g></g><g transform="translate(336.322246, 51.955186)"><g><path d="M 6.640625 0 C 6.554688 -0.289062 6.519531 -0.632812 6.53125 -1.03125 C 5.664062 -0.175781 4.691406 0.238281 3.609375 0.21875 C 2.609375 0.195312 1.78125 -0.128906 1.125 -0.765625 C 0.46875 -1.398438 0.160156 -2.1875 0.203125 -3.125 C 0.253906 -4.375 0.773438 -5.332031 1.765625 -6 C 2.765625 -6.664062 4.101562 -7 5.78125 -7 L 7.171875 -6.96875 L 7.328125 -7.65625 C 7.367188 -7.894531 7.378906 -8.117188 7.359375 -8.328125 C 7.316406 -8.660156 7.1875 -8.921875 6.96875 -9.109375 C 6.757812 -9.296875 6.476562 -9.390625 6.125 -9.390625 C 5.664062 -9.410156 5.269531 -9.296875 4.9375 -9.046875 C 4.613281 -8.804688 4.410156 -8.457031 4.328125 -8 L 1.328125 -7.984375 C 1.378906 -9.078125 1.878906 -9.960938 2.828125 -10.640625 C 3.785156 -11.328125 4.96875 -11.660156 6.375 -11.640625 C 7.664062 -11.617188 8.675781 -11.234375 9.40625 -10.484375 C 10.144531 -9.742188 10.453125 -8.789062 10.328125 -7.625 L 9.453125 -2.140625 L 9.40625 -1.46875 C 9.394531 -0.96875 9.453125 -0.546875 9.578125 -0.203125 L 9.578125 0 Z M 4.359375 -2.109375 C 5.210938 -2.078125 5.960938 -2.445312 6.609375 -3.21875 L 6.96875 -5.203125 L 5.9375 -5.203125 C 4.84375 -5.179688 4.050781 -4.847656 3.5625 -4.203125 C 3.382812 -3.972656 3.273438 -3.6875 3.234375 -3.34375 C 3.179688 -2.96875 3.257812 -2.664062 3.46875 -2.4375 C 3.6875 -2.21875 3.984375 -2.109375 4.359375 -2.109375 Z M 4.359375 -2.109375 "/></g></g><g transform="translate(347.683983, 51.955186)"><g><path d="M 6.078125 -14.25 L 5.578125 -11.4375 L 7.484375 -11.4375 L 7.09375 -9.1875 L 5.1875 -9.1875 L 4.21875 -3.46875 C 4.175781 -3.101562 4.203125 -2.828125 4.296875 -2.640625 C 4.398438 -2.453125 4.640625 -2.347656 5.015625 -2.328125 C 5.128906 -2.328125 5.429688 -2.347656 5.921875 -2.390625 L 5.71875 -0.046875 C 5.1875 0.128906 4.613281 0.207031 4 0.1875 C 3.019531 0.175781 2.289062 -0.125 1.8125 -0.71875 C 1.332031 -1.320312 1.132812 -2.132812 1.21875 -3.15625 L 2.203125 -9.1875 L 0.59375 -9.1875 L 0.984375 -11.4375 L 2.59375 -11.4375 L 3.078125 -14.25 Z M 6.078125 -14.25 "/></g></g><g transform="translate(354.881512, 51.955186)"><g/></g><g transform="translate(360.218887, 51.955186)"><g><path d="M 4.875 -4.359375 L 8.140625 -11.4375 L 11.46875 -11.4375 L 4.78125 1.71875 C 4.300781 2.726562 3.738281 3.46875 3.09375 3.9375 C 2.445312 4.414062 1.703125 4.65625 0.859375 4.65625 C 0.523438 4.65625 0.046875 4.578125 -0.578125 4.421875 L -0.359375 2.109375 L 0.046875 2.125 C 1.023438 2.15625 1.738281 1.800781 2.1875 1.0625 L 2.84375 -0.15625 L 0.96875 -11.4375 L 4.0625 -11.4375 Z M 4.875 -4.359375 "/></g></g><g transform="translate(370.861929, 51.955186)"><g><path d="M 6.578125 -11.640625 C 7.578125 -11.628906 8.441406 -11.367188 9.171875 -10.859375 C 9.898438 -10.359375 10.4375 -9.664062 10.78125 -8.78125 C 11.125 -7.894531 11.242188 -6.914062 11.140625 -5.84375 C 10.984375 -4.019531 10.351562 -2.546875 9.25 -1.421875 C 8.144531 -0.304688 6.785156 0.238281 5.171875 0.21875 C 4.171875 0.195312 3.304688 -0.0546875 2.578125 -0.546875 C 1.859375 -1.046875 1.328125 -1.734375 0.984375 -2.609375 C 0.640625 -3.492188 0.515625 -4.46875 0.609375 -5.53125 C 0.796875 -7.425781 1.4375 -8.925781 2.53125 -10.03125 C 3.632812 -11.144531 4.984375 -11.679688 6.578125 -11.640625 Z M 3.5625 -4.453125 C 3.570312 -3.773438 3.726562 -3.238281 4.03125 -2.84375 C 4.332031 -2.457031 4.757812 -2.253906 5.3125 -2.234375 C 6.226562 -2.210938 6.945312 -2.632812 7.46875 -3.5 C 7.988281 -4.375 8.234375 -5.519531 8.203125 -6.9375 C 8.171875 -7.613281 8.003906 -8.148438 7.703125 -8.546875 C 7.410156 -8.953125 6.984375 -9.164062 6.421875 -9.1875 C 5.535156 -9.207031 4.828125 -8.785156 4.296875 -7.921875 C 3.765625 -7.066406 3.519531 -5.910156 3.5625 -4.453125 Z M 3.5625 -4.453125 "/></g></g><g transform="translate(382.836672, 51.955186)"><g><path d="M 7.109375 -1.1875 C 6.265625 -0.226562 5.21875 0.238281 3.96875 0.21875 C 2.863281 0.195312 2.03125 -0.195312 1.46875 -0.96875 C 0.90625 -1.75 0.6875 -2.769531 0.8125 -4.03125 L 2.046875 -11.4375 L 5.03125 -11.4375 L 3.765625 -4 C 3.742188 -3.769531 3.742188 -3.550781 3.765625 -3.34375 C 3.835938 -2.644531 4.226562 -2.285156 4.9375 -2.265625 C 5.851562 -2.234375 6.617188 -2.585938 7.234375 -3.328125 L 8.65625 -11.4375 L 11.65625 -11.4375 L 9.671875 0 L 6.890625 0 Z M 7.109375 -1.1875 "/></g></g><g transform="translate(394.695156, 51.955186)"><g><path d="M 7.859375 -8.5625 C 7.453125 -8.632812 7.117188 -8.671875 6.859375 -8.671875 C 5.796875 -8.703125 4.953125 -8.304688 4.328125 -7.484375 L 3.015625 0 L 0.03125 0 L 2.015625 -11.4375 L 4.8125 -11.4375 L 4.546875 -10.046875 C 5.265625 -11.128906 6.148438 -11.671875 7.203125 -11.671875 C 7.503906 -11.671875 7.847656 -11.617188 8.234375 -11.515625 Z M 7.859375 -8.5625 "/></g></g></g><g fill="#a7c500" fill-opacity="1"><g transform="translate(231.530031, 81.810954)"><g><path d="M 6.65625 -3.21875 C 6.769531 -3.78125 6.378906 -4.191406 5.484375 -4.453125 L 4.515625 -4.6875 C 2.242188 -5.3125 1.140625 -6.421875 1.203125 -8.015625 C 1.234375 -9.085938 1.707031 -9.960938 2.625 -10.640625 C 3.550781 -11.328125 4.660156 -11.660156 5.953125 -11.640625 C 7.242188 -11.628906 8.285156 -11.285156 9.078125 -10.609375 C 9.878906 -9.941406 10.285156 -9.054688 10.296875 -7.953125 L 7.34375 -7.953125 C 7.351562 -8.929688 6.867188 -9.429688 5.890625 -9.453125 C 5.421875 -9.453125 5.015625 -9.332031 4.671875 -9.09375 C 4.328125 -8.863281 4.117188 -8.550781 4.046875 -8.15625 C 3.941406 -7.59375 4.367188 -7.195312 5.328125 -6.96875 L 5.75 -6.875 C 6.71875 -6.632812 7.457031 -6.363281 7.96875 -6.0625 C 8.488281 -5.769531 8.882812 -5.398438 9.15625 -4.953125 C 9.4375 -4.515625 9.566406 -3.984375 9.546875 -3.359375 C 9.523438 -2.628906 9.289062 -1.992188 8.84375 -1.453125 C 8.394531 -0.910156 7.78125 -0.488281 7 -0.1875 C 6.226562 0.101562 5.410156 0.238281 4.546875 0.21875 C 3.285156 0.195312 2.226562 -0.164062 1.375 -0.875 C 0.53125 -1.59375 0.101562 -2.519531 0.09375 -3.65625 L 2.90625 -3.640625 C 2.9375 -2.546875 3.519531 -1.988281 4.65625 -1.96875 C 5.207031 -1.96875 5.660156 -2.082031 6.015625 -2.3125 C 6.367188 -2.539062 6.582031 -2.84375 6.65625 -3.21875 Z M 6.65625 -3.21875 "/></g></g><g transform="translate(242.42673, 81.810954)"><g><path d="M 6.578125 -11.640625 C 7.578125 -11.628906 8.441406 -11.367188 9.171875 -10.859375 C 9.898438 -10.359375 10.4375 -9.664062 10.78125 -8.78125 C 11.125 -7.894531 11.242188 -6.914062 11.140625 -5.84375 C 10.984375 -4.019531 10.351562 -2.546875 9.25 -1.421875 C 8.144531 -0.304688 6.785156 0.238281 5.171875 0.21875 C 4.171875 0.195312 3.304688 -0.0546875 2.578125 -0.546875 C 1.859375 -1.046875 1.328125 -1.734375 0.984375 -2.609375 C 0.640625 -3.492188 0.515625 -4.46875 0.609375 -5.53125 C 0.796875 -7.425781 1.4375 -8.925781 2.53125 -10.03125 C 3.632812 -11.144531 4.984375 -11.679688 6.578125 -11.640625 Z M 3.5625 -4.453125 C 3.570312 -3.773438 3.726562 -3.238281 4.03125 -2.84375 C 4.332031 -2.457031 4.757812 -2.253906 5.3125 -2.234375 C 6.226562 -2.210938 6.945312 -2.632812 7.46875 -3.5 C 7.988281 -4.375 8.234375 -5.519531 8.203125 -6.9375 C 8.171875 -7.613281 8.003906 -8.148438 7.703125 -8.546875 C 7.410156 -8.953125 6.984375 -9.164062 6.421875 -9.1875 C 5.535156 -9.207031 4.828125 -8.785156 4.296875 -7.921875 C 3.765625 -7.066406 3.519531 -5.910156 3.5625 -4.453125 Z M 3.5625 -4.453125 "/></g></g><g transform="translate(254.401474, 81.810954)"><g><path d="M 3.1875 0 L 0.171875 0 L 3 -16.234375 L 5.984375 -16.234375 Z M 3.1875 0 "/></g></g><g transform="translate(260.077058, 81.810954)"><g><path d="M 7.109375 -1.1875 C 6.265625 -0.226562 5.21875 0.238281 3.96875 0.21875 C 2.863281 0.195312 2.03125 -0.195312 1.46875 -0.96875 C 0.90625 -1.75 0.6875 -2.769531 0.8125 -4.03125 L 2.046875 -11.4375 L 5.03125 -11.4375 L 3.765625 -4 C 3.742188 -3.769531 3.742188 -3.550781 3.765625 -3.34375 C 3.835938 -2.644531 4.226562 -2.285156 4.9375 -2.265625 C 5.851562 -2.234375 6.617188 -2.585938 7.234375 -3.328125 L 8.65625 -11.4375 L 11.65625 -11.4375 L 9.671875 0 L 6.890625 0 Z M 7.109375 -1.1875 "/></g></g><g transform="translate(271.935541, 81.810954)"><g><path d="M 6.078125 -14.25 L 5.578125 -11.4375 L 7.484375 -11.4375 L 7.09375 -9.1875 L 5.1875 -9.1875 L 4.21875 -3.46875 C 4.175781 -3.101562 4.203125 -2.828125 4.296875 -2.640625 C 4.398438 -2.453125 4.640625 -2.347656 5.015625 -2.328125 C 5.128906 -2.328125 5.429688 -2.347656 5.921875 -2.390625 L 5.71875 -0.046875 C 5.1875 0.128906 4.613281 0.207031 4 0.1875 C 3.019531 0.175781 2.289062 -0.125 1.8125 -0.71875 C 1.332031 -1.320312 1.132812 -2.132812 1.21875 -3.15625 L 2.203125 -9.1875 L 0.59375 -9.1875 L 0.984375 -11.4375 L 2.59375 -11.4375 L 3.078125 -14.25 Z M 6.078125 -14.25 "/></g></g><g transform="translate(279.13307, 81.810954)"><g><path d="M 3.1875 0 L 0.171875 0 L 2.171875 -11.4375 L 5.171875 -11.4375 Z M 2.515625 -14.34375 C 2.503906 -14.8125 2.660156 -15.203125 2.984375 -15.515625 C 3.304688 -15.828125 3.695312 -15.984375 4.15625 -15.984375 C 4.601562 -15.992188 4.992188 -15.851562 5.328125 -15.5625 C 5.660156 -15.269531 5.832031 -14.894531 5.84375 -14.4375 C 5.851562 -14.007812 5.703125 -13.628906 5.390625 -13.296875 C 5.085938 -12.972656 4.691406 -12.804688 4.203125 -12.796875 C 3.765625 -12.785156 3.375 -12.921875 3.03125 -13.203125 C 2.695312 -13.484375 2.523438 -13.863281 2.515625 -14.34375 Z M 2.515625 -14.34375 "/></g></g><g transform="translate(284.808655, 81.810954)"><g><path d="M 6.578125 -11.640625 C 7.578125 -11.628906 8.441406 -11.367188 9.171875 -10.859375 C 9.898438 -10.359375 10.4375 -9.664062 10.78125 -8.78125 C 11.125 -7.894531 11.242188 -6.914062 11.140625 -5.84375 C 10.984375 -4.019531 10.351562 -2.546875 9.25 -1.421875 C 8.144531 -0.304688 6.785156 0.238281 5.171875 0.21875 C 4.171875 0.195312 3.304688 -0.0546875 2.578125 -0.546875 C 1.859375 -1.046875 1.328125 -1.734375 0.984375 -2.609375 C 0.640625 -3.492188 0.515625 -4.46875 0.609375 -5.53125 C 0.796875 -7.425781 1.4375 -8.925781 2.53125 -10.03125 C 3.632812 -11.144531 4.984375 -11.679688 6.578125 -11.640625 Z M 3.5625 -4.453125 C 3.570312 -3.773438 3.726562 -3.238281 4.03125 -2.84375 C 4.332031 -2.457031 4.757812 -2.253906 5.3125 -2.234375 C 6.226562 -2.210938 6.945312 -2.632812 7.46875 -3.5 C 7.988281 -4.375 8.234375 -5.519531 8.203125 -6.9375 C 8.171875 -7.613281 8.003906 -8.148438 7.703125 -8.546875 C 7.410156 -8.953125 6.984375 -9.164062 6.421875 -9.1875 C 5.535156 -9.207031 4.828125 -8.785156 4.296875 -7.921875 C 3.765625 -7.066406 3.519531 -5.910156 3.5625 -4.453125 Z M 3.5625 -4.453125 "/></g></g><g transform="translate(296.783398, 81.810954)"><g><path d="M 4.75 -11.4375 L 4.484375 -10.09375 C 5.398438 -11.15625 6.507812 -11.671875 7.8125 -11.640625 C 8.894531 -11.617188 9.691406 -11.222656 10.203125 -10.453125 C 10.722656 -9.691406 10.910156 -8.628906 10.765625 -7.265625 L 9.5625 0 L 6.578125 0 L 7.8125 -7.296875 C 7.84375 -7.578125 7.847656 -7.828125 7.828125 -8.046875 C 7.734375 -8.765625 7.285156 -9.132812 6.484375 -9.15625 C 5.691406 -9.1875 4.988281 -8.828125 4.375 -8.078125 L 2.953125 0 L -0.03125 0 L 1.953125 -11.4375 Z M 4.75 -11.4375 "/></g></g><g transform="translate(308.652451, 81.810954)"><g/></g><g transform="translate(313.989825, 81.810954)"><g><path d="M 5.046875 -2.234375 C 5.585938 -2.222656 6.039062 -2.375 6.40625 -2.6875 C 6.78125 -3 7.019531 -3.414062 7.125 -3.9375 L 9.9375 -3.953125 C 9.882812 -3.148438 9.628906 -2.425781 9.171875 -1.78125 C 8.722656 -1.144531 8.117188 -0.644531 7.359375 -0.28125 C 6.597656 0.0703125 5.800781 0.238281 4.96875 0.21875 C 3.582031 0.195312 2.484375 -0.28125 1.671875 -1.21875 C 0.859375 -2.15625 0.46875 -3.398438 0.5 -4.953125 L 0.53125 -5.53125 L 0.53125 -5.65625 C 0.726562 -7.507812 1.359375 -8.976562 2.421875 -10.0625 C 3.484375 -11.15625 4.796875 -11.679688 6.359375 -11.640625 C 7.648438 -11.617188 8.671875 -11.195312 9.421875 -10.375 C 10.179688 -9.5625 10.554688 -8.492188 10.546875 -7.171875 L 7.765625 -7.171875 C 7.765625 -7.773438 7.628906 -8.253906 7.359375 -8.609375 C 7.097656 -8.960938 6.695312 -9.15625 6.15625 -9.1875 C 4.738281 -9.226562 3.878906 -8.1875 3.578125 -6.0625 C 3.460938 -5.289062 3.421875 -4.644531 3.453125 -4.125 C 3.523438 -2.882812 4.054688 -2.253906 5.046875 -2.234375 Z M 5.046875 -2.234375 "/></g></g><g transform="translate(325.04506, 81.810954)"><g><path d="M 6.578125 -11.640625 C 7.578125 -11.628906 8.441406 -11.367188 9.171875 -10.859375 C 9.898438 -10.359375 10.4375 -9.664062 10.78125 -8.78125 C 11.125 -7.894531 11.242188 -6.914062 11.140625 -5.84375 C 10.984375 -4.019531 10.351562 -2.546875 9.25 -1.421875 C 8.144531 -0.304688 6.785156 0.238281 5.171875 0.21875 C 4.171875 0.195312 3.304688 -0.0546875 2.578125 -0.546875 C 1.859375 -1.046875 1.328125 -1.734375 0.984375 -2.609375 C 0.640625 -3.492188 0.515625 -4.46875 0.609375 -5.53125 C 0.796875 -7.425781 1.4375 -8.925781 2.53125 -10.03125 C 3.632812 -11.144531 4.984375 -11.679688 6.578125 -11.640625 Z M 3.5625 -4.453125 C 3.570312 -3.773438 3.726562 -3.238281 4.03125 -2.84375 C 4.332031 -2.457031 4.757812 -2.253906 5.3125 -2.234375 C 6.226562 -2.210938 6.945312 -2.632812 7.46875 -3.5 C 7.988281 -4.375 8.234375 -5.519531 8.203125 -6.9375 C 8.171875 -7.613281 8.003906 -8.148438 7.703125 -8.546875 C 7.410156 -8.953125 6.984375 -9.164062 6.421875 -9.1875 C 5.535156 -9.207031 4.828125 -8.785156 4.296875 -7.921875 C 3.765625 -7.066406 3.519531 -5.910156 3.5625 -4.453125 Z M 3.5625 -4.453125 "/></g></g><g transform="translate(337.019804, 81.810954)"><g><path d="M 7.109375 -1.1875 C 6.265625 -0.226562 5.21875 0.238281 3.96875 0.21875 C 2.863281 0.195312 2.03125 -0.195312 1.46875 -0.96875 C 0.90625 -1.75 0.6875 -2.769531 0.8125 -4.03125 L 2.046875 -11.4375 L 5.03125 -11.4375 L 3.765625 -4 C 3.742188 -3.769531 3.742188 -3.550781 3.765625 -3.34375 C 3.835938 -2.644531 4.226562 -2.285156 4.9375 -2.265625 C 5.851562 -2.234375 6.617188 -2.585938 7.234375 -3.328125 L 8.65625 -11.4375 L 11.65625 -11.4375 L 9.671875 0 L 6.890625 0 Z M 7.109375 -1.1875 "/></g></g><g transform="translate(348.878287, 81.810954)"><g><path d="M 3.1875 0 L 0.171875 0 L 3 -16.234375 L 5.984375 -16.234375 Z M 3.1875 0 "/></g></g><g transform="translate(354.553872, 81.810954)"><g><path d="M 5.703125 -11.65625 C 6.765625 -11.625 7.625 -11.195312 8.28125 -10.375 L 9.40625 -16.234375 L 12.390625 -16.234375 L 9.578125 0 L 6.921875 0 L 7.09375 -1.21875 C 6.238281 -0.226562 5.242188 0.25 4.109375 0.21875 C 3.398438 0.21875 2.773438 0.0351562 2.234375 -0.328125 C 1.703125 -0.703125 1.289062 -1.234375 1 -1.921875 C 0.707031 -2.609375 0.546875 -3.375 0.515625 -4.21875 C 0.492188 -4.65625 0.503906 -5.082031 0.546875 -5.5 L 0.609375 -5.984375 C 0.773438 -7.148438 1.097656 -8.175781 1.578125 -9.0625 C 2.066406 -9.945312 2.660156 -10.601562 3.359375 -11.03125 C 4.066406 -11.46875 4.847656 -11.675781 5.703125 -11.65625 Z M 3.546875 -5.5 C 3.484375 -4.96875 3.460938 -4.519531 3.484375 -4.15625 C 3.554688 -2.914062 4.054688 -2.285156 4.984375 -2.265625 C 5.828125 -2.222656 6.554688 -2.613281 7.171875 -3.4375 L 7.984375 -7.984375 C 7.710938 -8.742188 7.164062 -9.140625 6.34375 -9.171875 C 5.613281 -9.191406 5.003906 -8.910156 4.515625 -8.328125 C 4.035156 -7.742188 3.710938 -6.800781 3.546875 -5.5 Z M 3.546875 -5.5 "/></g></g><g transform="translate(366.486339, 81.810954)"><g/></g><g transform="translate(371.823713, 81.810954)"><g><path d="M 3.1875 0 L 0.171875 0 L 3 -16.234375 L 5.984375 -16.234375 Z M 3.1875 0 "/></g></g><g transform="translate(377.499298, 81.810954)"><g><path d="M 6.578125 -11.640625 C 7.578125 -11.628906 8.441406 -11.367188 9.171875 -10.859375 C 9.898438 -10.359375 10.4375 -9.664062 10.78125 -8.78125 C 11.125 -7.894531 11.242188 -6.914062 11.140625 -5.84375 C 10.984375 -4.019531 10.351562 -2.546875 9.25 -1.421875 C 8.144531 -0.304688 6.785156 0.238281 5.171875 0.21875 C 4.171875 0.195312 3.304688 -0.0546875 2.578125 -0.546875 C 1.859375 -1.046875 1.328125 -1.734375 0.984375 -2.609375 C 0.640625 -3.492188 0.515625 -4.46875 0.609375 -5.53125 C 0.796875 -7.425781 1.4375 -8.925781 2.53125 -10.03125 C 3.632812 -11.144531 4.984375 -11.679688 6.578125 -11.640625 Z M 3.5625 -4.453125 C 3.570312 -3.773438 3.726562 -3.238281 4.03125 -2.84375 C 4.332031 -2.457031 4.757812 -2.253906 5.3125 -2.234375 C 6.226562 -2.210938 6.945312 -2.632812 7.46875 -3.5 C 7.988281 -4.375 8.234375 -5.519531 8.203125 -6.9375 C 8.171875 -7.613281 8.003906 -8.148438 7.703125 -8.546875 C 7.410156 -8.953125 6.984375 -9.164062 6.421875 -9.1875 C 5.535156 -9.207031 4.828125 -8.785156 4.296875 -7.921875 C 3.765625 -7.066406 3.519531 -5.910156 3.5625 -4.453125 Z M 3.5625 -4.453125 "/></g></g><g transform="translate(389.474041, 81.810954)"><g><path d="M 6.578125 -11.640625 C 7.578125 -11.628906 8.441406 -11.367188 9.171875 -10.859375 C 9.898438 -10.359375 10.4375 -9.664062 10.78125 -8.78125 C 11.125 -7.894531 11.242188 -6.914062 11.140625 -5.84375 C 10.984375 -4.019531 10.351562 -2.546875 9.25 -1.421875 C 8.144531 -0.304688 6.785156 0.238281 5.171875 0.21875 C 4.171875 0.195312 3.304688 -0.0546875 2.578125 -0.546875 C 1.859375 -1.046875 1.328125 -1.734375 0.984375 -2.609375 C 0.640625 -3.492188 0.515625 -4.46875 0.609375 -5.53125 C 0.796875 -7.425781 1.4375 -8.925781 2.53125 -10.03125 C 3.632812 -11.144531 4.984375 -11.679688 6.578125 -11.640625 Z M 3.5625 -4.453125 C 3.570312 -3.773438 3.726562 -3.238281 4.03125 -2.84375 C 4.332031 -2.457031 4.757812 -2.253906 5.3125 -2.234375 C 6.226562 -2.210938 6.945312 -2.632812 7.46875 -3.5 C 7.988281 -4.375 8.234375 -5.519531 8.203125 -6.9375 C 8.171875 -7.613281 8.003906 -8.148438 7.703125 -8.546875 C 7.410156 -8.953125 6.984375 -9.164062 6.421875 -9.1875 C 5.535156 -9.207031 4.828125 -8.785156 4.296875 -7.921875 C 3.765625 -7.066406 3.519531 -5.910156 3.5625 -4.453125 Z M 3.5625 -4.453125 "/></g></g><g transform="translate(401.448784, 81.810954)"><g><path d="M 4.984375 -4.546875 L 3.59375 -3.34375 L 3.015625 0 L 0.03125 0 L 2.84375 -16.234375 L 5.828125 -16.234375 L 4.296875 -7.421875 L 4.875 -8.046875 L 8.265625 -11.4375 L 12.09375 -11.4375 L 7.09375 -6.515625 L 10.265625 0 L 7 0 Z M 4.984375 -4.546875 "/></g></g><g transform="translate(412.768246, 81.810954)"><g/></g><g transform="translate(418.10562, 81.810954)"><g><path d="M 3.1875 0 L 0.171875 0 L 3 -16.234375 L 5.984375 -16.234375 Z M 3.1875 0 "/></g></g><g transform="translate(423.781205, 81.810954)"><g><path d="M 3.1875 0 L 0.171875 0 L 2.171875 -11.4375 L 5.171875 -11.4375 Z M 2.515625 -14.34375 C 2.503906 -14.8125 2.660156 -15.203125 2.984375 -15.515625 C 3.304688 -15.828125 3.695312 -15.984375 4.15625 -15.984375 C 4.601562 -15.992188 4.992188 -15.851562 5.328125 -15.5625 C 5.660156 -15.269531 5.832031 -14.894531 5.84375 -14.4375 C 5.851562 -14.007812 5.703125 -13.628906 5.390625 -13.296875 C 5.085938 -12.972656 4.691406 -12.804688 4.203125 -12.796875 C 3.765625 -12.785156 3.375 -12.921875 3.03125 -13.203125 C 2.695312 -13.484375 2.523438 -13.863281 2.515625 -14.34375 Z M 2.515625 -14.34375 "/></g></g><g transform="translate(429.456789, 81.810954)"><g><path d="M 4.984375 -4.546875 L 3.59375 -3.34375 L 3.015625 0 L 0.03125 0 L 2.84375 -16.234375 L 5.828125 -16.234375 L 4.296875 -7.421875 L 4.875 -8.046875 L 8.265625 -11.4375 L 12.09375 -11.4375 L 7.09375 -6.515625 L 10.265625 0 L 7 0 Z M 4.984375 -4.546875 "/></g></g><g transform="translate(440.776251, 81.810954)"><g><path d="M 5.46875 0.21875 C 4.46875 0.207031 3.578125 -0.0351562 2.796875 -0.515625 C 2.023438 -1.003906 1.445312 -1.664062 1.0625 -2.5 C 0.6875 -3.34375 0.546875 -4.273438 0.640625 -5.296875 L 0.671875 -5.71875 C 0.773438 -6.832031 1.097656 -7.851562 1.640625 -8.78125 C 2.179688 -9.707031 2.878906 -10.421875 3.734375 -10.921875 C 4.585938 -11.429688 5.53125 -11.671875 6.5625 -11.640625 C 8.03125 -11.617188 9.144531 -11.078125 9.90625 -10.015625 C 10.664062 -8.960938 10.953125 -7.628906 10.765625 -6.015625 L 10.59375 -4.71875 L 3.59375 -4.71875 C 3.5625 -3.976562 3.738281 -3.382812 4.125 -2.9375 C 4.519531 -2.5 5.050781 -2.273438 5.71875 -2.265625 C 6.800781 -2.234375 7.75 -2.648438 8.5625 -3.515625 L 9.9375 -1.828125 C 9.5 -1.179688 8.875 -0.675781 8.0625 -0.3125 C 7.257812 0.0507812 6.394531 0.226562 5.46875 0.21875 Z M 6.40625 -9.1875 C 5.863281 -9.195312 5.378906 -9.019531 4.953125 -8.65625 C 4.523438 -8.300781 4.140625 -7.679688 3.796875 -6.796875 L 7.90625 -6.796875 L 7.96875 -7.0625 C 8.007812 -7.34375 8.015625 -7.613281 7.984375 -7.875 C 7.910156 -8.28125 7.734375 -8.597656 7.453125 -8.828125 C 7.179688 -9.054688 6.832031 -9.175781 6.40625 -9.1875 Z M 6.40625 -9.1875 "/></g></g><g transform="translate(452.23311, 81.810954)"><g><path d="M 3.90625 -4.71875 L 1.421875 -4.71875 L 2.921875 -15.390625 L 6.09375 -15.390625 Z M 0.4375 -1.390625 C 0.414062 -1.847656 0.5625 -2.238281 0.875 -2.5625 C 1.1875 -2.882812 1.582031 -3.050781 2.0625 -3.0625 C 2.507812 -3.070312 2.898438 -2.929688 3.234375 -2.640625 C 3.566406 -2.347656 3.738281 -1.96875 3.75 -1.5 C 3.757812 -1.03125 3.609375 -0.632812 3.296875 -0.3125 C 2.992188 0.0078125 2.597656 0.175781 2.109375 0.1875 C 1.617188 0.1875 1.21875 0.0351562 0.90625 -0.265625 C 0.59375 -0.578125 0.4375 -0.953125 0.4375 -1.390625 Z M 0.4375 -1.390625 "/></g></g><g transform="translate(458.046093, 81.810954)"><g><path d="M 3.15625 -10.640625 L 1.640625 -11.53125 C 2.367188 -12.570312 2.820312 -13.488281 3 -14.28125 L 3.359375 -16.234375 L 5.734375 -16.234375 L 5.484375 -14.671875 C 5.242188 -13.109375 4.46875 -11.765625 3.15625 -10.640625 Z M 6.71875 -10.640625 L 5.203125 -11.53125 C 5.929688 -12.570312 6.382812 -13.488281 6.5625 -14.28125 L 6.921875 -16.234375 L 9.296875 -16.234375 L 9.046875 -14.671875 C 8.804688 -13.109375 8.03125 -11.765625 6.71875 -10.640625 Z M 6.71875 -10.640625 "/></g></g></g><g fill="#a7c500" fill-opacity="1"><g transform="translate(466.737503, 81.810954)"><g/></g></g></svg>