<svg xmlns="http://www.w3.org/2000/svg" xmlns:xlink="http://www.w3.org/1999/xlink" width="117" zoomAndPan="magnify" viewBox="0 0 87.75 75.749997" height="101" preserveAspectRatio="xMidYMid meet" version="1.0"><defs><clipPath id="2b1670c978"><path d="M 0.0195312 0 L 86.734375 0 L 86.734375 75.5 L 0.0195312 75.5 Z M 0.0195312 0 " clip-rule="nonzero"/></clipPath><clipPath id="331d7c84ad"><path d="M 0.0195312 0 L 86.734375 0 L 86.734375 75.5 L 0.0195312 75.5 Z M 0.0195312 0 " clip-rule="nonzero"/></clipPath></defs><g clip-path="url(#2b1670c978)"><path fill="#1d3b79" d="M 85.917969 8.566406 C 85.15625 7.804688 83.980469 7.726562 83.121094 8.382812 C 75.777344 14.019531 68.769531 19.839844 62.742188 25.046875 C 60.460938 18.617188 56.445312 12.882812 50.992188 8.480469 C 44.113281 2.933594 35.5625 0 26.265625 0 C 19.421875 0 13.34375 1.855469 8.6875 5.363281 C 4.753906 8.328125 1.984375 12.425781 1.085938 16.597656 C 0.0273438 21.53125 1.699219 25.640625 5.449219 27.328125 C 11.675781 30.128906 12.570312 34.261719 12.546875 36.472656 C 12.539062 37.265625 12.539062 38.070312 12.546875 38.867188 C 12.570312 41.078125 11.675781 45.207031 5.449219 48.007812 C 1.699219 49.695312 0.0273438 53.808594 1.085938 58.738281 C 1.984375 62.914062 4.753906 67.007812 8.6875 69.972656 C 13.34375 73.480469 19.421875 75.335938 26.265625 75.335938 C 35.5625 75.335938 44.113281 72.402344 50.992188 66.855469 C 59.832031 59.722656 64.902344 49.085938 64.902344 37.667969 C 64.902344 37.425781 64.894531 37.183594 64.890625 36.941406 C 71.101562 29.929688 78.757812 20.9375 86.101562 11.363281 C 86.757812 10.507812 86.683594 9.332031 85.917969 8.566406 Z M 49.613281 65.148438 C 43.128906 70.378906 35.054688 73.144531 26.265625 73.144531 C 19.902344 73.144531 14.28125 71.441406 10.007812 68.21875 C 6.488281 65.570312 4.019531 61.945312 3.234375 58.277344 C 2.402344 54.417969 3.597656 51.25 6.347656 50.011719 C 9.585938 48.554688 11.9375 46.574219 13.335938 44.136719 C 14.519531 42.066406 14.753906 40.117188 14.742188 38.84375 C 14.734375 38.0625 14.734375 37.273438 14.742188 36.492188 C 14.753906 35.222656 14.519531 33.269531 13.335938 31.203125 C 11.9375 28.761719 9.585938 26.785156 6.347656 25.328125 C 3.597656 24.089844 2.402344 20.921875 3.234375 17.058594 C 4.019531 13.390625 6.488281 9.765625 10.007812 7.117188 C 14.28125 3.898438 19.902344 2.195312 26.265625 2.195312 C 35.054688 2.195312 43.128906 4.960938 49.613281 10.1875 C 54.976562 14.515625 58.863281 20.214844 60.949219 26.601562 C 50.675781 35.554688 43.632812 42.363281 43.308594 42.679688 C 43.304688 42.683594 43.300781 42.6875 43.300781 42.6875 C 43.296875 42.691406 43.296875 42.691406 43.292969 42.695312 C 43.292969 42.695312 43.289062 42.699219 43.289062 42.699219 L 40.785156 45.199219 C 40.113281 45.304688 38.761719 45.601562 37.3125 46.441406 C 35.46875 47.511719 33.085938 49.691406 32.242188 54.011719 C 31.144531 59.605469 30.332031 61.675781 28.472656 63.644531 C 27.726562 64.433594 27.535156 65.578125 27.992188 66.5625 C 28.425781 67.492188 29.34375 68.074219 30.363281 68.074219 C 30.414062 68.074219 30.460938 68.074219 30.511719 68.070312 C 33.308594 67.917969 37.417969 67.28125 41.105469 65.140625 C 45.34375 62.683594 48.078125 58.847656 49.242188 53.742188 L 51.789062 51.191406 C 51.800781 51.183594 51.808594 51.171875 51.816406 51.164062 C 52.050781 50.925781 54.105469 48.796875 57.328125 45.304688 C 57.40625 45.21875 57.484375 45.136719 57.5625 45.050781 C 58.363281 44.179688 59.238281 43.230469 60.167969 42.203125 C 60.324219 42.03125 60.480469 41.859375 60.640625 41.683594 C 61.289062 40.96875 61.960938 40.222656 62.660156 39.441406 C 62.164062 49.515625 57.472656 58.804688 49.613281 65.148438 Z M 42.847656 46.242188 L 44.0625 45.027344 L 49.457031 50.421875 L 48.242188 51.640625 Z M 47.035156 53.535156 C 45.976562 57.886719 43.613281 61.148438 40.007812 63.242188 C 36.691406 65.167969 32.949219 65.738281 30.390625 65.882812 C 30.140625 65.894531 30.027344 65.734375 29.984375 65.636719 C 29.9375 65.539062 29.886719 65.34375 30.066406 65.15625 C 32.46875 62.613281 33.34375 59.792969 34.394531 54.433594 C 35.484375 48.867188 39.515625 47.65625 40.902344 47.402344 Z M 64.707031 33.835938 C 64.011719 34.625 63.332031 35.390625 62.671875 36.136719 C 57.039062 42.472656 52.6875 47.082031 50.992188 48.855469 L 45.632812 43.492188 C 47.699219 41.515625 53.609375 35.933594 61.625 28.925781 C 62.226562 28.398438 62.839844 27.863281 63.46875 27.320312 C 69.511719 22.082031 76.589844 16.179688 84.039062 10.449219 C 77.390625 19.085938 70.511719 27.230469 64.707031 33.835938 Z M 64.707031 33.835938 " fill-opacity="1" fill-rule="nonzero"/></g><path fill="#1d3b79" d="M 23.269531 17.308594 C 23.269531 13.503906 20.175781 10.410156 16.367188 10.410156 C 12.5625 10.410156 9.464844 13.503906 9.464844 17.308594 C 9.464844 21.117188 12.5625 24.210938 16.367188 24.210938 C 20.175781 24.210938 23.269531 21.117188 23.269531 17.308594 Z M 11.660156 17.308594 C 11.660156 14.714844 13.773438 12.601562 16.371094 12.601562 C 18.964844 12.601562 21.078125 14.714844 21.078125 17.308594 C 21.078125 19.90625 18.964844 22.015625 16.371094 22.015625 C 13.773438 22.015625 11.660156 19.90625 11.660156 17.308594 Z M 11.660156 17.308594 " fill-opacity="1" fill-rule="nonzero"/><path fill="#1d3b79" d="M 34.140625 21.441406 C 37.476562 21.441406 40.191406 18.726562 40.191406 15.390625 C 40.191406 12.050781 37.476562 9.335938 34.140625 9.335938 C 30.804688 9.335938 28.089844 12.050781 28.089844 15.390625 C 28.089844 18.726562 30.804688 21.441406 34.140625 21.441406 Z M 34.140625 11.53125 C 36.265625 11.53125 37.996094 13.261719 37.996094 15.390625 C 37.996094 17.515625 36.265625 19.246094 34.140625 19.246094 C 32.011719 19.246094 30.28125 17.515625 30.28125 15.390625 C 30.28125 13.261719 32.011719 11.53125 34.140625 11.53125 Z M 34.140625 11.53125 " fill-opacity="1" fill-rule="nonzero"/><path fill="#1d3b79" d="M 48.8125 28.621094 C 51.652344 28.621094 53.964844 26.308594 53.964844 23.46875 C 53.964844 20.625 51.65625 18.3125 48.8125 18.3125 C 45.972656 18.3125 43.660156 20.625 43.660156 23.46875 C 43.660156 26.308594 45.972656 28.621094 48.8125 28.621094 Z M 48.8125 20.507812 C 50.445312 20.507812 51.773438 21.835938 51.773438 23.46875 C 51.773438 25.101562 50.445312 26.429688 48.8125 26.429688 C 47.179688 26.429688 45.851562 25.101562 45.851562 23.46875 C 45.851562 21.835938 47.179688 20.507812 48.8125 20.507812 Z M 48.8125 20.507812 " fill-opacity="1" fill-rule="nonzero"/><path fill="#1d3b79" d="M 18.304688 50.558594 C 14.96875 50.558594 12.253906 53.273438 12.253906 56.609375 C 12.253906 59.949219 14.96875 62.664062 18.304688 62.664062 C 21.644531 62.664062 24.359375 59.949219 24.359375 56.609375 C 24.359375 53.273438 21.644531 50.558594 18.304688 50.558594 Z M 18.304688 60.46875 C 16.179688 60.46875 14.449219 58.738281 14.449219 56.609375 C 14.449219 54.484375 16.179688 52.753906 18.304688 52.753906 C 20.433594 52.753906 22.164062 54.484375 22.164062 56.609375 C 22.164062 58.738281 20.433594 60.46875 18.304688 60.46875 Z M 18.304688 60.46875 " fill-opacity="1" fill-rule="nonzero"/><g clip-path="url(#331d7c84ad)"><path fill="#1d3b79" d="M 85.917969 8.566406 C 85.15625 7.804688 83.980469 7.726562 83.121094 8.382812 C 75.777344 14.019531 68.769531 19.839844 62.742188 25.046875 C 60.460938 18.617188 56.445312 12.882812 50.992188 8.480469 C 44.113281 2.933594 35.5625 0 26.265625 0 C 19.421875 0 13.34375 1.855469 8.6875 5.363281 C 4.753906 8.328125 1.984375 12.425781 1.085938 16.597656 C 0.0273438 21.53125 1.699219 25.640625 5.449219 27.328125 C 11.675781 30.128906 12.570312 34.261719 12.546875 36.472656 C 12.539062 37.265625 12.539062 38.070312 12.546875 38.867188 C 12.570312 41.078125 11.675781 45.207031 5.449219 48.007812 C 1.699219 49.695312 0.0273438 53.808594 1.085938 58.738281 C 1.984375 62.914062 4.753906 67.007812 8.6875 69.972656 C 13.34375 73.480469 19.421875 75.335938 26.265625 75.335938 C 35.5625 75.335938 44.113281 72.402344 50.992188 66.855469 C 59.832031 59.722656 64.902344 49.085938 64.902344 37.667969 C 64.902344 37.425781 64.894531 37.183594 64.890625 36.941406 C 71.101562 29.929688 78.757812 20.9375 86.101562 11.363281 C 86.757812 10.507812 86.683594 9.332031 85.917969 8.566406 Z M 49.613281 65.148438 C 43.128906 70.378906 35.054688 73.144531 26.265625 73.144531 C 19.902344 73.144531 14.28125 71.441406 10.007812 68.21875 C 6.488281 65.570312 4.019531 61.945312 3.234375 58.277344 C 2.402344 54.417969 3.597656 51.25 6.347656 50.011719 C 9.585938 48.554688 11.9375 46.574219 13.335938 44.136719 C 14.519531 42.066406 14.753906 40.117188 14.742188 38.84375 C 14.734375 38.0625 14.734375 37.273438 14.742188 36.492188 C 14.753906 35.222656 14.519531 33.269531 13.335938 31.203125 C 11.9375 28.761719 9.585938 26.785156 6.347656 25.328125 C 3.597656 24.089844 2.402344 20.921875 3.234375 17.058594 C 4.019531 13.390625 6.488281 9.765625 10.007812 7.117188 C 14.28125 3.898438 19.902344 2.195312 26.265625 2.195312 C 35.054688 2.195312 43.128906 4.960938 49.613281 10.1875 C 54.976562 14.515625 58.863281 20.214844 60.949219 26.601562 C 50.675781 35.554688 43.632812 42.363281 43.308594 42.679688 C 43.304688 42.683594 43.300781 42.6875 43.300781 42.6875 C 43.296875 42.691406 43.296875 42.691406 43.292969 42.695312 C 43.292969 42.695312 43.289062 42.699219 43.289062 42.699219 L 40.785156 45.199219 C 40.113281 45.304688 38.761719 45.601562 37.3125 46.441406 C 35.46875 47.511719 33.085938 49.691406 32.242188 54.011719 C 31.144531 59.605469 30.332031 61.675781 28.472656 63.644531 C 27.726562 64.433594 27.535156 65.578125 27.992188 66.5625 C 28.425781 67.492188 29.34375 68.074219 30.363281 68.074219 C 30.414062 68.074219 30.460938 68.074219 30.511719 68.070312 C 33.308594 67.917969 37.417969 67.28125 41.105469 65.140625 C 45.34375 62.683594 48.078125 58.847656 49.242188 53.742188 L 51.789062 51.191406 C 51.800781 51.183594 51.808594 51.171875 51.816406 51.164062 C 52.050781 50.925781 54.105469 48.796875 57.328125 45.304688 C 57.40625 45.21875 57.484375 45.136719 57.5625 45.050781 C 58.363281 44.179688 59.238281 43.230469 60.167969 42.203125 C 60.324219 42.03125 60.480469 41.859375 60.640625 41.683594 C 61.289062 40.96875 61.960938 40.222656 62.660156 39.441406 C 62.164062 49.515625 57.472656 58.804688 49.613281 65.148438 Z M 42.847656 46.242188 L 44.0625 45.027344 L 49.457031 50.421875 L 48.242188 51.640625 Z M 47.035156 53.535156 C 45.976562 57.886719 43.613281 61.148438 40.007812 63.242188 C 36.691406 65.167969 32.949219 65.738281 30.390625 65.882812 C 30.140625 65.894531 30.027344 65.734375 29.984375 65.636719 C 29.9375 65.539062 29.886719 65.34375 30.066406 65.15625 C 32.46875 62.613281 33.34375 59.792969 34.394531 54.433594 C 35.484375 48.867188 39.515625 47.65625 40.902344 47.402344 Z M 64.707031 33.835938 C 64.011719 34.625 63.332031 35.390625 62.671875 36.136719 C 57.039062 42.472656 52.6875 47.082031 50.992188 48.855469 L 45.632812 43.492188 C 47.699219 41.515625 53.609375 35.933594 61.625 28.925781 C 62.226562 28.398438 62.839844 27.863281 63.46875 27.320312 C 69.511719 22.082031 76.589844 16.179688 84.039062 10.449219 C 77.390625 19.085938 70.511719 27.230469 64.707031 33.835938 Z M 64.707031 33.835938 " fill-opacity="1" fill-rule="nonzero"/></g><path fill="#1d3b79" d="M 23.269531 17.308594 C 23.269531 13.503906 20.175781 10.410156 16.367188 10.410156 C 12.5625 10.410156 9.464844 13.503906 9.464844 17.308594 C 9.464844 21.117188 12.5625 24.210938 16.367188 24.210938 C 20.175781 24.210938 23.269531 21.117188 23.269531 17.308594 Z M 11.660156 17.308594 C 11.660156 14.714844 13.773438 12.601562 16.371094 12.601562 C 18.964844 12.601562 21.078125 14.714844 21.078125 17.308594 C 21.078125 19.90625 18.964844 22.015625 16.371094 22.015625 C 13.773438 22.015625 11.660156 19.90625 11.660156 17.308594 Z M 11.660156 17.308594 " fill-opacity="1" fill-rule="nonzero"/><path fill="#1d3b79" d="M 34.140625 21.441406 C 37.476562 21.441406 40.191406 18.726562 40.191406 15.390625 C 40.191406 12.050781 37.476562 9.335938 34.140625 9.335938 C 30.804688 9.335938 28.089844 12.050781 28.089844 15.390625 C 28.089844 18.726562 30.804688 21.441406 34.140625 21.441406 Z M 34.140625 11.53125 C 36.265625 11.53125 37.996094 13.261719 37.996094 15.390625 C 37.996094 17.515625 36.265625 19.246094 34.140625 19.246094 C 32.011719 19.246094 30.28125 17.515625 30.28125 15.390625 C 30.28125 13.261719 32.011719 11.53125 34.140625 11.53125 Z M 34.140625 11.53125 " fill-opacity="1" fill-rule="nonzero"/><path fill="#1d3b79" d="M 48.8125 28.621094 C 51.652344 28.621094 53.964844 26.308594 53.964844 23.46875 C 53.964844 20.625 51.65625 18.3125 48.8125 18.3125 C 45.972656 18.3125 43.660156 20.625 43.660156 23.46875 C 43.660156 26.308594 45.972656 28.621094 48.8125 28.621094 Z M 48.8125 20.507812 C 50.445312 20.507812 51.773438 21.835938 51.773438 23.46875 C 51.773438 25.101562 50.445312 26.429688 48.8125 26.429688 C 47.179688 26.429688 45.851562 25.101562 45.851562 23.46875 C 45.851562 21.835938 47.179688 20.507812 48.8125 20.507812 Z M 48.8125 20.507812 " fill-opacity="1" fill-rule="nonzero"/><path fill="#1d3b79" d="M 18.304688 50.558594 C 14.96875 50.558594 12.253906 53.273438 12.253906 56.609375 C 12.253906 59.949219 14.96875 62.664062 18.304688 62.664062 C 21.644531 62.664062 24.359375 59.949219 24.359375 56.609375 C 24.359375 53.273438 21.644531 50.558594 18.304688 50.558594 Z M 18.304688 60.46875 C 16.179688 60.46875 14.449219 58.738281 14.449219 56.609375 C 14.449219 54.484375 16.179688 52.753906 18.304688 52.753906 C 20.433594 52.753906 22.164062 54.484375 22.164062 56.609375 C 22.164062 58.738281 20.433594 60.46875 18.304688 60.46875 Z M 18.304688 60.46875 " fill-opacity="1" fill-rule="nonzero"/></svg>