<svg xmlns="http://www.w3.org/2000/svg" xmlns:xlink="http://www.w3.org/1999/xlink" width="76" zoomAndPan="magnify" viewBox="0 0 56.879997 80.249996" height="107" preserveAspectRatio="xMidYMid meet" version="1.0"><defs><clipPath id="e6108c1c36"><path d="M 0.203125 6 L 56.558594 6 L 56.558594 78.765625 L 0.203125 78.765625 Z M 0.203125 6 " clip-rule="nonzero"/></clipPath><clipPath id="9b9bd695fa"><path d="M 0.203125 6 L 56.558594 6 L 56.558594 78.765625 L 0.203125 78.765625 Z M 0.203125 6 " clip-rule="nonzero"/></clipPath></defs><path fill="#1d3b79" d="M 11.476562 25.6875 C 11.414062 25.640625 11.328125 25.644531 11.277344 25.699219 C 10.976562 26.019531 10.046875 27.003906 9.730469 27.339844 C 9.703125 27.371094 9.6875 27.410156 9.691406 27.449219 C 9.691406 27.492188 9.710938 27.527344 9.742188 27.554688 C 10.339844 28.046875 12.96875 30.226562 13.644531 30.785156 C 13.734375 30.859375 13.867188 30.855469 13.953125 30.773438 C 14.859375 29.902344 19.640625 25.292969 20.449219 24.515625 C 20.480469 24.484375 20.496094 24.445312 20.496094 24.402344 C 20.492188 24.363281 20.476562 24.324219 20.445312 24.292969 C 20.121094 24 19.230469 23.191406 18.921875 22.914062 C 18.863281 22.863281 18.777344 22.863281 18.71875 22.917969 C 18.085938 23.519531 14.703125 26.742188 13.953125 27.457031 C 13.867188 27.539062 13.738281 27.542969 13.648438 27.46875 C 13.1875 27.09375 11.859375 26.003906 11.476562 25.6875 Z M 11.476562 25.6875 " fill-opacity="1" fill-rule="evenodd"/><path fill="#1d3b79" d="M 48.894531 27.996094 C 48.894531 27.949219 48.878906 27.90625 48.847656 27.875 C 48.8125 27.84375 48.769531 27.828125 48.726562 27.828125 C 46.707031 27.828125 27.207031 27.828125 25.1875 27.828125 C 25.144531 27.828125 25.101562 27.84375 25.070312 27.875 C 25.035156 27.90625 25.019531 27.949219 25.019531 27.996094 C 25.019531 28.511719 25.019531 30.050781 25.019531 30.5625 C 25.019531 30.609375 25.035156 30.648438 25.070312 30.683594 C 25.101562 30.714844 25.144531 30.730469 25.1875 30.730469 C 27.207031 30.730469 46.707031 30.730469 48.726562 30.730469 C 48.769531 30.730469 48.8125 30.714844 48.847656 30.683594 C 48.878906 30.648438 48.894531 30.609375 48.894531 30.5625 C 48.894531 30.050781 48.894531 28.511719 48.894531 27.996094 Z M 48.894531 27.996094 " fill-opacity="1" fill-rule="evenodd"/><path fill="#1d3b79" d="M 11.476562 38.367188 C 11.414062 38.316406 11.328125 38.324219 11.277344 38.378906 C 10.976562 38.695312 10.046875 39.683594 9.730469 40.019531 C 9.703125 40.050781 9.6875 40.089844 9.691406 40.128906 C 9.691406 40.171875 9.710938 40.207031 9.742188 40.234375 C 10.339844 40.726562 12.96875 42.90625 13.644531 43.464844 C 13.734375 43.539062 13.867188 43.535156 13.953125 43.453125 C 14.859375 42.582031 19.640625 37.972656 20.449219 37.191406 C 20.480469 37.164062 20.496094 37.125 20.496094 37.082031 C 20.492188 37.039062 20.476562 37 20.445312 36.972656 C 20.121094 36.679688 19.230469 35.871094 18.921875 35.59375 C 18.863281 35.539062 18.777344 35.542969 18.71875 35.59375 C 18.085938 36.195312 14.703125 39.421875 13.953125 40.136719 C 13.867188 40.21875 13.738281 40.222656 13.648438 40.148438 C 13.1875 39.769531 11.859375 38.683594 11.476562 38.367188 Z M 11.476562 38.367188 " fill-opacity="1" fill-rule="evenodd"/><path fill="#1d3b79" d="M 48.894531 40.671875 C 48.894531 40.628906 48.878906 40.585938 48.847656 40.554688 C 48.8125 40.523438 48.769531 40.503906 48.726562 40.503906 C 46.707031 40.503906 27.207031 40.503906 25.1875 40.503906 C 25.144531 40.503906 25.101562 40.523438 25.070312 40.554688 C 25.035156 40.585938 25.019531 40.628906 25.019531 40.671875 C 25.019531 41.1875 25.019531 42.726562 25.019531 43.238281 C 25.019531 43.285156 25.035156 43.328125 25.070312 43.359375 C 25.101562 43.390625 25.144531 43.410156 25.1875 43.410156 C 27.207031 43.410156 46.707031 43.410156 48.726562 43.410156 C 48.769531 43.410156 48.8125 43.390625 48.847656 43.359375 C 48.878906 43.328125 48.894531 43.285156 48.894531 43.238281 C 48.894531 42.726562 48.894531 41.1875 48.894531 40.671875 Z M 48.894531 40.671875 " fill-opacity="1" fill-rule="evenodd"/><path fill="#1d3b79" d="M 11.476562 51.042969 C 11.414062 50.996094 11.328125 51 11.277344 51.054688 C 10.976562 51.375 10.046875 52.359375 9.730469 52.695312 C 9.703125 52.726562 9.6875 52.765625 9.691406 52.804688 C 9.691406 52.847656 9.710938 52.882812 9.742188 52.910156 C 10.339844 53.402344 12.96875 55.582031 13.644531 56.140625 C 13.734375 56.214844 13.867188 56.210938 13.953125 56.128906 C 14.859375 55.257812 19.640625 50.648438 20.449219 49.871094 C 20.480469 49.839844 20.496094 49.800781 20.496094 49.757812 C 20.492188 49.71875 20.476562 49.679688 20.445312 49.648438 C 20.121094 49.355469 19.230469 48.546875 18.921875 48.269531 C 18.863281 48.21875 18.777344 48.21875 18.71875 48.273438 C 18.085938 48.875 14.703125 52.101562 13.953125 52.816406 C 13.867188 52.894531 13.738281 52.898438 13.648438 52.824219 C 13.1875 52.449219 11.859375 51.359375 11.476562 51.042969 Z M 11.476562 51.042969 " fill-opacity="1" fill-rule="evenodd"/><path fill="#1d3b79" d="M 48.894531 53.351562 C 48.894531 53.308594 48.878906 53.265625 48.847656 53.230469 C 48.8125 53.199219 48.769531 53.183594 48.726562 53.183594 C 46.707031 53.183594 27.207031 53.183594 25.1875 53.183594 C 25.144531 53.183594 25.101562 53.199219 25.070312 53.230469 C 25.035156 53.265625 25.019531 53.308594 25.019531 53.351562 C 25.019531 53.867188 25.019531 55.40625 25.019531 55.917969 C 25.019531 55.964844 25.035156 56.007812 25.070312 56.039062 C 25.101562 56.070312 25.144531 56.085938 25.1875 56.085938 C 27.207031 56.085938 46.707031 56.085938 48.726562 56.085938 C 48.769531 56.085938 48.8125 56.070312 48.847656 56.039062 C 48.878906 56.007812 48.894531 55.964844 48.894531 55.917969 C 48.894531 55.40625 48.894531 53.867188 48.894531 53.351562 Z M 48.894531 53.351562 " fill-opacity="1" fill-rule="evenodd"/><path fill="#1d3b79" d="M 11.476562 63.722656 C 11.414062 63.671875 11.328125 63.679688 11.277344 63.734375 C 10.976562 64.050781 10.046875 65.039062 9.730469 65.375 C 9.703125 65.40625 9.6875 65.445312 9.691406 65.484375 C 9.691406 65.527344 9.710938 65.5625 9.742188 65.589844 C 10.339844 66.082031 12.96875 68.261719 13.644531 68.820312 C 13.734375 68.894531 13.867188 68.890625 13.953125 68.808594 C 14.859375 67.9375 19.640625 63.328125 20.449219 62.546875 C 20.480469 62.519531 20.496094 62.480469 20.496094 62.4375 C 20.492188 62.394531 20.476562 62.355469 20.445312 62.328125 C 20.121094 62.035156 19.230469 61.226562 18.921875 60.949219 C 18.863281 60.894531 18.777344 60.898438 18.71875 60.949219 C 18.085938 61.554688 14.703125 64.777344 13.953125 65.492188 C 13.867188 65.574219 13.738281 65.578125 13.648438 65.503906 C 13.1875 65.128906 11.859375 64.039062 11.476562 63.722656 Z M 11.476562 63.722656 " fill-opacity="1" fill-rule="evenodd"/><path fill="#1d3b79" d="M 48.894531 66.03125 C 48.894531 65.984375 48.878906 65.941406 48.847656 65.910156 C 48.8125 65.878906 48.769531 65.859375 48.726562 65.859375 C 46.707031 65.859375 27.207031 65.859375 25.1875 65.859375 C 25.144531 65.859375 25.101562 65.878906 25.070312 65.910156 C 25.035156 65.941406 25.019531 65.984375 25.019531 66.03125 C 25.019531 66.542969 25.019531 68.082031 25.019531 68.597656 C 25.019531 68.640625 25.035156 68.683594 25.070312 68.714844 C 25.101562 68.746094 25.144531 68.765625 25.1875 68.765625 C 27.207031 68.765625 46.707031 68.765625 48.726562 68.765625 C 48.769531 68.765625 48.8125 68.746094 48.847656 68.714844 C 48.878906 68.683594 48.894531 68.640625 48.894531 68.597656 C 48.894531 68.082031 48.894531 66.542969 48.894531 66.03125 Z M 48.894531 66.03125 " fill-opacity="1" fill-rule="evenodd"/><g clip-path="url(#e6108c1c36)"><path fill="#1d3b79" d="M 56.617188 14.558594 C 56.617188 14.5 56.617188 14.4375 56.613281 14.378906 C 56.507812 11.886719 54.28125 9.867188 51.90625 9.84375 C 49.136719 9.835938 46.363281 9.828125 43.589844 9.820312 L 43.589844 8.011719 C 43.589844 7.3125 43.019531 6.742188 42.316406 6.742188 C 40.292969 6.742188 36.09375 6.742188 31.503906 6.742188 C 31.269531 8.226562 29.988281 9.367188 28.4375 9.367188 C 26.886719 9.367188 25.605469 8.226562 25.371094 6.742188 C 20.78125 6.742188 16.582031 6.742188 14.558594 6.742188 C 13.855469 6.742188 13.285156 7.3125 13.285156 8.011719 L 13.285156 9.820312 C 10.515625 9.828125 7.742188 9.835938 4.96875 9.84375 C 2.34375 9.871094 0.277344 12.128906 0.253906 14.558594 C 0.1875 34.394531 0.1875 54.234375 0.253906 74.074219 C 0.28125 76.65625 2.511719 78.761719 4.96875 78.785156 C 20.613281 78.828125 36.261719 78.828125 51.910156 78.785156 C 51.957031 78.785156 52.007812 78.785156 52.054688 78.78125 C 54.542969 78.691406 56.59375 76.488281 56.621094 74.074219 C 56.664062 54.234375 56.664062 34.394531 56.617188 14.558594 Z M 53.625 74.054688 C 53.613281 75 52.796875 75.777344 51.898438 75.792969 C 36.261719 75.941406 20.621094 75.835938 4.984375 75.792969 C 4.042969 75.78125 3.261719 74.964844 3.25 74.066406 C 3.070312 54.238281 3.179688 34.40625 3.25 14.574219 C 3.257812 13.613281 4.089844 12.84375 4.996094 12.839844 C 7.777344 12.839844 10.554688 12.835938 13.332031 12.835938 C 13.613281 14.597656 15.144531 15.941406 16.984375 15.941406 C 22.8125 15.941406 34.058594 15.941406 39.886719 15.941406 C 41.734375 15.941406 43.265625 14.589844 43.542969 12.820312 C 46.324219 12.824219 49.105469 12.832031 51.886719 12.839844 C 52.828125 12.847656 53.609375 13.664062 53.625 14.566406 C 53.828125 34.394531 53.671875 54.226562 53.625 74.054688 Z M 53.625 74.054688 " fill-opacity="1" fill-rule="evenodd"/></g><path fill="#1d3b79" d="M 28.4375 0.269531 C 31.742188 0.269531 34.421875 2.953125 34.421875 6.257812 C 34.421875 9.5625 31.742188 12.242188 28.4375 12.242188 C 25.132812 12.242188 22.449219 9.5625 22.449219 6.257812 C 22.449219 2.953125 25.132812 0.269531 28.4375 0.269531 Z M 28.4375 3.148438 C 30.152344 3.148438 31.542969 4.542969 31.542969 6.257812 C 31.542969 7.972656 30.152344 9.367188 28.4375 9.367188 C 26.722656 9.367188 25.328125 7.972656 25.328125 6.257812 C 25.328125 4.542969 26.722656 3.148438 28.4375 3.148438 Z M 28.4375 3.148438 " fill-opacity="1" fill-rule="evenodd"/><path fill="#1d3b79" d="M 11.476562 25.6875 C 11.414062 25.640625 11.328125 25.644531 11.277344 25.699219 C 10.976562 26.019531 10.046875 27.003906 9.730469 27.339844 C 9.703125 27.371094 9.6875 27.410156 9.691406 27.449219 C 9.691406 27.492188 9.710938 27.527344 9.742188 27.554688 C 10.339844 28.046875 12.96875 30.226562 13.644531 30.785156 C 13.734375 30.859375 13.867188 30.855469 13.953125 30.773438 C 14.859375 29.902344 19.640625 25.292969 20.449219 24.515625 C 20.480469 24.484375 20.496094 24.445312 20.496094 24.402344 C 20.492188 24.363281 20.476562 24.324219 20.445312 24.292969 C 20.121094 24 19.230469 23.191406 18.921875 22.914062 C 18.863281 22.863281 18.777344 22.863281 18.71875 22.917969 C 18.085938 23.519531 14.703125 26.742188 13.953125 27.457031 C 13.867188 27.539062 13.738281 27.542969 13.648438 27.46875 C 13.1875 27.09375 11.859375 26.003906 11.476562 25.6875 Z M 11.476562 25.6875 " fill-opacity="1" fill-rule="evenodd"/><path fill="#1d3b79" d="M 48.894531 27.996094 C 48.894531 27.949219 48.878906 27.90625 48.847656 27.875 C 48.8125 27.84375 48.769531 27.828125 48.726562 27.828125 C 46.707031 27.828125 27.207031 27.828125 25.1875 27.828125 C 25.144531 27.828125 25.101562 27.84375 25.070312 27.875 C 25.035156 27.90625 25.019531 27.949219 25.019531 27.996094 C 25.019531 28.511719 25.019531 30.050781 25.019531 30.5625 C 25.019531 30.609375 25.035156 30.648438 25.070312 30.683594 C 25.101562 30.714844 25.144531 30.730469 25.1875 30.730469 C 27.207031 30.730469 46.707031 30.730469 48.726562 30.730469 C 48.769531 30.730469 48.8125 30.714844 48.847656 30.683594 C 48.878906 30.648438 48.894531 30.609375 48.894531 30.5625 C 48.894531 30.050781 48.894531 28.511719 48.894531 27.996094 Z M 48.894531 27.996094 " fill-opacity="1" fill-rule="evenodd"/><path fill="#1d3b79" d="M 11.476562 38.367188 C 11.414062 38.316406 11.328125 38.324219 11.277344 38.378906 C 10.976562 38.695312 10.046875 39.683594 9.730469 40.019531 C 9.703125 40.050781 9.6875 40.089844 9.691406 40.128906 C 9.691406 40.171875 9.710938 40.207031 9.742188 40.234375 C 10.339844 40.726562 12.96875 42.90625 13.644531 43.464844 C 13.734375 43.539062 13.867188 43.535156 13.953125 43.453125 C 14.859375 42.582031 19.640625 37.972656 20.449219 37.191406 C 20.480469 37.164062 20.496094 37.125 20.496094 37.082031 C 20.492188 37.039062 20.476562 37 20.445312 36.972656 C 20.121094 36.679688 19.230469 35.871094 18.921875 35.59375 C 18.863281 35.539062 18.777344 35.542969 18.71875 35.59375 C 18.085938 36.195312 14.703125 39.421875 13.953125 40.136719 C 13.867188 40.21875 13.738281 40.222656 13.648438 40.148438 C 13.1875 39.769531 11.859375 38.683594 11.476562 38.367188 Z M 11.476562 38.367188 " fill-opacity="1" fill-rule="evenodd"/><path fill="#1d3b79" d="M 48.894531 40.671875 C 48.894531 40.628906 48.878906 40.585938 48.847656 40.554688 C 48.8125 40.523438 48.769531 40.503906 48.726562 40.503906 C 46.707031 40.503906 27.207031 40.503906 25.1875 40.503906 C 25.144531 40.503906 25.101562 40.523438 25.070312 40.554688 C 25.035156 40.585938 25.019531 40.628906 25.019531 40.671875 C 25.019531 41.1875 25.019531 42.726562 25.019531 43.238281 C 25.019531 43.285156 25.035156 43.328125 25.070312 43.359375 C 25.101562 43.390625 25.144531 43.410156 25.1875 43.410156 C 27.207031 43.410156 46.707031 43.410156 48.726562 43.410156 C 48.769531 43.410156 48.8125 43.390625 48.847656 43.359375 C 48.878906 43.328125 48.894531 43.285156 48.894531 43.238281 C 48.894531 42.726562 48.894531 41.1875 48.894531 40.671875 Z M 48.894531 40.671875 " fill-opacity="1" fill-rule="evenodd"/><path fill="#1d3b79" d="M 11.476562 51.042969 C 11.414062 50.996094 11.328125 51 11.277344 51.054688 C 10.976562 51.375 10.046875 52.359375 9.730469 52.695312 C 9.703125 52.726562 9.6875 52.765625 9.691406 52.804688 C 9.691406 52.847656 9.710938 52.882812 9.742188 52.910156 C 10.339844 53.402344 12.96875 55.582031 13.644531 56.140625 C 13.734375 56.214844 13.867188 56.210938 13.953125 56.128906 C 14.859375 55.257812 19.640625 50.648438 20.449219 49.871094 C 20.480469 49.839844 20.496094 49.800781 20.496094 49.757812 C 20.492188 49.71875 20.476562 49.679688 20.445312 49.648438 C 20.121094 49.355469 19.230469 48.546875 18.921875 48.269531 C 18.863281 48.21875 18.777344 48.21875 18.71875 48.273438 C 18.085938 48.875 14.703125 52.101562 13.953125 52.816406 C 13.867188 52.894531 13.738281 52.898438 13.648438 52.824219 C 13.1875 52.449219 11.859375 51.359375 11.476562 51.042969 Z M 11.476562 51.042969 " fill-opacity="1" fill-rule="evenodd"/><path fill="#1d3b79" d="M 48.894531 53.351562 C 48.894531 53.308594 48.878906 53.265625 48.847656 53.230469 C 48.8125 53.199219 48.769531 53.183594 48.726562 53.183594 C 46.707031 53.183594 27.207031 53.183594 25.1875 53.183594 C 25.144531 53.183594 25.101562 53.199219 25.070312 53.230469 C 25.035156 53.265625 25.019531 53.308594 25.019531 53.351562 C 25.019531 53.867188 25.019531 55.40625 25.019531 55.917969 C 25.019531 55.964844 25.035156 56.007812 25.070312 56.039062 C 25.101562 56.070312 25.144531 56.085938 25.1875 56.085938 C 27.207031 56.085938 46.707031 56.085938 48.726562 56.085938 C 48.769531 56.085938 48.8125 56.070312 48.847656 56.039062 C 48.878906 56.007812 48.894531 55.964844 48.894531 55.917969 C 48.894531 55.40625 48.894531 53.867188 48.894531 53.351562 Z M 48.894531 53.351562 " fill-opacity="1" fill-rule="evenodd"/><path fill="#1d3b79" d="M 11.476562 63.722656 C 11.414062 63.671875 11.328125 63.679688 11.277344 63.734375 C 10.976562 64.050781 10.046875 65.039062 9.730469 65.375 C 9.703125 65.40625 9.6875 65.445312 9.691406 65.484375 C 9.691406 65.527344 9.710938 65.5625 9.742188 65.589844 C 10.339844 66.082031 12.96875 68.261719 13.644531 68.820312 C 13.734375 68.894531 13.867188 68.890625 13.953125 68.808594 C 14.859375 67.9375 19.640625 63.328125 20.449219 62.546875 C 20.480469 62.519531 20.496094 62.480469 20.496094 62.4375 C 20.492188 62.394531 20.476562 62.355469 20.445312 62.328125 C 20.121094 62.035156 19.230469 61.226562 18.921875 60.949219 C 18.863281 60.894531 18.777344 60.898438 18.71875 60.949219 C 18.085938 61.554688 14.703125 64.777344 13.953125 65.492188 C 13.867188 65.574219 13.738281 65.578125 13.648438 65.503906 C 13.1875 65.128906 11.859375 64.039062 11.476562 63.722656 Z M 11.476562 63.722656 " fill-opacity="1" fill-rule="evenodd"/><path fill="#1d3b79" d="M 48.894531 66.03125 C 48.894531 65.984375 48.878906 65.941406 48.847656 65.910156 C 48.8125 65.878906 48.769531 65.859375 48.726562 65.859375 C 46.707031 65.859375 27.207031 65.859375 25.1875 65.859375 C 25.144531 65.859375 25.101562 65.878906 25.070312 65.910156 C 25.035156 65.941406 25.019531 65.984375 25.019531 66.03125 C 25.019531 66.542969 25.019531 68.082031 25.019531 68.597656 C 25.019531 68.640625 25.035156 68.683594 25.070312 68.714844 C 25.101562 68.746094 25.144531 68.765625 25.1875 68.765625 C 27.207031 68.765625 46.707031 68.765625 48.726562 68.765625 C 48.769531 68.765625 48.8125 68.746094 48.847656 68.714844 C 48.878906 68.683594 48.894531 68.640625 48.894531 68.597656 C 48.894531 68.082031 48.894531 66.542969 48.894531 66.03125 Z M 48.894531 66.03125 " fill-opacity="1" fill-rule="evenodd"/><g clip-path="url(#9b9bd695fa)"><path fill="#1d3b79" d="M 56.617188 14.558594 C 56.617188 14.5 56.617188 14.4375 56.613281 14.378906 C 56.507812 11.886719 54.28125 9.867188 51.90625 9.84375 C 49.136719 9.835938 46.363281 9.828125 43.589844 9.820312 L 43.589844 8.011719 C 43.589844 7.3125 43.019531 6.742188 42.316406 6.742188 C 40.292969 6.742188 36.09375 6.742188 31.503906 6.742188 C 31.269531 8.226562 29.988281 9.367188 28.4375 9.367188 C 26.886719 9.367188 25.605469 8.226562 25.371094 6.742188 C 20.78125 6.742188 16.582031 6.742188 14.558594 6.742188 C 13.855469 6.742188 13.285156 7.3125 13.285156 8.011719 L 13.285156 9.820312 C 10.515625 9.828125 7.742188 9.835938 4.96875 9.84375 C 2.34375 9.871094 0.277344 12.128906 0.253906 14.558594 C 0.1875 34.394531 0.1875 54.234375 0.253906 74.074219 C 0.28125 76.65625 2.511719 78.761719 4.96875 78.785156 C 20.613281 78.828125 36.261719 78.828125 51.910156 78.785156 C 51.957031 78.785156 52.007812 78.785156 52.054688 78.78125 C 54.542969 78.691406 56.59375 76.488281 56.621094 74.074219 C 56.664062 54.234375 56.664062 34.394531 56.617188 14.558594 Z M 53.625 74.054688 C 53.613281 75 52.796875 75.777344 51.898438 75.792969 C 36.261719 75.941406 20.621094 75.835938 4.984375 75.792969 C 4.042969 75.78125 3.261719 74.964844 3.25 74.066406 C 3.070312 54.238281 3.179688 34.40625 3.25 14.574219 C 3.257812 13.613281 4.089844 12.84375 4.996094 12.839844 C 7.777344 12.839844 10.554688 12.835938 13.332031 12.835938 C 13.613281 14.597656 15.144531 15.941406 16.984375 15.941406 C 22.8125 15.941406 34.058594 15.941406 39.886719 15.941406 C 41.734375 15.941406 43.265625 14.589844 43.542969 12.820312 C 46.324219 12.824219 49.105469 12.832031 51.886719 12.839844 C 52.828125 12.847656 53.609375 13.664062 53.625 14.566406 C 53.828125 34.394531 53.671875 54.226562 53.625 74.054688 Z M 53.625 74.054688 " fill-opacity="1" fill-rule="evenodd"/></g><path fill="#1d3b79" d="M 28.4375 0.269531 C 31.742188 0.269531 34.421875 2.953125 34.421875 6.257812 C 34.421875 9.5625 31.742188 12.242188 28.4375 12.242188 C 25.132812 12.242188 22.449219 9.5625 22.449219 6.257812 C 22.449219 2.953125 25.132812 0.269531 28.4375 0.269531 Z M 28.4375 3.148438 C 30.152344 3.148438 31.542969 4.542969 31.542969 6.257812 C 31.542969 7.972656 30.152344 9.367188 28.4375 9.367188 C 26.722656 9.367188 25.328125 7.972656 25.328125 6.257812 C 25.328125 4.542969 26.722656 3.148438 28.4375 3.148438 Z M 28.4375 3.148438 " fill-opacity="1" fill-rule="evenodd"/></svg>