<svg xmlns="http://www.w3.org/2000/svg" xmlns:xlink="http://www.w3.org/1999/xlink" width="465" zoomAndPan="magnify" viewBox="0 0 348.75 635.999998" height="848" preserveAspectRatio="xMidYMid meet" version="1.0"><defs><clipPath id="e651cdf21f"><path d="M 0 0.226562 L 348.5 0.226562 L 348.5 348 L 0 348 Z M 0 0.226562 " clip-rule="nonzero"/></clipPath><clipPath id="35c89c0fb6"><path d="M 31.632812 407 L 175 407 L 175 634.914062 L 31.632812 634.914062 Z M 31.632812 407 " clip-rule="nonzero"/></clipPath><clipPath id="222c00bdf0"><path d="M 175 355.367188 L 187 355.367188 L 187 369 L 175 369 Z M 175 355.367188 " clip-rule="nonzero"/></clipPath><clipPath id="444f600df1"><path d="M 313 438 L 324.433594 438 L 324.433594 451.199219 L 313 451.199219 Z M 313 438 " clip-rule="nonzero"/></clipPath></defs><g clip-path="url(#e651cdf21f)"><path fill="#ffffff" d="M 235.113281 92.070312 C 234.4375 92.070312 233.761719 92.101562 233.089844 92.167969 C 232.414062 92.234375 231.746094 92.332031 231.082031 92.464844 C 230.417969 92.597656 229.765625 92.761719 229.117188 92.957031 C 228.46875 93.15625 227.832031 93.382812 227.207031 93.640625 C 226.582031 93.898438 225.972656 94.1875 225.375 94.507812 C 224.777344 94.828125 224.199219 95.175781 223.636719 95.550781 C 223.074219 95.925781 222.53125 96.328125 222.007812 96.757812 C 221.484375 97.1875 220.984375 97.640625 220.507812 98.117188 C 220.027344 98.597656 219.574219 99.097656 219.144531 99.621094 C 218.714844 100.144531 218.3125 100.6875 217.9375 101.25 C 217.5625 101.8125 217.214844 102.390625 216.894531 102.988281 C 216.574219 103.585938 216.285156 104.195312 216.027344 104.820312 C 215.769531 105.445312 215.542969 106.082031 215.34375 106.730469 C 215.148438 107.378906 214.984375 108.03125 214.851562 108.695312 C 214.71875 109.359375 214.621094 110.027344 214.554688 110.703125 C 214.488281 111.375 214.457031 112.050781 214.457031 112.726562 C 214.457031 113.402344 214.488281 114.078125 214.554688 114.75 C 214.621094 115.425781 214.71875 116.09375 214.851562 116.757812 C 214.984375 117.421875 215.148438 118.074219 215.34375 118.722656 C 215.542969 119.371094 215.769531 120.007812 216.027344 120.632812 C 216.285156 121.257812 216.574219 121.867188 216.894531 122.464844 C 217.214844 123.0625 217.5625 123.640625 217.9375 124.203125 C 218.3125 124.765625 218.714844 125.308594 219.144531 125.832031 C 219.574219 126.355469 220.027344 126.855469 220.507812 127.332031 C 220.984375 127.8125 221.484375 128.265625 222.007812 128.695312 C 222.53125 129.125 223.074219 129.527344 223.636719 129.902344 C 224.199219 130.277344 224.777344 130.625 225.375 130.945312 C 225.972656 131.265625 226.582031 131.554688 227.207031 131.8125 C 227.832031 132.070312 228.46875 132.296875 229.117188 132.496094 C 229.765625 132.691406 230.417969 132.855469 231.082031 132.988281 C 231.746094 133.121094 232.414062 133.21875 233.089844 133.285156 C 233.761719 133.351562 234.4375 133.382812 235.113281 133.382812 C 235.789062 133.382812 236.464844 133.351562 237.136719 133.285156 C 237.8125 133.21875 238.480469 133.121094 239.144531 132.988281 C 239.808594 132.855469 240.460938 132.691406 241.109375 132.496094 C 241.757812 132.296875 242.394531 132.070312 243.019531 131.8125 C 243.644531 131.554688 244.253906 131.265625 244.851562 130.945312 C 245.449219 130.625 246.027344 130.277344 246.589844 129.902344 C 247.152344 129.527344 247.695312 129.125 248.21875 128.695312 C 248.742188 128.265625 249.242188 127.8125 249.722656 127.332031 C 250.199219 126.855469 250.652344 126.355469 251.082031 125.832031 C 251.511719 125.308594 251.914062 124.765625 252.289062 124.203125 C 252.664062 123.640625 253.011719 123.0625 253.332031 122.464844 C 253.652344 121.867188 253.941406 121.257812 254.199219 120.632812 C 254.457031 120.007812 254.683594 119.371094 254.882812 118.722656 C 255.078125 118.074219 255.242188 117.421875 255.375 116.757812 C 255.507812 116.09375 255.605469 115.425781 255.671875 114.75 C 255.738281 114.078125 255.769531 113.402344 255.769531 112.726562 C 255.769531 112.050781 255.738281 111.375 255.671875 110.703125 C 255.605469 110.027344 255.507812 109.359375 255.375 108.695312 C 255.242188 108.03125 255.078125 107.378906 254.882812 106.730469 C 254.683594 106.082031 254.457031 105.445312 254.199219 104.820312 C 253.941406 104.195312 253.652344 103.585938 253.332031 102.988281 C 253.011719 102.390625 252.664062 101.8125 252.289062 101.25 C 251.914062 100.6875 251.511719 100.144531 251.082031 99.621094 C 250.652344 99.097656 250.199219 98.597656 249.722656 98.117188 C 249.242188 97.640625 248.742188 97.1875 248.21875 96.757812 C 247.695312 96.328125 247.152344 95.925781 246.589844 95.550781 C 246.027344 95.175781 245.449219 94.828125 244.851562 94.507812 C 244.253906 94.1875 243.644531 93.898438 243.019531 93.640625 C 242.394531 93.382812 241.757812 93.15625 241.109375 92.957031 C 240.460938 92.761719 239.808594 92.597656 239.144531 92.464844 C 238.480469 92.332031 237.8125 92.234375 237.136719 92.167969 C 236.464844 92.101562 235.789062 92.070312 235.113281 92.070312 Z M 113.582031 190.46875 C 115.015625 190.46875 116.445312 190.539062 117.875 190.679688 C 119.300781 190.820312 120.714844 191.03125 122.121094 191.3125 C 123.527344 191.589844 124.917969 191.9375 126.289062 192.355469 C 127.660156 192.769531 129.007812 193.253906 130.332031 193.800781 C 131.65625 194.351562 132.949219 194.960938 134.214844 195.636719 C 135.480469 196.3125 136.707031 197.050781 137.898438 197.847656 C 139.089844 198.640625 140.242188 199.496094 141.347656 200.40625 C 142.457031 201.3125 143.515625 202.277344 144.53125 203.289062 C 145.542969 204.300781 146.507812 205.363281 147.414062 206.472656 C 148.324219 207.578125 149.175781 208.730469 149.972656 209.921875 C 150.769531 211.113281 151.507812 212.339844 152.183594 213.605469 C 152.859375 214.871094 153.46875 216.164062 154.019531 217.488281 C 154.566406 218.8125 155.050781 220.160156 155.464844 221.53125 C 155.882812 222.902344 156.230469 224.292969 156.507812 225.699219 C 156.789062 227.105469 157 228.519531 157.140625 229.945312 C 157.28125 231.375 157.351562 232.804688 157.351562 234.238281 C 157.351562 235.671875 157.28125 237.101562 157.140625 238.527344 C 157 239.953125 156.789062 241.371094 156.507812 242.773438 C 156.230469 244.179688 155.882812 245.570312 155.464844 246.941406 C 155.050781 248.3125 154.566406 249.660156 154.019531 250.984375 C 153.46875 252.308594 152.859375 253.605469 152.183594 254.867188 C 151.507812 256.132812 150.769531 257.359375 149.972656 258.550781 C 149.175781 259.746094 148.324219 260.894531 147.414062 262.003906 C 146.507812 263.109375 145.542969 264.171875 144.53125 265.183594 C 143.515625 266.199219 142.457031 267.160156 141.347656 268.070312 C 140.242188 268.976562 139.089844 269.832031 137.898438 270.628906 C 136.707031 271.425781 135.480469 272.160156 134.214844 272.835938 C 132.949219 273.511719 131.65625 274.125 130.332031 274.671875 C 129.007812 275.21875 127.660156 275.703125 126.289062 276.117188 C 124.917969 276.535156 123.527344 276.882812 122.121094 277.164062 C 120.714844 277.441406 119.300781 277.652344 117.875 277.792969 C 116.445312 277.933594 115.015625 278.003906 113.582031 278.003906 C 112.148438 278.003906 110.71875 277.933594 109.292969 277.792969 C 107.867188 277.652344 106.449219 277.441406 105.046875 277.164062 C 103.640625 276.882812 102.25 276.535156 100.878906 276.117188 C 99.507812 275.703125 98.160156 275.21875 96.835938 274.671875 C 95.511719 274.125 94.214844 273.511719 92.953125 272.835938 C 91.6875 272.160156 90.460938 271.425781 89.269531 270.628906 C 88.074219 269.832031 86.925781 268.976562 85.816406 268.070312 C 84.710938 267.160156 83.648438 266.199219 82.636719 265.183594 C 81.621094 264.171875 80.660156 263.109375 79.75 262.003906 C 78.84375 260.894531 77.988281 259.746094 77.191406 258.550781 C 76.394531 257.359375 75.660156 256.132812 74.984375 254.867188 C 74.308594 253.605469 73.695312 252.308594 73.148438 250.984375 C 72.601562 249.660156 72.117188 248.3125 71.703125 246.941406 C 71.285156 245.570312 70.9375 244.179688 70.65625 242.773438 C 70.378906 241.371094 70.167969 239.953125 70.027344 238.527344 C 69.886719 237.101562 69.816406 235.671875 69.816406 234.238281 C 69.816406 232.804688 69.886719 231.375 70.027344 229.945312 C 70.167969 228.519531 70.378906 227.105469 70.65625 225.699219 C 70.9375 224.292969 71.285156 222.902344 71.703125 221.53125 C 72.117188 220.160156 72.601562 218.8125 73.148438 217.488281 C 73.695312 216.164062 74.308594 214.871094 74.984375 213.605469 C 75.660156 212.339844 76.394531 211.113281 77.191406 209.921875 C 77.988281 208.730469 78.84375 207.578125 79.75 206.472656 C 80.660156 205.363281 81.621094 204.304688 82.636719 203.289062 C 83.648438 202.277344 84.710938 201.3125 85.816406 200.40625 C 86.925781 199.496094 88.074219 198.640625 89.269531 197.847656 C 90.460938 197.050781 91.6875 196.3125 92.953125 195.636719 C 94.214844 194.960938 95.511719 194.351562 96.835938 193.800781 C 98.160156 193.253906 99.507812 192.769531 100.878906 192.355469 C 102.25 191.9375 103.640625 191.589844 105.046875 191.3125 C 106.449219 191.03125 107.867188 190.820312 109.292969 190.679688 C 110.71875 190.539062 112.148438 190.46875 113.582031 190.46875 Z M 90.714844 239.324219 L 101.742188 250.351562 C 102.003906 250.613281 102.285156 250.84375 102.59375 251.046875 C 102.898438 251.253906 103.222656 251.425781 103.5625 251.566406 C 103.902344 251.707031 104.25 251.8125 104.613281 251.886719 C 104.972656 251.957031 105.335938 251.992188 105.703125 251.992188 C 106.074219 251.992188 106.4375 251.957031 106.796875 251.886719 C 107.160156 251.8125 107.507812 251.707031 107.847656 251.566406 C 108.1875 251.425781 108.511719 251.253906 108.816406 251.046875 C 109.121094 250.84375 109.40625 250.613281 109.667969 250.351562 L 109.695312 250.320312 L 136.253906 226.21875 C 136.53125 225.972656 136.777344 225.703125 137 225.40625 C 137.222656 225.109375 137.410156 224.796875 137.570312 224.464844 C 137.730469 224.128906 137.855469 223.785156 137.945312 223.425781 C 138.035156 223.070312 138.089844 222.707031 138.109375 222.335938 C 138.128906 221.96875 138.113281 221.601562 138.058594 221.234375 C 138.003906 220.871094 137.914062 220.515625 137.792969 220.167969 C 137.667969 219.820312 137.507812 219.488281 137.320312 219.171875 C 137.128906 218.855469 136.910156 218.558594 136.660156 218.285156 C 136.414062 218.011719 136.140625 217.765625 135.84375 217.546875 C 135.546875 217.328125 135.230469 217.140625 134.894531 216.984375 C 134.5625 216.828125 134.214844 216.707031 133.855469 216.617188 C 133.496094 216.53125 133.132812 216.480469 132.765625 216.464844 C 132.394531 216.449219 132.027344 216.46875 131.664062 216.523438 C 131.300781 216.582031 130.945312 216.671875 130.597656 216.800781 C 130.25 216.929688 129.921875 217.089844 129.605469 217.28125 C 129.289062 217.472656 128.996094 217.695312 128.726562 217.945312 L 105.898438 238.664062 L 98.636719 231.402344 C 98.375 231.144531 98.09375 230.917969 97.785156 230.71875 C 97.480469 230.519531 97.160156 230.351562 96.820312 230.214844 C 96.480469 230.078125 96.132812 229.972656 95.773438 229.90625 C 95.414062 229.835938 95.054688 229.804688 94.6875 229.804688 C 94.324219 229.808594 93.960938 229.84375 93.605469 229.917969 C 93.246094 229.988281 92.898438 230.097656 92.5625 230.238281 C 92.226562 230.378906 91.90625 230.550781 91.601562 230.753906 C 91.296875 230.957031 91.015625 231.1875 90.757812 231.445312 C 90.5 231.703125 90.269531 231.984375 90.066406 232.289062 C 89.863281 232.589844 89.691406 232.910156 89.550781 233.25 C 89.410156 233.585938 89.304688 233.933594 89.230469 234.289062 C 89.15625 234.648438 89.121094 235.011719 89.117188 235.375 C 89.117188 235.742188 89.148438 236.101562 89.21875 236.460938 C 89.285156 236.820312 89.390625 237.167969 89.527344 237.507812 C 89.664062 237.847656 89.832031 238.167969 90.03125 238.472656 C 90.230469 238.777344 90.460938 239.0625 90.714844 239.324219 Z M 87.230469 67.851562 L 122.878906 67.851562 L 122.878906 90.367188 C 122.878906 90.867188 122.929688 91.359375 123.027344 91.851562 C 123.125 92.339844 123.269531 92.816406 123.460938 93.277344 C 123.652344 93.738281 123.886719 94.175781 124.164062 94.59375 C 124.441406 95.007812 124.757812 95.390625 125.109375 95.746094 C 125.460938 96.097656 125.847656 96.414062 126.261719 96.691406 C 126.675781 96.96875 127.113281 97.203125 127.578125 97.394531 C 128.039062 97.585938 128.511719 97.730469 129.003906 97.828125 C 129.492188 97.925781 129.988281 97.972656 130.488281 97.976562 L 153.003906 97.976562 L 153.003906 153.617188 C 153 153.851562 152.957031 154.078125 152.867188 154.292969 C 152.777344 154.507812 152.648438 154.699219 152.484375 154.867188 C 152.320312 155.03125 152.128906 155.160156 151.914062 155.25 C 151.695312 155.339844 151.472656 155.382812 151.238281 155.382812 L 87.234375 155.382812 C 87 155.382812 86.773438 155.339844 86.558594 155.25 C 86.34375 155.160156 86.152344 155.03125 85.984375 154.867188 C 85.820312 154.699219 85.691406 154.507812 85.605469 154.292969 C 85.515625 154.078125 85.46875 153.851562 85.46875 153.617188 L 85.46875 69.617188 C 85.46875 69.382812 85.515625 69.15625 85.605469 68.941406 C 85.691406 68.726562 85.820312 68.535156 85.984375 68.371094 C 86.152344 68.203125 86.34375 68.078125 86.558594 67.988281 C 86.773438 67.898438 87 67.851562 87.234375 67.851562 Z M 102.253906 111.484375 L 136.210938 111.484375 C 136.582031 111.484375 136.945312 111.449219 137.304688 111.378906 C 137.667969 111.304688 138.015625 111.199219 138.355469 111.058594 C 138.695312 110.917969 139.019531 110.746094 139.324219 110.539062 C 139.628906 110.335938 139.914062 110.105469 140.171875 109.84375 C 140.433594 109.582031 140.667969 109.300781 140.871094 108.996094 C 141.074219 108.6875 141.246094 108.367188 141.386719 108.027344 C 141.527344 107.6875 141.636719 107.335938 141.707031 106.976562 C 141.777344 106.613281 141.816406 106.25 141.816406 105.882812 C 141.816406 105.515625 141.777344 105.152344 141.707031 104.789062 C 141.636719 104.429688 141.527344 104.078125 141.386719 103.738281 C 141.246094 103.398438 141.074219 103.078125 140.871094 102.769531 C 140.667969 102.464844 140.433594 102.179688 140.171875 101.921875 C 139.914062 101.660156 139.628906 101.429688 139.324219 101.226562 C 139.019531 101.019531 138.695312 100.847656 138.355469 100.707031 C 138.015625 100.566406 137.667969 100.460938 137.304688 100.386719 C 136.945312 100.316406 136.582031 100.28125 136.210938 100.28125 L 102.253906 100.28125 C 101.886719 100.28125 101.519531 100.316406 101.160156 100.386719 C 100.800781 100.460938 100.449219 100.566406 100.109375 100.707031 C 99.769531 100.847656 99.445312 101.019531 99.140625 101.226562 C 98.835938 101.429688 98.550781 101.660156 98.292969 101.921875 C 98.03125 102.179688 97.800781 102.464844 97.59375 102.769531 C 97.390625 103.078125 97.21875 103.398438 97.078125 103.738281 C 96.9375 104.078125 96.832031 104.429688 96.757812 104.789062 C 96.6875 105.152344 96.652344 105.515625 96.652344 105.882812 C 96.652344 106.25 96.6875 106.613281 96.757812 106.976562 C 96.832031 107.335938 96.9375 107.6875 97.078125 108.027344 C 97.21875 108.367188 97.390625 108.6875 97.59375 108.996094 C 97.800781 109.300781 98.03125 109.582031 98.292969 109.84375 C 98.550781 110.105469 98.835938 110.335938 99.140625 110.539062 C 99.445312 110.746094 99.769531 110.917969 100.109375 111.058594 C 100.449219 111.199219 100.800781 111.304688 101.160156 111.378906 C 101.519531 111.449219 101.886719 111.484375 102.253906 111.484375 Z M 102.253906 128.46875 L 136.210938 128.46875 C 136.582031 128.46875 136.945312 128.433594 137.304688 128.363281 C 137.667969 128.289062 138.015625 128.183594 138.355469 128.042969 C 138.695312 127.902344 139.019531 127.730469 139.324219 127.527344 C 139.628906 127.320312 139.914062 127.089844 140.171875 126.828125 C 140.433594 126.570312 140.667969 126.285156 140.871094 125.980469 C 141.074219 125.675781 141.246094 125.351562 141.386719 125.011719 C 141.527344 124.671875 141.636719 124.320312 141.707031 123.960938 C 141.777344 123.601562 141.816406 123.234375 141.816406 122.867188 C 141.816406 122.5 141.777344 122.136719 141.707031 121.773438 C 141.636719 121.414062 141.527344 121.0625 141.386719 120.722656 C 141.246094 120.382812 141.074219 120.0625 140.871094 119.753906 C 140.667969 119.449219 140.433594 119.167969 140.171875 118.90625 C 139.914062 118.644531 139.628906 118.414062 139.324219 118.210938 C 139.019531 118.003906 138.695312 117.832031 138.355469 117.691406 C 138.015625 117.550781 137.667969 117.445312 137.304688 117.375 C 136.945312 117.300781 136.582031 117.265625 136.210938 117.265625 L 102.253906 117.265625 C 101.886719 117.265625 101.519531 117.300781 101.160156 117.375 C 100.800781 117.445312 100.449219 117.550781 100.109375 117.691406 C 99.769531 117.832031 99.445312 118.003906 99.140625 118.210938 C 98.835938 118.414062 98.550781 118.644531 98.292969 118.90625 C 98.03125 119.167969 97.800781 119.449219 97.59375 119.753906 C 97.390625 120.0625 97.21875 120.382812 97.078125 120.722656 C 96.9375 121.0625 96.832031 121.414062 96.757812 121.773438 C 96.6875 122.136719 96.652344 122.5 96.652344 122.867188 C 96.652344 123.234375 96.6875 123.601562 96.757812 123.960938 C 96.832031 124.320312 96.9375 124.671875 97.078125 125.011719 C 97.21875 125.351562 97.390625 125.675781 97.59375 125.980469 C 97.800781 126.285156 98.03125 126.570312 98.292969 126.828125 C 98.550781 127.089844 98.835938 127.320312 99.140625 127.527344 C 99.445312 127.730469 99.769531 127.902344 100.109375 128.042969 C 100.449219 128.183594 100.800781 128.289062 101.160156 128.363281 C 101.519531 128.433594 101.886719 128.46875 102.253906 128.46875 Z M 102.253906 145.453125 L 136.210938 145.453125 C 136.582031 145.453125 136.945312 145.417969 137.304688 145.347656 C 137.667969 145.277344 138.015625 145.167969 138.355469 145.027344 C 138.695312 144.886719 139.019531 144.714844 139.324219 144.511719 C 139.628906 144.304688 139.914062 144.074219 140.171875 143.8125 C 140.433594 143.554688 140.667969 143.269531 140.871094 142.964844 C 141.074219 142.660156 141.246094 142.335938 141.386719 141.996094 C 141.527344 141.65625 141.636719 141.304688 141.707031 140.945312 C 141.777344 140.585938 141.816406 140.21875 141.816406 139.851562 C 141.816406 139.484375 141.777344 139.121094 141.707031 138.761719 C 141.636719 138.398438 141.527344 138.046875 141.386719 137.707031 C 141.246094 137.367188 141.074219 137.046875 140.871094 136.742188 C 140.667969 136.433594 140.433594 136.152344 140.171875 135.890625 C 139.914062 135.632812 139.628906 135.398438 139.324219 135.195312 C 139.019531 134.992188 138.695312 134.816406 138.355469 134.675781 C 138.015625 134.535156 137.667969 134.429688 137.304688 134.359375 C 136.945312 134.285156 136.582031 134.25 136.210938 134.25 L 102.253906 134.25 C 101.886719 134.25 101.519531 134.285156 101.160156 134.359375 C 100.800781 134.429688 100.449219 134.535156 100.109375 134.675781 C 99.769531 134.816406 99.445312 134.992188 99.140625 135.195312 C 98.835938 135.398438 98.550781 135.632812 98.292969 135.890625 C 98.03125 136.152344 97.800781 136.433594 97.59375 136.742188 C 97.390625 137.046875 97.21875 137.367188 97.078125 137.707031 C 96.9375 138.046875 96.832031 138.398438 96.757812 138.761719 C 96.6875 139.121094 96.652344 139.484375 96.652344 139.851562 C 96.652344 140.21875 96.6875 140.585938 96.757812 140.945312 C 96.832031 141.304688 96.9375 141.65625 97.078125 141.996094 C 97.21875 142.335938 97.390625 142.660156 97.59375 142.964844 C 97.800781 143.269531 98.03125 143.554688 98.292969 143.8125 C 98.550781 144.074219 98.835938 144.304688 99.140625 144.511719 C 99.445312 144.714844 99.769531 144.886719 100.109375 145.027344 C 100.449219 145.167969 100.800781 145.277344 101.160156 145.347656 C 101.519531 145.417969 101.886719 145.453125 102.253906 145.453125 Z M 134.082031 73.109375 L 134.082031 86.773438 L 147.746094 86.773438 Z M 296.953125 304.878906 L 307.132812 294.441406 C 307.480469 294.085938 307.746094 293.671875 307.929688 293.207031 C 308.113281 292.742188 308.199219 292.261719 308.191406 291.761719 C 308.183594 291.265625 308.082031 290.785156 307.886719 290.328125 C 307.6875 289.867188 307.410156 289.464844 307.050781 289.117188 L 284.292969 267.035156 C 283.945312 266.699219 283.546875 266.441406 283.101562 266.257812 C 282.652344 266.074219 282.1875 265.980469 281.703125 265.976562 C 281.21875 265.972656 280.753906 266.058594 280.300781 266.234375 C 279.851562 266.410156 279.449219 266.660156 279.09375 266.992188 L 265.269531 253.5625 C 265.703125 252.867188 266.117188 252.15625 266.507812 251.4375 C 266.898438 250.714844 267.265625 249.984375 267.609375 249.238281 C 267.957031 248.496094 268.277344 247.742188 268.574219 246.980469 C 268.875 246.214844 269.148438 245.441406 269.402344 244.660156 C 269.652344 243.882812 269.878906 243.09375 270.082031 242.300781 C 270.28125 241.503906 270.460938 240.703125 270.613281 239.898438 C 270.765625 239.09375 270.894531 238.285156 270.996094 237.46875 C 271.097656 236.65625 271.175781 235.839844 271.230469 235.023438 C 271.28125 234.203125 271.308594 233.382812 271.3125 232.566406 C 271.3125 231.746094 271.289062 230.925781 271.242188 230.105469 C 271.191406 229.289062 271.117188 228.472656 271.019531 227.65625 C 270.917969 226.84375 270.792969 226.035156 270.644531 225.226562 C 270.496094 224.421875 270.320312 223.621094 270.125 222.824219 C 269.925781 222.027344 269.703125 221.242188 269.453125 220.457031 C 269.207031 219.675781 268.933594 218.902344 268.640625 218.136719 C 268.34375 217.375 268.027344 216.617188 267.683594 215.871094 C 267.34375 215.128906 266.976562 214.394531 266.589844 213.671875 C 266.203125 212.949219 265.792969 212.238281 265.363281 211.539062 C 264.929688 210.84375 264.480469 210.160156 264.007812 209.488281 C 263.53125 208.820312 263.039062 208.164062 262.523438 207.527344 C 262.011719 206.886719 261.476562 206.265625 260.925781 205.660156 C 260.375 205.050781 259.804688 204.464844 259.214844 203.894531 C 258.625 203.320312 258.019531 202.769531 257.398438 202.238281 C 256.773438 201.703125 256.136719 201.1875 255.480469 200.695312 C 254.828125 200.203125 254.160156 199.726562 253.472656 199.273438 C 252.789062 198.824219 252.09375 198.390625 251.382812 197.980469 C 250.671875 197.570312 249.949219 197.183594 249.214844 196.820312 C 248.480469 196.453125 247.738281 196.113281 246.980469 195.792969 C 246.226562 195.472656 245.460938 195.179688 244.6875 194.90625 C 243.914062 194.636719 243.132812 194.386719 242.34375 194.164062 C 241.554688 193.941406 240.761719 193.742188 239.960938 193.566406 C 239.15625 193.394531 238.351562 193.242188 237.542969 193.121094 C 236.730469 192.996094 235.917969 192.894531 235.101562 192.820312 C 234.285156 192.746094 233.464844 192.699219 232.644531 192.671875 C 231.828125 192.648438 231.007812 192.652344 230.1875 192.679688 C 229.367188 192.707031 228.550781 192.757812 227.734375 192.835938 C 226.917969 192.914062 226.105469 193.015625 225.292969 193.140625 C 224.484375 193.269531 223.679688 193.421875 222.878906 193.601562 C 222.078125 193.777344 221.28125 193.980469 220.496094 194.207031 C 219.707031 194.433594 218.925781 194.683594 218.152344 194.957031 C 217.382812 195.230469 216.617188 195.53125 215.863281 195.851562 C 215.109375 196.171875 214.367188 196.519531 213.632812 196.886719 C 212.898438 197.253906 212.179688 197.644531 211.46875 198.054688 C 210.761719 198.46875 210.066406 198.902344 209.382812 199.359375 C 208.703125 199.8125 208.035156 200.289062 207.382812 200.785156 C 206.730469 201.28125 206.09375 201.796875 205.472656 202.332031 C 204.851562 202.871094 204.246094 203.425781 203.660156 203.996094 C 203.074219 204.570312 202.507812 205.160156 201.957031 205.769531 C 201.40625 206.378906 200.875 207.003906 200.363281 207.644531 C 199.851562 208.285156 199.363281 208.941406 198.890625 209.613281 C 198.421875 210.28125 197.96875 210.96875 197.542969 211.667969 C 197.113281 212.367188 196.707031 213.078125 196.324219 213.800781 C 195.9375 214.527344 195.574219 215.261719 195.238281 216.007812 C 194.898438 216.753906 194.582031 217.511719 194.289062 218.277344 C 193.996094 219.042969 193.730469 219.820312 193.484375 220.601562 C 193.238281 221.382812 193.019531 222.171875 192.824219 222.96875 C 192.628906 223.765625 192.457031 224.566406 192.3125 225.375 C 192.164062 226.179688 192.042969 226.992188 191.945312 227.804688 C 191.851562 228.621094 191.78125 229.4375 191.734375 230.257812 C 191.6875 231.074219 191.667969 231.894531 191.671875 232.714844 C 191.679688 233.535156 191.707031 234.351562 191.761719 235.171875 C 191.820312 235.988281 191.898438 236.804688 192.003906 237.617188 C 192.113281 238.429688 192.242188 239.242188 192.398438 240.046875 C 192.554688 240.851562 192.734375 241.648438 192.941406 242.445312 C 193.144531 243.238281 193.375 244.023438 193.628906 244.804688 C 193.882812 245.585938 194.160156 246.355469 194.460938 247.117188 C 194.761719 247.878906 195.089844 248.632812 195.4375 249.375 C 195.785156 250.117188 196.15625 250.847656 196.546875 251.570312 C 196.941406 252.289062 197.355469 252.996094 197.792969 253.6875 C 198.230469 254.382812 198.6875 255.0625 199.167969 255.726562 C 199.644531 256.394531 200.144531 257.042969 200.664062 257.679688 C 201.183594 258.3125 201.71875 258.933594 202.277344 259.535156 C 202.835938 260.136719 203.410156 260.71875 204.003906 261.285156 C 204.597656 261.851562 205.207031 262.398438 205.832031 262.925781 C 206.460938 263.457031 207.101562 263.964844 207.761719 264.453125 C 208.421875 264.941406 209.09375 265.410156 209.78125 265.855469 C 210.46875 266.304688 211.167969 266.730469 211.882812 267.132812 C 212.597656 267.535156 213.320312 267.917969 214.058594 268.277344 C 214.796875 268.636719 215.542969 268.972656 216.300781 269.285156 C 217.058594 269.597656 217.828125 269.886719 218.601562 270.152344 C 219.378906 270.417969 220.160156 270.660156 220.953125 270.875 C 221.742188 271.09375 222.539062 271.285156 223.34375 271.453125 C 224.144531 271.621094 224.953125 271.761719 225.765625 271.882812 C 226.574219 272 227.390625 272.09375 228.207031 272.160156 C 229.023438 272.226562 229.84375 272.269531 230.664062 272.285156 C 231.480469 272.304688 232.300781 272.296875 233.121094 272.261719 C 233.941406 272.230469 234.757812 272.167969 235.574219 272.085938 C 236.390625 272 237.203125 271.894531 238.011719 271.757812 C 238.820312 271.625 239.625 271.464844 240.421875 271.28125 C 241.222656 271.097656 242.015625 270.890625 242.800781 270.65625 C 243.585938 270.421875 244.367188 270.167969 245.136719 269.886719 C 245.90625 269.605469 246.667969 269.300781 247.417969 268.972656 C 248.171875 268.644531 248.910156 268.292969 249.640625 267.917969 C 250.371094 267.546875 251.089844 267.148438 251.792969 266.730469 C 252.5 266.3125 253.191406 265.875 253.871094 265.414062 C 254.546875 264.953125 255.210938 264.46875 255.859375 263.96875 L 269.300781 277.023438 L 268.785156 277.546875 C 268.441406 277.90625 268.175781 278.320312 267.992188 278.78125 C 267.808594 279.246094 267.71875 279.730469 267.726562 280.226562 C 267.734375 280.726562 267.835938 281.207031 268.035156 281.664062 C 268.230469 282.121094 268.507812 282.527344 268.867188 282.875 L 291.621094 304.953125 C 291.980469 305.300781 292.394531 305.566406 292.855469 305.75 C 293.320312 305.933594 293.800781 306.019531 294.300781 306.011719 C 294.800781 306.003906 295.277344 305.902344 295.738281 305.707031 C 296.195312 305.507812 296.597656 305.230469 296.949219 304.875 Z M 231.5 203.898438 C 232.4375 203.898438 233.371094 203.945312 234.304688 204.035156 C 235.234375 204.128906 236.160156 204.265625 237.078125 204.449219 C 237.996094 204.628906 238.90625 204.859375 239.800781 205.128906 C 240.699219 205.402344 241.578125 205.714844 242.445312 206.074219 C 243.308594 206.433594 244.15625 206.832031 244.980469 207.273438 C 245.804688 207.714844 246.609375 208.199219 247.386719 208.71875 C 248.167969 209.238281 248.917969 209.796875 249.640625 210.390625 C 250.367188 210.984375 251.058594 211.613281 251.722656 212.273438 C 252.382812 212.9375 253.011719 213.628906 253.605469 214.351562 C 254.199219 215.078125 254.757812 215.828125 255.277344 216.605469 C 255.796875 217.386719 256.277344 218.1875 256.71875 219.015625 C 257.164062 219.839844 257.5625 220.6875 257.921875 221.550781 C 258.277344 222.417969 258.59375 223.296875 258.867188 224.195312 C 259.136719 225.089844 259.363281 225.996094 259.546875 226.914062 C 259.730469 227.835938 259.867188 228.761719 259.960938 229.691406 C 260.050781 230.625 260.097656 231.558594 260.097656 232.496094 C 260.097656 233.429688 260.050781 234.367188 259.960938 235.296875 C 259.867188 236.230469 259.730469 237.15625 259.546875 238.074219 C 259.367188 238.992188 259.136719 239.898438 258.867188 240.796875 C 258.59375 241.691406 258.277344 242.574219 257.921875 243.4375 C 257.5625 244.304688 257.164062 245.148438 256.722656 245.976562 C 256.28125 246.800781 255.796875 247.605469 255.277344 248.382812 C 254.757812 249.160156 254.199219 249.914062 253.605469 250.636719 C 253.011719 251.359375 252.382812 252.054688 251.722656 252.714844 C 251.058594 253.378906 250.367188 254.007812 249.640625 254.601562 C 248.917969 255.195312 248.167969 255.753906 247.386719 256.273438 C 246.609375 256.792969 245.808594 257.273438 244.980469 257.714844 C 244.15625 258.15625 243.308594 258.558594 242.445312 258.914062 C 241.578125 259.273438 240.699219 259.589844 239.800781 259.859375 C 238.90625 260.132812 238 260.359375 237.078125 260.542969 C 236.160156 260.726562 235.234375 260.863281 234.304688 260.953125 C 233.371094 261.046875 232.4375 261.09375 231.5 261.09375 C 230.5625 261.09375 229.628906 261.046875 228.699219 260.953125 C 227.765625 260.863281 226.839844 260.726562 225.921875 260.542969 C 225.003906 260.359375 224.097656 260.132812 223.199219 259.859375 C 222.304688 259.589844 221.421875 259.273438 220.558594 258.914062 C 219.691406 258.558594 218.847656 258.15625 218.019531 257.714844 C 217.195312 257.273438 216.390625 256.792969 215.613281 256.273438 C 214.835938 255.753906 214.082031 255.195312 213.359375 254.601562 C 212.636719 254.007812 211.941406 253.378906 211.28125 252.714844 C 210.617188 252.054688 209.988281 251.359375 209.394531 250.636719 C 208.800781 249.914062 208.242188 249.160156 207.722656 248.382812 C 207.203125 247.605469 206.722656 246.800781 206.28125 245.976562 C 205.839844 245.148438 205.4375 244.304688 205.082031 243.4375 C 204.722656 242.574219 204.40625 241.691406 204.136719 240.796875 C 203.863281 239.898438 203.636719 238.992188 203.453125 238.074219 C 203.269531 237.15625 203.132812 236.230469 203.042969 235.296875 C 202.949219 234.367188 202.902344 233.433594 202.902344 232.496094 C 202.902344 231.558594 202.949219 230.625 203.042969 229.691406 C 203.132812 228.761719 203.269531 227.835938 203.453125 226.917969 C 203.636719 225.996094 203.863281 225.089844 204.132812 224.195312 C 204.40625 223.296875 204.722656 222.417969 205.078125 221.550781 C 205.4375 220.6875 205.839844 219.839844 206.28125 219.015625 C 206.722656 218.1875 207.203125 217.386719 207.722656 216.609375 C 208.242188 215.828125 208.800781 215.078125 209.394531 214.351562 C 209.988281 213.628906 210.617188 212.9375 211.277344 212.273438 C 211.941406 211.613281 212.632812 210.984375 213.359375 210.390625 C 214.082031 209.796875 214.832031 209.238281 215.613281 208.71875 C 216.390625 208.195312 217.195312 207.714844 218.019531 207.273438 C 218.84375 206.832031 219.691406 206.433594 220.554688 206.074219 C 221.421875 205.714844 222.300781 205.402344 223.199219 205.128906 C 224.09375 204.859375 225.003906 204.628906 225.921875 204.449219 C 226.839844 204.265625 227.765625 204.128906 228.695312 204.035156 C 229.628906 203.945312 230.5625 203.898438 231.5 203.898438 Z M 213.304688 29.199219 C 212.949219 29.105469 212.609375 28.976562 212.277344 28.8125 C 211.949219 28.652344 211.636719 28.457031 211.347656 28.234375 C 211.054688 28.011719 210.789062 27.761719 210.546875 27.484375 C 210.304688 27.210938 210.089844 26.914062 209.90625 26.59375 C 209.722656 26.277344 209.570312 25.945312 209.453125 25.597656 C 209.335938 25.25 209.25 24.890625 209.203125 24.527344 C 209.15625 24.164062 209.144531 23.796875 209.167969 23.433594 C 209.191406 23.066406 209.25 22.703125 209.34375 22.351562 C 209.4375 21.996094 209.566406 21.652344 209.730469 21.324219 C 209.890625 20.992188 210.085938 20.683594 210.308594 20.390625 C 210.53125 20.101562 210.78125 19.832031 211.058594 19.589844 C 211.332031 19.347656 211.628906 19.136719 211.949219 18.949219 C 212.265625 18.765625 212.597656 18.617188 212.949219 18.496094 C 213.296875 18.378906 213.652344 18.296875 214.015625 18.246094 C 214.378906 18.199219 214.746094 18.1875 215.113281 18.210938 C 215.476562 18.234375 215.839844 18.292969 216.195312 18.390625 C 219.894531 19.378906 223.558594 20.503906 227.179688 21.753906 C 230.800781 23.007812 234.375 24.386719 237.898438 25.894531 C 241.421875 27.402344 244.886719 29.03125 248.296875 30.785156 C 251.703125 32.539062 255.042969 34.410156 258.316406 36.402344 C 261.59375 38.394531 264.792969 40.5 267.914062 42.71875 C 271.039062 44.941406 274.082031 47.269531 277.039062 49.703125 C 279.996094 52.140625 282.867188 54.679688 285.644531 57.320312 C 288.421875 59.960938 291.101562 62.695312 293.683594 65.527344 C 296.265625 68.359375 298.746094 71.28125 301.117188 74.289062 C 303.492188 77.296875 305.757812 80.382812 307.914062 83.554688 C 310.066406 86.722656 312.105469 89.964844 314.03125 93.28125 C 315.953125 96.59375 317.757812 99.972656 319.441406 103.417969 C 321.121094 106.859375 322.679688 110.359375 324.113281 113.914062 C 325.546875 117.46875 326.851562 121.066406 328.03125 124.714844 C 329.207031 128.363281 330.253906 132.046875 331.167969 135.769531 C 332.082031 139.492188 332.863281 143.238281 333.511719 147.015625 L 337.425781 138.554688 C 337.574219 138.21875 337.757812 137.902344 337.976562 137.601562 C 338.191406 137.300781 338.433594 137.027344 338.703125 136.773438 C 338.972656 136.523438 339.261719 136.300781 339.574219 136.105469 C 339.890625 135.914062 340.21875 135.75 340.566406 135.625 C 340.910156 135.496094 341.265625 135.402344 341.628906 135.34375 C 341.992188 135.285156 342.359375 135.261719 342.726562 135.273438 C 343.097656 135.289062 343.460938 135.339844 343.816406 135.425781 C 344.175781 135.511719 344.523438 135.628906 344.859375 135.785156 C 345.191406 135.941406 345.507812 136.125 345.808594 136.34375 C 346.105469 136.558594 346.378906 136.804688 346.628906 137.074219 C 346.878906 137.34375 347.097656 137.636719 347.289062 137.953125 C 347.484375 138.269531 347.640625 138.597656 347.769531 138.945312 C 347.894531 139.292969 347.984375 139.648438 348.042969 140.011719 C 348.097656 140.375 348.117188 140.742188 348.101562 141.109375 C 348.085938 141.476562 348.03125 141.839844 347.945312 142.199219 C 347.855469 142.558594 347.734375 142.902344 347.578125 143.238281 L 335.171875 170.070312 C 335.074219 170.28125 334.964844 170.484375 334.84375 170.679688 C 334.71875 170.875 334.585938 171.066406 334.441406 171.246094 C 334.292969 171.425781 334.136719 171.59375 333.96875 171.753906 C 333.804688 171.914062 333.628906 172.066406 333.441406 172.203125 C 333.257812 172.34375 333.0625 172.46875 332.859375 172.582031 C 332.660156 172.699219 332.453125 172.800781 332.238281 172.886719 C 332.023438 172.976562 331.804688 173.050781 331.582031 173.113281 C 331.359375 173.175781 331.132812 173.222656 330.902344 173.257812 C 330.675781 173.289062 330.445312 173.308594 330.210938 173.3125 C 329.980469 173.320312 329.75 173.308594 329.519531 173.285156 C 329.289062 173.261719 329.0625 173.222656 328.835938 173.171875 C 328.609375 173.121094 328.386719 173.054688 328.171875 172.972656 C 327.953125 172.894531 327.742188 172.800781 327.535156 172.695312 C 327.328125 172.589844 327.128906 172.472656 326.9375 172.339844 C 326.746094 172.210938 326.566406 172.070312 326.390625 171.914062 C 326.21875 171.761719 326.054688 171.597656 325.902344 171.425781 L 307.75 151.984375 C 307.5 151.714844 307.28125 151.425781 307.085938 151.113281 C 306.894531 150.800781 306.734375 150.472656 306.605469 150.128906 C 306.476562 149.785156 306.382812 149.433594 306.324219 149.070312 C 306.265625 148.707031 306.246094 148.34375 306.257812 147.976562 C 306.269531 147.609375 306.320312 147.246094 306.402344 146.890625 C 306.488281 146.53125 306.605469 146.1875 306.761719 145.851562 C 306.914062 145.519531 307.097656 145.203125 307.3125 144.90625 C 307.527344 144.609375 307.765625 144.335938 308.035156 144.085938 C 308.304688 143.835938 308.59375 143.613281 308.90625 143.421875 C 309.21875 143.226562 309.546875 143.066406 309.890625 142.9375 C 310.234375 142.8125 310.589844 142.71875 310.953125 142.660156 C 311.3125 142.601562 311.679688 142.578125 312.046875 142.589844 C 312.410156 142.605469 312.773438 142.652344 313.132812 142.738281 C 313.488281 142.820312 313.832031 142.941406 314.167969 143.09375 C 314.5 143.246094 314.816406 143.429688 315.113281 143.644531 C 315.414062 143.859375 315.6875 144.101562 315.9375 144.371094 L 322.957031 151.890625 C 322.417969 148.300781 321.746094 144.738281 320.949219 141.195312 C 320.148438 137.65625 319.222656 134.148438 318.167969 130.675781 C 317.117188 127.203125 315.9375 123.769531 314.636719 120.382812 C 313.332031 116.996094 311.910156 113.660156 310.367188 110.375 C 308.820312 107.089844 307.160156 103.863281 305.382812 100.699219 C 303.605469 97.535156 301.714844 94.441406 299.710938 91.414062 C 297.710938 88.386719 295.601562 85.433594 293.382812 82.558594 C 291.167969 79.6875 288.851562 76.894531 286.433594 74.191406 C 284.011719 71.484375 281.5 68.867188 278.890625 66.34375 C 276.28125 63.820312 273.585938 61.394531 270.800781 59.066406 C 268.019531 56.738281 265.152344 54.511719 262.207031 52.390625 C 259.261719 50.269531 256.242188 48.257812 253.152344 46.355469 C 250.0625 44.453125 246.90625 42.667969 243.683594 40.996094 C 240.460938 39.320312 237.183594 37.765625 233.851562 36.332031 C 230.519531 34.894531 227.136719 33.582031 223.707031 32.394531 C 220.277344 31.203125 216.8125 30.136719 213.304688 29.199219 Z M 42.042969 179.847656 C 41.675781 179.847656 41.3125 179.808594 40.953125 179.738281 C 40.589844 179.667969 40.242188 179.5625 39.902344 179.421875 C 39.5625 179.277344 39.238281 179.105469 38.933594 178.902344 C 38.625 178.699219 38.34375 178.464844 38.082031 178.207031 C 37.824219 177.945312 37.589844 177.664062 37.386719 177.355469 C 37.183594 177.050781 37.011719 176.726562 36.867188 176.386719 C 36.726562 176.046875 36.621094 175.699219 36.550781 175.335938 C 36.476562 174.976562 36.441406 174.613281 36.441406 174.246094 C 36.441406 173.875 36.476562 173.511719 36.550781 173.152344 C 36.621094 172.789062 36.726562 172.441406 36.867188 172.101562 C 37.011719 171.761719 37.183594 171.4375 37.386719 171.132812 C 37.589844 170.824219 37.824219 170.542969 38.082031 170.28125 C 38.34375 170.023438 38.625 169.789062 38.933594 169.585938 C 39.238281 169.382812 39.5625 169.210938 39.902344 169.070312 C 40.242188 168.929688 40.589844 168.820312 40.953125 168.75 C 41.3125 168.679688 41.675781 168.640625 42.042969 168.640625 L 168.835938 168.640625 L 168.835938 41.851562 C 168.835938 41.484375 168.871094 41.121094 168.941406 40.757812 C 169.015625 40.398438 169.121094 40.046875 169.261719 39.707031 C 169.402344 39.367188 169.574219 39.046875 169.777344 38.738281 C 169.984375 38.433594 170.214844 38.152344 170.476562 37.890625 C 170.734375 37.632812 171.019531 37.398438 171.324219 37.195312 C 171.628906 36.988281 171.953125 36.816406 172.292969 36.675781 C 172.632812 36.535156 172.984375 36.429688 173.34375 36.359375 C 173.703125 36.285156 174.070312 36.25 174.4375 36.25 C 174.804688 36.25 175.167969 36.285156 175.53125 36.359375 C 175.890625 36.429688 176.242188 36.535156 176.582031 36.675781 C 176.921875 36.816406 177.242188 36.988281 177.550781 37.195312 C 177.855469 37.398438 178.136719 37.632812 178.398438 37.890625 C 178.65625 38.152344 178.890625 38.433594 179.09375 38.738281 C 179.300781 39.046875 179.472656 39.367188 179.613281 39.707031 C 179.753906 40.046875 179.859375 40.398438 179.929688 40.757812 C 180.003906 41.121094 180.039062 41.484375 180.039062 41.851562 L 180.039062 168.640625 L 306.828125 168.640625 C 307.195312 168.640625 307.5625 168.679688 307.921875 168.75 C 308.28125 168.820312 308.632812 168.929688 308.972656 169.070312 C 309.3125 169.210938 309.636719 169.382812 309.941406 169.585938 C 310.246094 169.789062 310.53125 170.023438 310.789062 170.28125 C 311.050781 170.542969 311.28125 170.824219 311.488281 171.132812 C 311.691406 171.4375 311.863281 171.761719 312.003906 172.101562 C 312.144531 172.441406 312.25 172.789062 312.324219 173.152344 C 312.394531 173.511719 312.429688 173.875 312.429688 174.246094 C 312.429688 174.613281 312.394531 174.976562 312.324219 175.335938 C 312.25 175.699219 312.144531 176.046875 312.003906 176.386719 C 311.863281 176.726562 311.691406 177.050781 311.488281 177.355469 C 311.28125 177.664062 311.050781 177.945312 310.789062 178.207031 C 310.53125 178.464844 310.246094 178.699219 309.941406 178.902344 C 309.636719 179.105469 309.3125 179.277344 308.972656 179.421875 C 308.632812 179.5625 308.28125 179.667969 307.921875 179.738281 C 307.5625 179.808594 307.195312 179.847656 306.828125 179.847656 L 180.039062 179.847656 L 180.039062 306.636719 C 180.039062 307.003906 180.003906 307.367188 179.929688 307.730469 C 179.859375 308.089844 179.753906 308.441406 179.613281 308.78125 C 179.472656 309.121094 179.300781 309.441406 179.09375 309.75 C 178.890625 310.054688 178.65625 310.335938 178.398438 310.597656 C 178.136719 310.859375 177.855469 311.089844 177.550781 311.292969 C 177.242188 311.5 176.921875 311.671875 176.582031 311.8125 C 176.242188 311.953125 175.890625 312.058594 175.53125 312.128906 C 175.167969 312.203125 174.804688 312.238281 174.4375 312.238281 C 174.070312 312.238281 173.703125 312.203125 173.34375 312.128906 C 172.984375 312.058594 172.632812 311.953125 172.292969 311.8125 C 171.953125 311.671875 171.628906 311.5 171.324219 311.292969 C 171.019531 311.089844 170.734375 310.859375 170.476562 310.597656 C 170.214844 310.335938 169.984375 310.054688 169.777344 309.75 C 169.574219 309.441406 169.402344 309.121094 169.261719 308.78125 C 169.121094 308.441406 169.015625 308.089844 168.941406 307.730469 C 168.871094 307.367188 168.835938 307.003906 168.835938 306.636719 L 168.835938 179.847656 Z M 210.125 337.230469 C 210.457031 337.386719 210.769531 337.574219 211.066406 337.789062 C 211.359375 338.007812 211.628906 338.25 211.875 338.519531 C 212.125 338.789062 212.339844 339.078125 212.53125 339.390625 C 212.722656 339.703125 212.878906 340.03125 213.003906 340.375 C 213.128906 340.71875 213.21875 341.070312 213.277344 341.433594 C 213.332031 341.792969 213.351562 342.15625 213.335938 342.523438 C 213.324219 342.886719 213.273438 343.25 213.1875 343.601562 C 213.101562 343.957031 212.980469 344.300781 212.828125 344.632812 C 212.675781 344.964844 212.492188 345.28125 212.277344 345.574219 C 212.0625 345.871094 211.820312 346.144531 211.554688 346.394531 C 211.285156 346.640625 210.996094 346.863281 210.683594 347.054688 C 210.371094 347.246094 210.046875 347.40625 209.703125 347.53125 C 209.359375 347.660156 209.007812 347.753906 208.648438 347.8125 C 208.289062 347.871094 207.925781 347.894531 207.558594 347.878906 C 207.195312 347.867188 206.832031 347.820312 206.476562 347.738281 C 206.121094 347.652344 205.777344 347.535156 205.445312 347.386719 L 178.609375 334.980469 C 178.402344 334.882812 178.199219 334.773438 178 334.648438 C 177.804688 334.527344 177.617188 334.394531 177.4375 334.246094 C 177.257812 334.101562 177.085938 333.945312 176.925781 333.777344 C 176.765625 333.609375 176.617188 333.433594 176.476562 333.25 C 176.339844 333.0625 176.210938 332.871094 176.097656 332.667969 C 175.984375 332.46875 175.882812 332.257812 175.792969 332.046875 C 175.703125 331.832031 175.628906 331.613281 175.566406 331.390625 C 175.503906 331.167969 175.457031 330.941406 175.425781 330.710938 C 175.390625 330.480469 175.371094 330.25 175.367188 330.019531 C 175.363281 329.789062 175.371094 329.558594 175.394531 329.328125 C 175.417969 329.097656 175.457031 328.867188 175.507812 328.644531 C 175.5625 328.417969 175.625 328.195312 175.707031 327.976562 C 175.785156 327.761719 175.878906 327.550781 175.984375 327.34375 C 176.089844 327.136719 176.207031 326.9375 176.339844 326.746094 C 176.46875 326.554688 176.613281 326.371094 176.765625 326.199219 C 176.917969 326.027344 177.082031 325.863281 177.253906 325.707031 L 196.695312 307.558594 C 196.964844 307.308594 197.253906 307.085938 197.566406 306.894531 C 197.878906 306.703125 198.207031 306.542969 198.550781 306.414062 C 198.894531 306.285156 199.25 306.191406 199.609375 306.132812 C 199.972656 306.074219 200.339844 306.050781 200.703125 306.066406 C 201.070312 306.078125 201.433594 306.128906 201.789062 306.210938 C 202.148438 306.296875 202.492188 306.414062 202.828125 306.566406 C 203.160156 306.71875 203.476562 306.902344 203.773438 307.117188 C 204.070312 307.332031 204.347656 307.574219 204.597656 307.84375 C 204.847656 308.113281 205.066406 308.402344 205.261719 308.714844 C 205.453125 309.027344 205.613281 309.355469 205.742188 309.699219 C 205.871094 310.042969 205.964844 310.398438 206.023438 310.757812 C 206.082031 311.121094 206.101562 311.484375 206.089844 311.851562 C 206.078125 312.21875 206.027344 312.582031 205.941406 312.9375 C 205.859375 313.296875 205.738281 313.640625 205.585938 313.976562 C 205.433594 314.308594 205.25 314.625 205.035156 314.921875 C 204.820312 315.21875 204.582031 315.492188 204.3125 315.742188 L 196.769531 322.785156 C 202.898438 321.855469 208.949219 320.550781 214.917969 318.875 C 220.882812 317.199219 226.726562 315.160156 232.445312 312.761719 C 238.160156 310.367188 243.707031 307.625 249.085938 304.542969 C 254.464844 301.460938 259.636719 298.058594 264.59375 294.339844 L 272.710938 302.214844 C 267.523438 306.195312 262.117188 309.84375 256.488281 313.167969 C 250.859375 316.488281 245.050781 319.460938 239.0625 322.082031 C 233.074219 324.699219 226.953125 326.949219 220.691406 328.828125 C 214.429688 330.703125 208.082031 332.199219 201.640625 333.308594 Z M 295.867188 262.652344 C 301.292969 255.195312 305.992188 247.300781 309.960938 238.972656 C 313.929688 230.644531 317.105469 222.023438 319.480469 213.109375 C 319.578125 212.757812 319.707031 212.414062 319.867188 212.085938 C 320.03125 211.753906 320.222656 211.445312 320.445312 211.152344 C 320.667969 210.863281 320.917969 210.597656 321.195312 210.355469 C 321.472656 210.113281 321.769531 209.898438 322.085938 209.714844 C 322.40625 209.53125 322.738281 209.378906 323.085938 209.261719 C 323.433594 209.144531 323.789062 209.058594 324.152344 209.011719 C 324.515625 208.964844 324.882812 208.953125 325.25 208.976562 C 325.613281 209 325.976562 209.058594 326.332031 209.152344 C 326.683594 209.25 327.027344 209.378906 327.355469 209.539062 C 327.6875 209.703125 327.996094 209.894531 328.289062 210.117188 C 328.578125 210.339844 328.847656 210.589844 329.089844 210.867188 C 329.332031 211.140625 329.542969 211.4375 329.726562 211.757812 C 329.910156 212.074219 330.0625 212.40625 330.183594 212.753906 C 330.300781 213.101562 330.382812 213.457031 330.433594 213.820312 C 330.480469 214.1875 330.492188 214.550781 330.46875 214.917969 C 330.445312 215.285156 330.386719 215.644531 330.292969 216 C 327.667969 225.835938 324.144531 235.339844 319.714844 244.507812 C 315.289062 253.671875 310.039062 262.34375 303.96875 270.511719 Z M 11.449219 209.933594 L 15.367188 201.460938 C 16.011719 205.238281 16.796875 208.988281 17.710938 212.710938 C 18.625 216.429688 19.671875 220.113281 20.847656 223.761719 C 22.027344 227.410156 23.332031 231.007812 24.765625 234.5625 C 26.199219 238.117188 27.757812 241.617188 29.441406 245.058594 C 31.125 248.503906 32.925781 251.882812 34.851562 255.195312 C 36.773438 258.511719 38.8125 261.753906 40.96875 264.921875 C 43.121094 268.089844 45.386719 271.179688 47.761719 274.1875 C 50.136719 277.195312 52.613281 280.117188 55.195312 282.949219 C 57.78125 285.78125 60.460938 288.515625 63.238281 291.15625 C 66.015625 293.796875 68.882812 296.335938 71.839844 298.773438 C 74.796875 301.210938 77.839844 303.539062 80.960938 305.757812 C 84.085938 307.980469 87.285156 310.085938 90.558594 312.078125 C 93.832031 314.070312 97.171875 315.941406 100.582031 317.699219 C 103.988281 319.453125 107.453125 321.082031 110.976562 322.589844 C 114.5 324.097656 118.074219 325.476562 121.695312 326.730469 C 125.316406 327.984375 128.976562 329.109375 132.679688 330.101562 C 133.035156 330.195312 133.394531 330.253906 133.761719 330.277344 C 134.128906 330.300781 134.492188 330.289062 134.859375 330.242188 C 135.222656 330.191406 135.578125 330.109375 135.925781 329.992188 C 136.273438 329.871094 136.605469 329.722656 136.925781 329.539062 C 137.242188 329.355469 137.539062 329.140625 137.816406 328.898438 C 138.089844 328.65625 138.339844 328.390625 138.566406 328.097656 C 138.789062 327.804688 138.980469 327.496094 139.144531 327.164062 C 139.304688 326.835938 139.433594 326.492188 139.527344 326.140625 C 139.625 325.785156 139.683594 325.421875 139.707031 325.058594 C 139.730469 324.691406 139.71875 324.324219 139.667969 323.960938 C 139.621094 323.597656 139.539062 323.242188 139.421875 322.894531 C 139.300781 322.546875 139.152344 322.210938 138.964844 321.894531 C 138.78125 321.574219 138.570312 321.277344 138.328125 321.003906 C 138.085938 320.726562 137.816406 320.476562 137.527344 320.253906 C 137.234375 320.03125 136.925781 319.835938 136.59375 319.675781 C 136.265625 319.511719 135.921875 319.386719 135.566406 319.289062 C 132.0625 318.351562 128.59375 317.289062 125.164062 316.097656 C 121.734375 314.910156 118.351562 313.597656 115.015625 312.160156 C 111.683594 310.726562 108.40625 309.171875 105.183594 307.5 C 101.960938 305.828125 98.804688 304.039062 95.714844 302.140625 C 92.621094 300.238281 89.601562 298.226562 86.65625 296.105469 C 83.710938 293.984375 80.84375 291.761719 78.058594 289.429688 C 75.273438 287.101562 72.578125 284.675781 69.96875 282.152344 C 67.359375 279.628906 64.847656 277.011719 62.429688 274.304688 C 60.007812 271.601562 57.691406 268.808594 55.476562 265.933594 C 53.257812 263.058594 51.148438 260.109375 49.148438 257.082031 C 47.144531 254.054688 45.253906 250.957031 43.476562 247.792969 C 41.699219 244.625 40.039062 241.402344 38.492188 238.117188 C 36.949219 234.832031 35.527344 231.496094 34.226562 228.105469 C 32.925781 224.71875 31.746094 221.285156 30.695312 217.8125 C 29.640625 214.339844 28.714844 210.832031 27.917969 207.289062 C 27.117188 203.75 26.449219 200.183594 25.910156 196.59375 L 32.9375 204.117188 C 33.1875 204.386719 33.460938 204.628906 33.757812 204.84375 C 34.054688 205.058594 34.371094 205.242188 34.703125 205.394531 C 35.039062 205.546875 35.382812 205.667969 35.742188 205.75 C 36.097656 205.835938 36.460938 205.882812 36.828125 205.898438 C 37.195312 205.910156 37.558594 205.886719 37.921875 205.828125 C 38.28125 205.769531 38.636719 205.675781 38.980469 205.550781 C 39.324219 205.421875 39.652344 205.261719 39.964844 205.066406 C 40.277344 204.875 40.566406 204.652344 40.835938 204.402344 C 41.105469 204.152344 41.347656 203.878906 41.5625 203.582031 C 41.777344 203.285156 41.960938 202.96875 42.113281 202.636719 C 42.265625 202.300781 42.382812 201.957031 42.46875 201.597656 C 42.550781 201.242188 42.601562 200.878906 42.613281 200.511719 C 42.628906 200.144531 42.605469 199.78125 42.546875 199.417969 C 42.488281 199.054688 42.394531 198.703125 42.265625 198.359375 C 42.136719 198.015625 41.976562 197.6875 41.785156 197.375 C 41.59375 197.0625 41.371094 196.773438 41.121094 196.503906 L 22.972656 177.0625 C 22.820312 176.890625 22.65625 176.726562 22.480469 176.574219 C 22.308594 176.417969 22.125 176.277344 21.933594 176.148438 C 21.742188 176.015625 21.542969 175.898438 21.339844 175.792969 C 21.132812 175.6875 20.921875 175.59375 20.703125 175.515625 C 20.484375 175.433594 20.261719 175.367188 20.039062 175.316406 C 19.8125 175.265625 19.585938 175.226562 19.355469 175.203125 C 19.125 175.179688 18.890625 175.167969 18.660156 175.175781 C 18.429688 175.179688 18.199219 175.199219 17.96875 175.230469 C 17.742188 175.265625 17.515625 175.3125 17.289062 175.375 C 17.066406 175.4375 16.847656 175.511719 16.636719 175.601562 C 16.421875 175.6875 16.214844 175.789062 16.011719 175.90625 C 15.8125 176.019531 15.617188 176.144531 15.433594 176.285156 C 15.246094 176.421875 15.070312 176.574219 14.902344 176.734375 C 14.734375 176.894531 14.578125 177.0625 14.433594 177.242188 C 14.289062 177.421875 14.152344 177.613281 14.03125 177.808594 C 13.90625 178.003906 13.796875 178.207031 13.699219 178.417969 L 1.296875 205.25 C 1.144531 205.585938 1.027344 205.929688 0.945312 206.285156 C 0.859375 206.640625 0.8125 207 0.800781 207.367188 C 0.789062 207.730469 0.8125 208.09375 0.871094 208.457031 C 0.929688 208.816406 1.019531 209.167969 1.148438 209.511719 C 1.277344 209.855469 1.4375 210.179688 1.628906 210.492188 C 1.820312 210.804688 2.039062 211.09375 2.289062 211.359375 C 2.535156 211.628906 2.808594 211.871094 3.105469 212.085938 C 3.402344 212.300781 3.714844 212.484375 4.046875 212.636719 C 4.378906 212.789062 4.722656 212.910156 5.078125 212.996094 C 5.433594 213.082031 5.792969 213.128906 6.160156 213.144531 C 6.523438 213.160156 6.886719 213.140625 7.25 213.082031 C 7.609375 213.027344 7.960938 212.9375 8.304688 212.8125 C 8.648438 212.6875 8.976562 212.527344 9.289062 212.339844 C 9.601562 212.148438 9.890625 211.929688 10.164062 211.683594 C 10.433594 211.4375 10.675781 211.167969 10.890625 210.871094 C 11.109375 210.578125 11.292969 210.265625 11.449219 209.933594 Z M 138.746094 11.257812 L 147.207031 15.167969 C 143.429688 15.816406 139.683594 16.597656 135.960938 17.511719 C 132.238281 18.425781 128.554688 19.472656 124.90625 20.652344 C 121.261719 21.828125 117.660156 23.132812 114.105469 24.566406 C 110.550781 26 107.050781 27.558594 103.609375 29.242188 C 100.167969 30.925781 96.789062 32.726562 93.472656 34.652344 C 90.15625 36.574219 86.914062 38.613281 83.746094 40.769531 C 80.578125 42.921875 77.488281 45.1875 74.480469 47.5625 C 71.472656 49.9375 68.550781 52.414062 65.71875 54.996094 C 62.890625 57.582031 60.152344 60.261719 57.511719 63.039062 C 54.871094 65.816406 52.332031 68.683594 49.898438 71.640625 C 47.460938 74.601562 45.132812 77.640625 42.914062 80.765625 C 40.691406 83.890625 38.585938 87.089844 36.59375 90.363281 C 34.605469 93.636719 32.730469 96.976562 30.976562 100.386719 C 29.222656 103.792969 27.59375 107.257812 26.085938 110.78125 C 24.578125 114.304688 23.199219 117.878906 21.949219 121.5 C 20.695312 125.125 19.574219 128.785156 18.582031 132.488281 C 18.488281 132.84375 18.425781 133.203125 18.402344 133.570312 C 18.378906 133.9375 18.390625 134.300781 18.441406 134.664062 C 18.488281 135.03125 18.570312 135.386719 18.691406 135.734375 C 18.808594 136.082031 18.960938 136.414062 19.144531 136.730469 C 19.328125 137.050781 19.539062 137.347656 19.78125 137.621094 C 20.023438 137.898438 20.292969 138.148438 20.582031 138.371094 C 20.875 138.59375 21.183594 138.789062 21.515625 138.949219 C 21.84375 139.113281 22.1875 139.242188 22.542969 139.335938 C 22.894531 139.429688 23.257812 139.488281 23.625 139.515625 C 23.988281 139.539062 24.355469 139.527344 24.71875 139.476562 C 25.082031 139.429688 25.4375 139.347656 25.785156 139.230469 C 26.132812 139.109375 26.46875 138.960938 26.785156 138.777344 C 27.105469 138.59375 27.402344 138.378906 27.675781 138.136719 C 27.953125 137.894531 28.203125 137.628906 28.425781 137.335938 C 28.648438 137.046875 28.84375 136.734375 29.003906 136.40625 C 29.167969 136.078125 29.296875 135.734375 29.390625 135.378906 C 30.332031 131.875 31.394531 128.40625 32.585938 124.976562 C 33.773438 121.546875 35.089844 118.167969 36.523438 114.832031 C 37.957031 111.5 39.511719 108.222656 41.1875 105 C 42.859375 101.777344 44.648438 98.621094 46.546875 95.53125 C 48.449219 92.441406 50.460938 89.421875 52.582031 86.476562 C 54.703125 83.53125 56.929688 80.664062 59.257812 77.878906 C 61.585938 75.097656 64.011719 72.398438 66.535156 69.792969 C 69.058594 67.183594 71.675781 64.667969 74.382812 62.25 C 77.085938 59.832031 79.878906 57.515625 82.753906 55.296875 C 85.625 53.082031 88.578125 50.972656 91.605469 48.96875 C 94.632812 46.964844 97.726562 45.078125 100.890625 43.296875 C 104.054688 41.519531 107.28125 39.859375 110.566406 38.316406 C 113.851562 36.769531 117.1875 35.347656 120.574219 34.046875 C 123.964844 32.742188 127.394531 31.566406 130.867188 30.511719 C 134.339844 29.457031 137.847656 28.53125 141.386719 27.734375 C 144.929688 26.933594 148.496094 26.265625 152.082031 25.722656 L 144.5625 32.746094 C 144.292969 32.996094 144.050781 33.269531 143.835938 33.566406 C 143.621094 33.863281 143.4375 34.179688 143.285156 34.511719 C 143.132812 34.847656 143.015625 35.191406 142.929688 35.550781 C 142.847656 35.90625 142.796875 36.269531 142.785156 36.636719 C 142.773438 37.003906 142.792969 37.367188 142.855469 37.730469 C 142.914062 38.089844 143.003906 38.445312 143.132812 38.789062 C 143.261719 39.132812 143.421875 39.460938 143.613281 39.773438 C 143.808594 40.082031 144.027344 40.375 144.277344 40.644531 C 144.527344 40.910156 144.804688 41.152344 145.101562 41.367188 C 145.398438 41.582031 145.714844 41.765625 146.046875 41.917969 C 146.382812 42.070312 146.726562 42.191406 147.082031 42.273438 C 147.441406 42.359375 147.800781 42.40625 148.167969 42.421875 C 148.535156 42.433594 148.898438 42.410156 149.261719 42.355469 C 149.625 42.296875 149.976562 42.203125 150.320312 42.074219 C 150.664062 41.945312 150.992188 41.785156 151.304688 41.59375 C 151.617188 41.402344 151.910156 41.179688 152.175781 40.929688 L 171.617188 22.78125 C 171.792969 22.625 171.953125 22.464844 172.109375 22.289062 C 172.261719 22.117188 172.402344 21.933594 172.535156 21.742188 C 172.664062 21.550781 172.78125 21.351562 172.886719 21.144531 C 172.996094 20.941406 173.085938 20.726562 173.167969 20.511719 C 173.246094 20.292969 173.3125 20.070312 173.363281 19.84375 C 173.417969 19.621094 173.453125 19.390625 173.476562 19.160156 C 173.5 18.929688 173.511719 18.699219 173.507812 18.46875 C 173.5 18.238281 173.480469 18.007812 173.449219 17.777344 C 173.414062 17.546875 173.367188 17.320312 173.304688 17.097656 C 173.246094 16.875 173.167969 16.65625 173.082031 16.441406 C 172.992188 16.230469 172.890625 16.019531 172.777344 15.820312 C 172.660156 15.617188 172.535156 15.425781 172.394531 15.238281 C 172.257812 15.054688 172.109375 14.878906 171.949219 14.710938 C 171.789062 14.542969 171.617188 14.386719 171.4375 14.242188 C 171.257812 14.09375 171.070312 13.960938 170.871094 13.839844 C 170.675781 13.714844 170.472656 13.605469 170.261719 13.507812 L 143.429688 1.101562 C 143.097656 0.945312 142.75 0.824219 142.390625 0.734375 C 142.035156 0.648438 141.671875 0.59375 141.300781 0.578125 C 140.933594 0.5625 140.566406 0.582031 140.203125 0.640625 C 139.839844 0.695312 139.484375 0.785156 139.136719 0.914062 C 138.792969 1.039062 138.460938 1.199219 138.144531 1.390625 C 137.832031 1.582031 137.539062 1.800781 137.265625 2.050781 C 136.996094 2.300781 136.75 2.574219 136.535156 2.875 C 136.316406 3.171875 136.132812 3.488281 135.976562 3.824219 C 135.824219 4.15625 135.703125 4.503906 135.617188 4.863281 C 135.53125 5.222656 135.480469 5.585938 135.46875 5.953125 C 135.453125 6.320312 135.476562 6.6875 135.535156 7.050781 C 135.59375 7.417969 135.6875 7.769531 135.816406 8.117188 C 135.945312 8.460938 136.105469 8.792969 136.300781 9.105469 C 136.492188 9.417969 136.714844 9.710938 136.96875 9.980469 C 137.21875 10.25 137.496094 10.492188 137.792969 10.707031 C 138.09375 10.921875 138.410156 11.105469 138.746094 11.257812 Z M 243.828125 76.214844 C 247.714844 77.140625 251.363281 78.652344 254.765625 80.75 L 261.871094 77.59375 L 270.25 85.96875 L 267.09375 93.074219 C 269.191406 96.476562 270.703125 100.125 271.628906 104.015625 L 278.878906 106.804688 L 278.878906 118.652344 L 271.625 121.445312 C 270.699219 125.332031 269.1875 128.976562 267.09375 132.382812 L 270.25 139.488281 L 261.871094 147.863281 L 254.769531 144.710938 C 251.363281 146.808594 247.71875 148.320312 243.828125 149.246094 L 241.035156 156.496094 L 229.191406 156.496094 L 226.394531 149.246094 C 222.507812 148.320312 218.863281 146.808594 215.460938 144.710938 L 208.351562 147.867188 L 199.976562 139.488281 L 203.128906 132.386719 C 201.035156 128.980469 199.523438 125.332031 198.597656 121.445312 L 191.34375 118.652344 L 191.34375 106.808594 L 198.597656 104.015625 C 199.523438 100.128906 201.035156 96.480469 203.132812 93.078125 L 199.976562 85.972656 L 208.351562 77.59375 L 215.460938 80.753906 C 218.863281 78.65625 222.507812 77.140625 226.394531 76.214844 L 229.1875 68.960938 L 241.035156 68.960938 Z M 243.828125 76.214844 " fill-opacity="1" fill-rule="evenodd"/></g><g clip-path="url(#35c89c0fb6)"><path fill="#ffffff" d="M 132.191406 410.921875 C 129.707031 413.105469 124.800781 424.390625 123.078125 428.179688 C 120.128906 434.363281 116.171875 443.652344 113.070312 449.054688 C 100.667969 470.824219 79.9375 455.476562 66.53125 446.414062 C 62.789062 443.871094 49.945312 434.625 47.007812 433.832031 C 37 431.160156 28.992188 440.65625 32.453125 449.636719 C 34.421875 454.75 44.929688 460.585938 50.523438 464.652344 L 79.429688 484.730469 C 81.375 486.074219 81.570312 489.238281 82.195312 491.523438 C 85.535156 503.660156 90.253906 519.316406 92.816406 530.679688 C 96.683594 547.65625 109.261719 597.675781 111.464844 617.578125 C 113.125 641.949219 138.433594 640.367188 136.160156 615.632812 C 134.097656 593.214844 122.832031 553.488281 120.421875 542.410156 L 125.199219 541.328125 C 129.292969 553.265625 142.339844 599.472656 153.507812 617.492188 C 163.4375 633.484375 178.332031 621.398438 174.21875 607.996094 C 165.757812 585.832031 157.8125 562.953125 150.296875 540.164062 C 147.933594 533.082031 145.628906 525.9375 143.359375 518.835938 L 141.277344 512.527344 C 138.648438 501.21875 133.824219 484.695312 130.503906 472.6875 C 129.332031 468.511719 139.058594 450.648438 141.839844 444.78125 C 145.511719 437.007812 152.667969 428.679688 153.90625 421.339844 C 155.75 410.382812 141.199219 402.980469 132.191406 410.921875 " fill-opacity="1" fill-rule="evenodd"/></g><path fill="#ffffff" d="M 108.570312 422.207031 C 106.027344 412.773438 96.210938 407.175781 86.683594 409.691406 C 77.148438 412.214844 71.496094 421.917969 74.058594 431.359375 C 76.601562 440.796875 86.402344 446.394531 95.945312 443.878906 C 105.488281 441.34375 111.136719 431.65625 108.570312 422.207031 " fill-opacity="1" fill-rule="evenodd"/><path fill="#ffffff" d="M 222.050781 367.136719 C 224.542969 369.347656 229.453125 380.609375 231.160156 384.402344 C 234.136719 390.574219 238.105469 399.875 241.179688 405.261719 C 253.605469 427.054688 274.332031 411.707031 287.699219 402.644531 C 291.476562 400.117188 304.296875 390.878906 307.261719 390.074219 C 317.269531 387.382812 325.269531 396.886719 321.808594 405.847656 C 319.828125 410.960938 309.3125 416.828125 303.734375 420.878906 L 274.84375 440.964844 C 272.894531 442.308594 272.710938 445.484375 272.058594 447.757812 C 268.738281 459.90625 264.015625 475.550781 261.433594 486.886719 C 257.597656 503.882812 245.027344 553.90625 242.785156 573.804688 C 241.148438 598.167969 215.847656 596.597656 218.109375 571.878906 C 220.179688 549.460938 231.449219 509.71875 233.824219 498.640625 L 229.097656 497.578125 C 224.96875 509.480469 211.925781 555.710938 200.753906 573.707031 C 190.839844 589.710938 175.945312 577.660156 180.03125 564.222656 C 191.15625 535.128906 201.351562 504.871094 210.90625 475.097656 L 213.007812 468.785156 C 215.640625 457.476562 220.460938 440.972656 223.78125 428.960938 C 224.914062 424.785156 215.191406 406.914062 212.457031 401.011719 C 208.777344 393.238281 201.601562 384.917969 200.359375 377.574219 C 198.507812 366.589844 213.066406 359.226562 222.050781 367.136719 " fill-opacity="1" fill-rule="evenodd"/><path fill="#ffffff" d="M 245.671875 378.433594 C 248.21875 368.992188 258.03125 363.386719 267.558594 365.933594 C 277.125 368.449219 282.757812 378.171875 280.222656 387.601562 C 277.652344 397.019531 267.84375 402.628906 258.304688 400.082031 C 248.785156 397.558594 243.105469 387.859375 245.671875 378.433594 " fill-opacity="1" fill-rule="evenodd"/><path fill="#ffffff" d="M 153.167969 380.761719 C 153.957031 379.789062 153.808594 378.363281 152.835938 377.570312 C 151.867188 376.78125 150.4375 376.925781 149.648438 377.898438 L 142.824219 386.3125 C 142.035156 387.28125 142.183594 388.710938 143.152344 389.5 C 144.125 390.289062 145.550781 390.140625 146.339844 389.167969 L 153.167969 380.761719 " fill-opacity="1" fill-rule="nonzero"/><path fill="#ffffff" d="M 101.332031 376.882812 C 100.539062 375.910156 99.117188 375.761719 98.144531 376.550781 C 97.171875 377.339844 97.027344 378.769531 97.816406 379.738281 L 104.652344 388.164062 C 105.445312 389.136719 106.871094 389.28125 107.84375 388.492188 C 108.8125 387.703125 108.960938 386.273438 108.171875 385.300781 L 101.332031 376.882812 " fill-opacity="1" fill-rule="nonzero"/><path fill="#ffffff" d="M 182.953125 395.222656 C 182.164062 394.253906 180.738281 394.105469 179.765625 394.894531 C 178.792969 395.683594 178.648438 397.113281 179.4375 398.082031 L 186.273438 406.5 C 187.066406 407.46875 188.496094 407.617188 189.464844 406.828125 C 190.433594 406.039062 190.582031 404.613281 189.792969 403.640625 L 182.953125 395.222656 " fill-opacity="1" fill-rule="nonzero"/><path fill="#ffffff" d="M 55 387.082031 C 54.210938 386.113281 52.78125 385.964844 51.8125 386.753906 C 50.839844 387.542969 50.691406 388.972656 51.480469 389.941406 L 58.304688 398.347656 C 59.097656 399.320312 60.527344 399.46875 61.496094 398.679688 C 62.464844 397.890625 62.613281 396.460938 61.824219 395.492188 L 55 387.082031 " fill-opacity="1" fill-rule="nonzero"/><g clip-path="url(#222c00bdf0)"><path fill="#ffffff" d="M 185.925781 359.367188 C 186.710938 358.390625 186.554688 356.960938 185.578125 356.179688 C 184.605469 355.394531 183.175781 355.550781 182.390625 356.523438 L 175.601562 364.925781 C 174.8125 365.902344 174.972656 367.332031 175.945312 368.113281 C 176.921875 368.902344 178.351562 368.742188 179.132812 367.769531 L 185.925781 359.367188 " fill-opacity="1" fill-rule="nonzero"/></g><path fill="#ffffff" d="M 303.839844 370.066406 C 304.628906 369.09375 304.480469 367.671875 303.511719 366.878906 C 302.539062 366.089844 301.113281 366.238281 300.324219 367.207031 L 293.5 375.628906 C 292.710938 376.601562 292.855469 378.027344 293.824219 378.816406 C 294.796875 379.605469 296.222656 379.460938 297.015625 378.492188 L 303.839844 370.066406 " fill-opacity="1" fill-rule="nonzero"/><g clip-path="url(#444f600df1)"><path fill="#ffffff" d="M 323.925781 441.914062 C 324.714844 440.945312 324.566406 439.515625 323.597656 438.726562 C 322.625 437.933594 321.199219 438.082031 320.410156 439.054688 L 313.578125 447.449219 C 312.789062 448.417969 312.933594 449.847656 313.90625 450.636719 C 314.875 451.425781 316.304688 451.28125 317.09375 450.308594 L 323.925781 441.914062 " fill-opacity="1" fill-rule="nonzero"/></g><path fill="#ffffff" d="M 196.742188 463.320312 C 197.53125 462.347656 197.386719 460.917969 196.414062 460.128906 C 195.441406 459.339844 194.019531 459.488281 193.226562 460.460938 L 186.390625 468.839844 C 185.601562 469.8125 185.746094 471.242188 186.71875 472.03125 C 187.6875 472.820312 189.117188 472.671875 189.90625 471.703125 L 196.742188 463.320312 " fill-opacity="1" fill-rule="nonzero"/><path fill="#ffffff" d="M 173.253906 436.632812 C 172.464844 435.660156 171.035156 435.515625 170.066406 436.304688 C 169.097656 437.09375 168.949219 438.519531 169.738281 439.492188 L 176.550781 447.875 C 177.339844 448.84375 178.765625 448.988281 179.738281 448.199219 C 180.710938 447.410156 180.855469 445.984375 180.066406 445.011719 L 173.253906 436.632812 " fill-opacity="1" fill-rule="nonzero"/></svg>