<svg xmlns="http://www.w3.org/2000/svg" xmlns:xlink="http://www.w3.org/1999/xlink" width="180" zoomAndPan="magnify" viewBox="0 0 135 56.999997" height="76" preserveAspectRatio="xMidYMid meet" version="1.0"><defs><clipPath id="db53486abe"><path d="M 3 0 L 131 0 L 131 47 L 3 47 Z M 3 0 " clip-rule="nonzero"/></clipPath><clipPath id="f51ebf0a1b"><path d="M 0 11.757812 L 130.71875 -0.0234375 L 134.757812 44.796875 L 4.039062 56.578125 Z M 0 11.757812 " clip-rule="nonzero"/></clipPath><clipPath id="72cd153c5c"><path d="M 130.464844 0 L -0.257812 11.78125 L 3.78125 56.597656 L 134.503906 44.820312 Z M 130.464844 0 " clip-rule="nonzero"/></clipPath><clipPath id="ed1b390625"><path d="M 1 27 L 29 27 L 29 56 L 1 56 Z M 1 27 " clip-rule="nonzero"/></clipPath><clipPath id="ac54657beb"><path d="M 0 11.757812 L 130.71875 -0.0234375 L 134.757812 44.796875 L 4.039062 56.578125 Z M 0 11.757812 " clip-rule="nonzero"/></clipPath><clipPath id="8707c07b34"><path d="M 130.464844 0 L -0.257812 11.78125 L 3.78125 56.597656 L 134.503906 44.820312 Z M 130.464844 0 " clip-rule="nonzero"/></clipPath><clipPath id="12b3497370"><path d="M 3 0 L 131 0 L 131 47 L 3 47 Z M 3 0 " clip-rule="nonzero"/></clipPath><clipPath id="9df8a2423f"><path d="M 0 11.757812 L 130.71875 -0.0234375 L 134.757812 44.796875 L 4.039062 56.578125 Z M 0 11.757812 " clip-rule="nonzero"/></clipPath><clipPath id="f6a53aaa13"><path d="M 130.464844 0 L -0.257812 11.78125 L 3.78125 56.597656 L 134.503906 44.820312 Z M 130.464844 0 " clip-rule="nonzero"/></clipPath><clipPath id="e62ecd82c8"><path d="M 1 27 L 29 27 L 29 56 L 1 56 Z M 1 27 " clip-rule="nonzero"/></clipPath><clipPath id="c6ebd5d456"><path d="M 0 11.757812 L 130.71875 -0.0234375 L 134.757812 44.796875 L 4.039062 56.578125 Z M 0 11.757812 " clip-rule="nonzero"/></clipPath><clipPath id="30a0a0e4a7"><path d="M 130.464844 0 L -0.257812 11.78125 L 3.78125 56.597656 L 134.503906 44.820312 Z M 130.464844 0 " clip-rule="nonzero"/></clipPath></defs><g clip-path="url(#db53486abe)"><g clip-path="url(#f51ebf0a1b)"><g clip-path="url(#72cd153c5c)"><path fill="#1d3b79" d="M 79.859375 42.976562 C 86.878906 42.34375 93.773438 40.46875 99.964844 37.492188 C 107.019531 34.101562 113.527344 29.101562 118.792969 23.035156 C 124.054688 16.96875 128.085938 9.816406 130.449219 2.355469 C 130.515625 2.148438 130.539062 1.9375 130.523438 1.722656 C 130.503906 1.507812 130.445312 1.304688 130.347656 1.113281 C 130.25 0.921875 130.117188 0.753906 129.953125 0.617188 C 129.785156 0.476562 129.601562 0.375 129.394531 0.308594 C 129.191406 0.246094 128.980469 0.222656 128.765625 0.242188 C 128.550781 0.257812 128.347656 0.320312 128.15625 0.417969 C 127.964844 0.519531 127.800781 0.652344 127.660156 0.816406 C 127.523438 0.984375 127.421875 1.171875 127.359375 1.375 C 122.835938 15.667969 112.074219 28.078125 98.558594 34.574219 C 85.484375 40.859375 69.6875 41.679688 56.003906 36.835938 C 57.746094 33.617188 58.023438 30.105469 56.71875 27.390625 C 55.84375 25.578125 54.128906 24.15625 52.125 23.59375 C 50.382812 23.105469 48.65625 23.332031 47.269531 24.234375 C 45.972656 25.078125 45.066406 26.445312 44.71875 28.089844 C 44.511719 29.117188 44.503906 30.144531 44.699219 31.171875 C 44.894531 32.199219 45.273438 33.152344 45.839844 34.035156 C 47.113281 35.980469 48.976562 37.28125 50.917969 38.253906 C 48.117188 41.035156 43.941406 42.871094 39.324219 43.226562 C 33.394531 43.6875 27.433594 41.9375 22.382812 40.164062 C 20.738281 39.585938 15.929688 37.226562 12.066406 35.328125 C 9.347656 33.996094 6.996094 32.84375 5.855469 32.351562 C 5.65625 32.261719 5.449219 32.214844 5.234375 32.210938 C 5.015625 32.207031 4.804688 32.242188 4.605469 32.320312 C 4.402344 32.402344 4.222656 32.515625 4.066406 32.667969 C 3.910156 32.816406 3.789062 32.992188 3.703125 33.191406 C 3.617188 33.390625 3.574219 33.597656 3.574219 33.816406 C 3.570312 34.035156 3.613281 34.242188 3.695312 34.441406 C 3.773438 34.644531 3.894531 34.820312 4.046875 34.976562 C 4.199219 35.128906 4.375 35.246094 4.578125 35.328125 C 5.640625 35.789062 8.070312 36.976562 10.632812 38.238281 C 14.785156 40.273438 19.480469 42.582031 21.304688 43.222656 C 26.675781 45.105469 33.042969 46.964844 39.570312 46.457031 C 42.878906 46.195312 46.09375 45.265625 48.867188 43.757812 C 50.863281 42.6875 52.605469 41.300781 54.089844 39.59375 C 61.238281 42.246094 69.109375 43.480469 76.910156 43.167969 C 77.894531 43.128906 78.878906 43.066406 79.859375 42.976562 Z M 50.089844 26.597656 C 50.484375 26.566406 50.871094 26.605469 51.25 26.714844 C 52.355469 27.019531 53.332031 27.820312 53.800781 28.796875 C 54.675781 30.613281 54.398438 33.101562 53.066406 35.457031 C 53.03125 35.515625 52.996094 35.574219 52.964844 35.632812 C 51.230469 34.835938 49.558594 33.796875 48.550781 32.257812 C 47.867188 31.179688 47.644531 30.015625 47.890625 28.761719 C 48.007812 28.195312 48.304688 27.429688 49.03125 26.957031 C 49.355469 26.75 49.707031 26.628906 50.089844 26.597656 Z M 50.089844 26.597656 " fill-opacity="1" fill-rule="nonzero"/></g></g></g><g clip-path="url(#ed1b390625)"><g clip-path="url(#ac54657beb)"><g clip-path="url(#8707c07b34)"><path fill="#1d3b79" d="M 11.027344 55.78125 C 11.101562 55.773438 11.179688 55.761719 11.253906 55.742188 C 11.460938 55.695312 11.652344 55.605469 11.828125 55.480469 C 12.003906 55.355469 12.148438 55.203125 12.261719 55.019531 C 12.375 54.835938 12.445312 54.640625 12.480469 54.429688 C 12.515625 54.214844 12.507812 54.003906 12.460938 53.796875 C 10.886719 47.082031 8.714844 40.5625 5.953125 34.242188 L 26.800781 30.664062 C 27.015625 30.628906 27.210938 30.550781 27.390625 30.4375 C 27.574219 30.324219 27.726562 30.175781 27.851562 30.003906 C 27.976562 29.828125 28.0625 29.632812 28.109375 29.425781 C 28.15625 29.214844 28.164062 29.003906 28.125 28.792969 C 28.089844 28.582031 28.015625 28.382812 27.898438 28.203125 C 27.785156 28.019531 27.640625 27.867188 27.464844 27.742188 C 27.289062 27.617188 27.09375 27.535156 26.886719 27.484375 C 26.675781 27.4375 26.464844 27.433594 26.253906 27.46875 L 3.34375 31.402344 C 3.09375 31.445312 2.871094 31.539062 2.664062 31.6875 C 2.460938 31.835938 2.300781 32.019531 2.183594 32.242188 C 2.066406 32.464844 2.003906 32.703125 1.996094 32.957031 C 1.992188 33.207031 2.039062 33.449219 2.144531 33.675781 C 5.230469 40.386719 7.617188 47.339844 9.304688 54.53125 C 9.347656 54.722656 9.425781 54.898438 9.53125 55.0625 C 9.640625 55.222656 9.773438 55.363281 9.933594 55.476562 C 10.089844 55.59375 10.265625 55.675781 10.453125 55.726562 C 10.640625 55.78125 10.832031 55.796875 11.027344 55.78125 Z M 11.027344 55.78125 " fill-opacity="1" fill-rule="nonzero"/></g></g></g><g clip-path="url(#12b3497370)"><g clip-path="url(#9df8a2423f)"><g clip-path="url(#f6a53aaa13)"><path fill="#1d3b79" d="M 79.859375 42.976562 C 86.878906 42.34375 93.773438 40.46875 99.964844 37.492188 C 107.019531 34.101562 113.527344 29.101562 118.792969 23.035156 C 124.054688 16.96875 128.085938 9.816406 130.449219 2.355469 C 130.515625 2.148438 130.539062 1.9375 130.523438 1.722656 C 130.503906 1.507812 130.445312 1.304688 130.347656 1.113281 C 130.25 0.921875 130.117188 0.753906 129.953125 0.617188 C 129.785156 0.476562 129.601562 0.375 129.394531 0.308594 C 129.191406 0.246094 128.980469 0.222656 128.765625 0.242188 C 128.550781 0.257812 128.347656 0.320312 128.15625 0.417969 C 127.964844 0.519531 127.800781 0.652344 127.660156 0.816406 C 127.523438 0.984375 127.421875 1.171875 127.359375 1.375 C 122.835938 15.667969 112.074219 28.078125 98.558594 34.574219 C 85.484375 40.859375 69.6875 41.679688 56.003906 36.835938 C 57.746094 33.617188 58.023438 30.105469 56.71875 27.390625 C 55.84375 25.578125 54.128906 24.15625 52.125 23.59375 C 50.382812 23.105469 48.65625 23.332031 47.269531 24.234375 C 45.972656 25.078125 45.066406 26.445312 44.71875 28.089844 C 44.511719 29.117188 44.503906 30.144531 44.699219 31.171875 C 44.894531 32.199219 45.273438 33.152344 45.839844 34.035156 C 47.113281 35.980469 48.976562 37.28125 50.917969 38.253906 C 48.117188 41.035156 43.941406 42.871094 39.324219 43.226562 C 33.394531 43.6875 27.433594 41.9375 22.382812 40.164062 C 20.738281 39.585938 15.929688 37.226562 12.066406 35.328125 C 9.347656 33.996094 6.996094 32.84375 5.855469 32.351562 C 5.65625 32.261719 5.449219 32.214844 5.234375 32.210938 C 5.015625 32.207031 4.804688 32.242188 4.605469 32.320312 C 4.402344 32.402344 4.222656 32.515625 4.066406 32.667969 C 3.910156 32.816406 3.789062 32.992188 3.703125 33.191406 C 3.617188 33.390625 3.574219 33.597656 3.574219 33.816406 C 3.570312 34.035156 3.613281 34.242188 3.695312 34.441406 C 3.773438 34.644531 3.894531 34.820312 4.046875 34.976562 C 4.199219 35.128906 4.375 35.246094 4.578125 35.328125 C 5.640625 35.789062 8.070312 36.976562 10.632812 38.238281 C 14.785156 40.273438 19.480469 42.582031 21.304688 43.222656 C 26.675781 45.105469 33.042969 46.964844 39.570312 46.457031 C 42.878906 46.195312 46.09375 45.265625 48.867188 43.757812 C 50.863281 42.6875 52.605469 41.300781 54.089844 39.59375 C 61.238281 42.246094 69.109375 43.480469 76.910156 43.167969 C 77.894531 43.128906 78.878906 43.066406 79.859375 42.976562 Z M 50.089844 26.597656 C 50.484375 26.566406 50.871094 26.605469 51.25 26.714844 C 52.355469 27.019531 53.332031 27.820312 53.800781 28.796875 C 54.675781 30.613281 54.398438 33.101562 53.066406 35.457031 C 53.03125 35.515625 52.996094 35.574219 52.964844 35.632812 C 51.230469 34.835938 49.558594 33.796875 48.550781 32.257812 C 47.867188 31.179688 47.644531 30.015625 47.890625 28.761719 C 48.007812 28.195312 48.304688 27.429688 49.03125 26.957031 C 49.355469 26.75 49.707031 26.628906 50.089844 26.597656 Z M 50.089844 26.597656 " fill-opacity="1" fill-rule="nonzero"/></g></g></g><g clip-path="url(#e62ecd82c8)"><g clip-path="url(#c6ebd5d456)"><g clip-path="url(#30a0a0e4a7)"><path fill="#1d3b79" d="M 11.027344 55.78125 C 11.101562 55.773438 11.179688 55.761719 11.253906 55.742188 C 11.460938 55.695312 11.652344 55.605469 11.828125 55.480469 C 12.003906 55.355469 12.148438 55.203125 12.261719 55.019531 C 12.375 54.835938 12.445312 54.640625 12.480469 54.429688 C 12.515625 54.214844 12.507812 54.003906 12.460938 53.796875 C 10.886719 47.082031 8.714844 40.5625 5.953125 34.242188 L 26.800781 30.664062 C 27.015625 30.628906 27.210938 30.550781 27.390625 30.4375 C 27.574219 30.324219 27.726562 30.175781 27.851562 30.003906 C 27.976562 29.828125 28.0625 29.632812 28.109375 29.425781 C 28.15625 29.214844 28.164062 29.003906 28.125 28.792969 C 28.089844 28.582031 28.015625 28.382812 27.898438 28.203125 C 27.785156 28.019531 27.640625 27.867188 27.464844 27.742188 C 27.289062 27.617188 27.09375 27.535156 26.886719 27.484375 C 26.675781 27.4375 26.464844 27.433594 26.253906 27.46875 L 3.34375 31.402344 C 3.09375 31.445312 2.871094 31.539062 2.664062 31.6875 C 2.460938 31.835938 2.300781 32.019531 2.183594 32.242188 C 2.066406 32.464844 2.003906 32.703125 1.996094 32.957031 C 1.992188 33.207031 2.039062 33.449219 2.144531 33.675781 C 5.230469 40.386719 7.617188 47.339844 9.304688 54.53125 C 9.347656 54.722656 9.425781 54.898438 9.53125 55.0625 C 9.640625 55.222656 9.773438 55.363281 9.933594 55.476562 C 10.089844 55.59375 10.265625 55.675781 10.453125 55.726562 C 10.640625 55.78125 10.832031 55.796875 11.027344 55.78125 Z M 11.027344 55.78125 " fill-opacity="1" fill-rule="nonzero"/></g></g></g></svg>