<svg xmlns="http://www.w3.org/2000/svg" xmlns:xlink="http://www.w3.org/1999/xlink" width="346" zoomAndPan="magnify" viewBox="0 0 259.5 248.250006" height="331" preserveAspectRatio="xMidYMid meet" version="1.0"><defs><clipPath id="87713ddff5"><path d="M 224 116 L 258.113281 116 L 258.113281 138 L 224 138 Z M 224 116 " clip-rule="nonzero"/></clipPath><clipPath id="1be7c7f459"><path d="M 0.140625 153 L 58 153 L 58 212 L 0.140625 212 Z M 0.140625 153 " clip-rule="nonzero"/></clipPath><clipPath id="b396f6ada2"><path d="M 197 107 L 258.582031 107 L 258.582031 169 L 197 169 Z M 197 107 " clip-rule="nonzero"/></clipPath><clipPath id="939819f076"><path d="M 224 116 L 258.582031 116 L 258.582031 139 L 224 139 Z M 224 116 " clip-rule="nonzero"/></clipPath><clipPath id="01a468e51e"><path d="M 166 213 L 185 213 L 185 246.578125 L 166 246.578125 Z M 166 213 " clip-rule="nonzero"/></clipPath><clipPath id="e9d6a8a6aa"><path d="M 166 214 L 178 214 L 178 246.578125 L 166 246.578125 Z M 166 214 " clip-rule="nonzero"/></clipPath><clipPath id="597bdec48b"><path d="M 177 215 L 185 215 L 185 246.578125 L 177 246.578125 Z M 177 215 " clip-rule="nonzero"/></clipPath><clipPath id="ce356ba7a2"><path d="M 0.609375 154 L 59 154 L 59 212 L 0.609375 212 Z M 0.609375 154 " clip-rule="nonzero"/></clipPath></defs><path fill="#a12024" d="M 227.222656 107.34375 C 244.074219 107.34375 257.730469 121 257.730469 137.851562 C 257.730469 154.699219 244.074219 168.359375 227.222656 168.359375 C 210.394531 168.359375 196.738281 154.699219 196.738281 137.851562 C 196.738281 121 210.394531 107.34375 227.222656 107.34375 Z M 227.222656 107.34375 " fill-opacity="1" fill-rule="evenodd"/><path fill="#cccccc" d="M 224.179688 105.445312 C 241.03125 105.445312 254.664062 119.101562 254.664062 135.949219 C 254.664062 152.800781 241.03125 166.433594 224.179688 166.433594 C 207.328125 166.433594 193.671875 152.800781 193.671875 135.949219 C 193.671875 119.101562 207.328125 105.445312 224.179688 105.445312 Z M 224.179688 105.445312 " fill-opacity="1" fill-rule="evenodd"/><path fill="#e9e9e9" d="M 224.179688 112.894531 C 236.902344 112.894531 247.242188 123.207031 247.242188 135.949219 C 247.242188 148.671875 236.902344 159.007812 224.179688 159.007812 C 211.433594 159.007812 201.121094 148.671875 201.121094 135.949219 C 201.121094 123.207031 211.433594 112.894531 224.179688 112.894531 Z M 224.179688 112.894531 " fill-opacity="1" fill-rule="evenodd"/><path fill="#bf262b" d="M 224.179688 159.007812 C 211.433594 159.007812 201.121094 148.671875 201.121094 135.949219 C 201.121094 123.207031 211.433594 112.894531 224.179688 112.894531 C 236.902344 112.894531 247.242188 123.207031 247.242188 135.949219 C 247.242188 148.671875 236.902344 159.007812 224.179688 159.007812 Z M 254.664062 135.949219 C 254.664062 119.101562 241.03125 105.445312 224.179688 105.445312 C 207.328125 105.445312 193.671875 119.101562 193.671875 135.949219 C 193.671875 152.800781 207.328125 166.433594 224.179688 166.433594 C 241.03125 166.433594 254.664062 152.800781 254.664062 135.949219 Z M 254.664062 135.949219 " fill-opacity="1" fill-rule="evenodd"/><path fill="#bf262b" d="M 208.570312 135.949219 C 208.570312 144.566406 215.566406 151.558594 224.179688 151.558594 C 232.796875 151.558594 239.789062 144.566406 239.789062 135.949219 C 239.789062 127.335938 232.796875 120.34375 224.179688 120.34375 C 215.566406 120.34375 208.570312 127.335938 208.570312 135.949219 Z M 224.179688 144.136719 C 219.671875 144.136719 215.996094 140.460938 215.996094 135.949219 C 215.996094 131.441406 219.671875 127.765625 224.179688 127.765625 C 228.691406 127.765625 232.367188 131.441406 232.367188 135.949219 C 232.367188 140.460938 228.691406 144.136719 224.179688 144.136719 Z M 224.179688 144.136719 " fill-opacity="1" fill-rule="evenodd"/><path fill="#bf262b" d="M 224.179688 132.351562 C 226.15625 132.351562 227.753906 133.976562 227.753906 135.949219 C 227.753906 137.925781 226.15625 139.523438 224.179688 139.523438 C 222.203125 139.523438 220.582031 137.925781 220.582031 135.949219 C 220.582031 133.976562 222.203125 132.351562 224.179688 132.351562 Z M 224.179688 132.351562 " fill-opacity="1" fill-rule="evenodd"/><g clip-path="url(#87713ddff5)"><path fill="#1a1a1a" d="M 255.527344 116.210938 L 254.945312 119.582031 L 258.164062 120.824219 L 250.484375 125.132812 L 247.847656 124.574219 L 225.09375 137.523438 L 224.257812 136.027344 L 246.988281 123.105469 L 247.847656 120.496094 Z M 255.527344 116.210938 " fill-opacity="1" fill-rule="evenodd"/></g><path fill="#1a1a1a" d="M 222.507812 98.90625 L 225.015625 101.261719 L 227.804688 99.238281 L 227.195312 108.027344 L 225.320312 109.929688 L 223.699219 136.050781 L 221.976562 135.949219 L 223.597656 109.851562 L 221.898438 107.699219 Z M 222.507812 98.90625 " fill-opacity="1" fill-rule="evenodd"/><path fill="#343339" d="M 130.191406 34.625 L 195.394531 38.628906 C 197.320312 38.753906 198.890625 39.617188 200.082031 40.960938 C 200.03125 40.882812 199.980469 40.832031 199.929688 40.78125 C 203.90625 41.667969 209.660156 49.296875 207.277344 56.71875 L 150.210938 234.464844 C 148.308594 240.367188 136.527344 242.976562 130.417969 241.785156 L 66.355469 229.496094 C 59.589844 228.179688 54.699219 219.136719 56.195312 215.183594 C 55.96875 213.28125 56.144531 211.304688 56.777344 209.480469 L 115.722656 41.414062 C 117.773438 35.539062 123.984375 34.246094 130.191406 34.625 Z M 130.191406 34.625 " fill-opacity="1" fill-rule="evenodd"/><path fill="#343339" d="M 130.191406 34.625 L 195.394531 38.628906 C 201.601562 39.007812 204.085938 47.191406 202.183594 53.121094 L 145.089844 230.839844 C 143.191406 236.769531 136.703125 238.871094 130.621094 237.632812 L 63.542969 223.949219 C 57.460938 222.707031 54.726562 215.359375 56.777344 209.480469 L 115.722656 41.414062 C 117.773438 35.539062 123.984375 34.246094 130.191406 34.625 Z M 130.191406 34.625 " fill-opacity="1" fill-rule="evenodd"/><path fill="#32bfd8" d="M 128.847656 37.945312 C 125.425781 37.742188 120.15625 37.867188 118.8125 41.769531 L 60.960938 210.949219 C 59.945312 213.914062 60.832031 218.882812 64.429688 219.617188 L 132.675781 233.195312 C 136.121094 233.882812 140.835938 233.273438 142.050781 229.398438 L 197.953125 51.753906 C 198.6875 49.371094 197.066406 44.226562 193.796875 43.925781 Z M 128.847656 37.945312 " fill-opacity="1" fill-rule="evenodd"/><path fill="#333333" d="M 137.640625 38.730469 L 181.960938 42.605469 C 181.152344 46.253906 178.566406 49.902344 174.589844 49.574219 L 141.722656 46.863281 C 138.679688 46.609375 137.515625 45.316406 137.566406 42.277344 Z M 137.640625 38.730469 " fill-opacity="1" fill-rule="evenodd"/><path fill="#0b0b0b" d="M 85.261719 220.503906 L 114.453125 225.570312 C 114.734375 225.621094 114.910156 225.875 114.859375 226.128906 C 114.808594 226.382812 114.554688 226.558594 114.300781 226.507812 L 85.109375 221.441406 C 84.832031 221.390625 84.652344 221.160156 84.703125 220.882812 C 84.753906 220.628906 85.007812 220.453125 85.261719 220.503906 Z M 85.261719 220.503906 " fill-opacity="1" fill-rule="evenodd"/><path fill="#0b0b0b" d="M 199.929688 40.78125 C 203.90625 41.667969 209.660156 49.296875 207.277344 56.71875 L 150.210938 234.464844 C 148.308594 240.367188 136.527344 242.976562 130.417969 241.785156 L 66.355469 229.496094 C 59.589844 228.179688 54.699219 219.136719 56.195312 215.183594 C 56.753906 219.335938 59.363281 223.113281 63.542969 223.949219 L 130.621094 237.632812 C 136.703125 238.871094 143.191406 236.769531 145.089844 230.839844 L 202.183594 53.121094 C 203.503906 48.964844 202.691406 43.671875 199.929688 40.78125 Z M 199.929688 40.78125 " fill-opacity="1" fill-rule="evenodd"/><path fill="#e6e6e6" d="M 117.089844 185.636719 C 114.65625 184.296875 111.871094 183.535156 108.980469 183.484375 C 111.085938 181.660156 111.996094 178.773438 111.3125 176.0625 C 110.628906 173.347656 108.449219 171.273438 105.738281 170.664062 C 103 170.054688 100.164062 171.042969 98.386719 173.199219 C 99.425781 168.128906 97.578125 162.886719 93.597656 159.566406 C 89.621094 156.246094 84.121094 155.359375 79.304688 157.3125 L 60.960938 210.949219 C 59.945312 213.914062 60.832031 218.882812 64.429688 219.617188 L 128.1875 232.285156 C 132.371094 229.800781 134.421875 224.835938 133.230469 220.121094 C 132.015625 215.410156 127.859375 212.015625 122.996094 211.8125 C 126.921875 206.464844 127.53125 199.371094 124.566406 193.417969 C 122.917969 190.046875 120.28125 187.359375 117.089844 185.636719 Z M 85.261719 220.503906 L 114.453125 225.570312 C 114.734375 225.621094 114.910156 225.875 114.859375 226.128906 C 114.808594 226.382812 114.554688 226.558594 114.300781 226.507812 L 85.109375 221.441406 C 84.832031 221.390625 84.652344 221.160156 84.703125 220.882812 C 84.753906 220.628906 85.007812 220.453125 85.261719 220.503906 Z M 85.261719 220.503906 " fill-opacity="1" fill-rule="evenodd"/><path fill="#ffffff" d="M 128.519531 177.9375 C 123.5 177.9375 118.992188 180.976562 117.089844 185.636719 C 120.28125 187.359375 122.917969 190.046875 124.566406 193.417969 C 127.53125 199.371094 126.921875 206.464844 122.996094 211.8125 C 127.859375 212.015625 132.015625 215.410156 133.230469 220.121094 C 134.421875 224.835938 132.371094 229.800781 128.1875 232.285156 L 132.675781 233.195312 C 136.121094 233.882812 140.835938 233.273438 142.050781 229.398438 L 160.371094 171.171875 C 157.964844 171.042969 155.660156 172.261719 154.417969 174.3125 C 153.148438 176.390625 153.097656 178.972656 154.316406 181.050781 C 152.1875 178.542969 148.765625 177.582031 145.625 178.570312 C 142.480469 179.558594 140.25 182.34375 139.972656 185.613281 C 138.070312 180.976562 133.535156 177.9375 128.519531 177.9375 Z M 128.519531 177.9375 " fill-opacity="1" fill-rule="evenodd"/><path fill="#faaf3b" d="M 126.644531 153.230469 C 135.257812 173.273438 139.542969 183.28125 139.542969 183.28125 C 137.007812 153.207031 135.742188 138.179688 135.742188 138.179688 C 128.621094 140.359375 124.996094 141.425781 124.84375 141.347656 C 120.789062 123.382812 118.558594 114.488281 118.152344 114.667969 L 105.964844 94.195312 L 101.65625 118.824219 C 108.5 143.984375 111.921875 156.574219 111.921875 156.574219 C 121.726562 154.347656 126.644531 153.230469 126.644531 153.230469 Z M 126.644531 153.230469 " fill-opacity="1" fill-rule="evenodd"/><path fill="#f0f0f0" d="M 111.996094 81.703125 C 114.480469 53.628906 105.253906 31.230469 82.5 8.324219 C 74.769531 0.546875 76.113281 0.167969 73.808594 10.882812 C 66.964844 42.402344 71.25 66.273438 88.453125 88.570312 Z M 111.996094 81.703125 " fill-opacity="1" fill-rule="evenodd"/><path fill="#bf262b" d="M 111.996094 81.625 L 88.402344 88.519531 L 90.179688 94.550781 L 113.769531 87.65625 Z M 111.996094 81.625 " fill-opacity="1" fill-rule="evenodd"/><path fill="#bf262b" d="M 112.402344 72.050781 C 112.324219 66.675781 111.792969 61.484375 110.753906 56.464844 L 125.730469 64.625 L 127.453125 81.957031 L 122.714844 80.308594 L 122.03125 75.417969 Z M 112.402344 72.050781 " fill-opacity="1" fill-rule="evenodd"/><path fill="#bf262b" d="M 76.011719 66.90625 C 77.863281 71.667969 80.195312 76.28125 83.03125 80.816406 L 76.925781 88.59375 L 78.976562 93.105469 L 75.886719 97.03125 L 67.980469 81.476562 Z M 76.011719 66.90625 " fill-opacity="1" fill-rule="evenodd"/><path fill="#bf262b" d="M 91.292969 17.953125 C 85.996094 22.867188 78.699219 24.996094 71.601562 23.703125 C 72.109375 19.574219 72.84375 15.292969 73.808594 10.882812 C 76.113281 0.167969 74.769531 0.546875 82.5 8.324219 C 85.691406 11.542969 88.632812 14.734375 91.292969 17.953125 Z M 91.292969 17.953125 " fill-opacity="1" fill-rule="evenodd"/><path fill="#bf262b" d="M 82.121094 23.171875 C 78.75 24.136719 75.152344 24.363281 71.601562 23.703125 C 72.109375 19.574219 72.84375 15.292969 73.808594 10.882812 C 74.972656 5.539062 75.203125 2.953125 76.113281 2.675781 Z M 82.121094 23.171875 " fill-opacity="1" fill-rule="evenodd"/><path fill="#f8fae5" d="M 71.601562 23.703125 C 75.152344 24.363281 78.75 24.136719 82.121094 23.171875 L 100.210938 85.074219 L 88.402344 88.519531 L 88.429688 88.542969 C 86.453125 85.984375 84.652344 83.425781 83.03125 80.816406 C 80.195312 76.28125 77.863281 71.667969 76.011719 66.90625 C 70.96875 53.855469 69.574219 39.792969 71.601562 23.703125 Z M 71.601562 23.703125 " fill-opacity="1" fill-rule="evenodd"/><path fill="#bf262b" d="M 84.855469 32.472656 C 78.546875 34.320312 74.921875 40.933594 76.773438 47.242188 C 78.597656 53.550781 85.210938 57.152344 91.519531 55.328125 C 97.832031 53.476562 101.453125 46.863281 99.605469 40.554688 C 97.753906 34.269531 91.140625 30.648438 84.855469 32.472656 Z M 84.855469 32.472656 " fill-opacity="1" fill-rule="evenodd"/><path fill="#cacaca" d="M 86.097656 36.804688 C 82.195312 37.96875 79.941406 42.050781 81.105469 45.976562 C 82.246094 49.878906 86.324219 52.132812 90.253906 50.992188 C 94.15625 49.851562 96.410156 45.75 95.269531 41.820312 C 94.132812 37.917969 90.027344 35.664062 86.097656 36.804688 Z M 86.097656 36.804688 " fill-opacity="1" fill-rule="evenodd"/><path fill="#faaf3b" d="M 112.023438 88.164062 C 113.035156 88.441406 113.261719 89.40625 114.402344 90.039062 C 114.53125 90.113281 115.898438 91.101562 116.277344 91.457031 C 116.683594 91.839844 121.980469 96.195312 122.945312 98.199219 C 123.121094 98.601562 112.65625 94.195312 117.902344 99.1875 C 118.355469 99.640625 120.433594 102.199219 120.5625 102.605469 C 120.765625 103.289062 123.703125 108.992188 123.097656 108.230469 C 121.195312 105.875 119.09375 105.140625 118.105469 104.582031 C 117.292969 104.152344 117.394531 104.101562 116.429688 104.050781 C 116.175781 103.1875 115.949219 104.152344 116.128906 104.785156 C 116.53125 106.152344 116.378906 106.964844 116.734375 108.15625 C 117.597656 111.121094 118.761719 114.4375 118.964844 117.503906 L 118.941406 117.886719 C 118.914062 118.847656 119.09375 119.582031 119.269531 121.332031 C 119.292969 121.8125 117.039062 119.785156 116.734375 119.40625 C 116.480469 119.101562 114.808594 117.300781 114.429688 117.175781 C 112.984375 116.667969 112.933594 116.949219 112.757812 118.417969 L 112.605469 118.722656 C 112.605469 118.773438 112.605469 119.507812 112.605469 119.609375 C 112.628906 120.039062 112.578125 122.625 112.527344 122.800781 C 112.375 123.257812 112.476562 123.585938 112.324219 123.863281 L 111.871094 125.257812 C 111.386719 126.296875 111.71875 127.210938 110.273438 127.613281 C 108.320312 128.199219 108.296875 129.085938 107.6875 126.980469 C 107.410156 126.09375 106.828125 125.539062 106.421875 124.449219 C 106.117188 123.613281 106.015625 123.890625 105.710938 122.875 C 105.054688 120.648438 104.648438 117.859375 102.570312 116.464844 C 102.441406 116.363281 102.0625 116.363281 101.9375 116.390625 C 100.796875 116.71875 99.375 119.152344 98.589844 120.164062 C 98.085938 120.824219 97.398438 121.710938 97.121094 122.472656 C 96.945312 122.953125 96.996094 123.460938 96.308594 122.726562 C 95.878906 122.269531 94.992188 118.542969 95.144531 117.886719 C 95.269531 117.226562 95.296875 116.617188 95.601562 115.960938 L 96.03125 114.4375 C 96.058594 114.414062 96.488281 110.4375 96.460938 110.285156 C 96.359375 109.398438 96.234375 109.015625 95.957031 108.128906 C 95.144531 108.382812 91.925781 112.3125 91.394531 111.878906 C 91.117188 111.652344 93.371094 105.773438 93.371094 105.75 L 93.523438 104.9375 C 93.777344 103.796875 94.15625 103.214844 93.21875 102.226562 C 93.015625 102.300781 93.242188 102.101562 92.609375 102.277344 C 91.316406 102.65625 90 103.824219 87.871094 105.925781 C 87.59375 106.203125 89.289062 101.214844 90.027344 99.109375 C 90.179688 98.753906 90.078125 98.351562 90.40625 98.25 C 90.507812 97.691406 91.875 97.183594 91.671875 96.476562 C 91.417969 95.613281 91.367188 96.296875 91.039062 95.15625 C 90.886719 94.675781 90.886719 94.851562 91.089844 94.269531 Z M 112.023438 88.164062 " fill-opacity="1" fill-rule="evenodd"/><path fill="#a7c500" d="M 109.867188 88.773438 C 110.097656 89.558594 110.296875 89.457031 110.855469 89.9375 C 111.234375 90.265625 112.023438 90.824219 112.148438 91.253906 C 112.273438 91.710938 111.617188 91.761719 111.335938 92.117188 C 111.210938 92.292969 111.109375 92.21875 111.035156 92.269531 L 110.832031 92.546875 C 110.375 92.675781 110.753906 92.953125 110.730469 93.15625 C 110.703125 93.332031 110.527344 93.230469 110.804688 93.890625 C 111.183594 94.800781 112.554688 96.726562 113.1875 97.4375 C 113.617188 97.945312 113.871094 98.449219 114.328125 98.933594 C 114.429688 99.058594 114.683594 99.539062 114.453125 99.617188 C 114.378906 99.640625 113.796875 99.792969 113.796875 99.792969 L 113.160156 99.769531 C 113.0625 99.769531 112.199219 99.4375 112.046875 99.386719 C 111.667969 99.261719 111.515625 99.464844 111.136719 99.160156 C 111.109375 99.136719 109.917969 99.109375 109.867188 99.109375 C 109.511719 99.210938 108.652344 99.4375 108.574219 99.84375 C 108.398438 100.859375 109.007812 102.988281 109.410156 103.898438 C 109.917969 105.011719 110.121094 105.570312 110.476562 106.789062 C 110.628906 107.34375 112.097656 111.980469 112.023438 112.335938 C 111.972656 112.664062 111.972656 112.84375 111.4375 112.792969 C 111.058594 112.742188 110.425781 111.957031 109.917969 111.675781 C 109.058594 111.195312 107.917969 109.421875 107.636719 108.460938 C 107.359375 107.445312 106.726562 106.28125 106.117188 105.445312 C 105.433594 104.480469 105.433594 104.277344 104.167969 104.53125 C 103.53125 104.632812 103.609375 104.710938 103.457031 105.242188 L 103.179688 106.710938 C 103.078125 107.320312 102.949219 106.6875 103.253906 107.699219 C 103.632812 108.964844 104.34375 110.714844 104.167969 112.007812 C 104.066406 112.792969 104.066406 113.324219 103.226562 113.148438 C 102.0625 112.894531 101 111.195312 100.59375 110.15625 C 99.933594 108.535156 99.175781 104 98.035156 102.9375 C 97.425781 102.328125 97.628906 102.402344 96.894531 102.632812 C 96.613281 102.707031 96.386719 103.46875 95.601562 102.074219 L 95.398438 101.566406 C 94.992188 100.808594 94.511719 100.476562 95.144531 99.742188 C 95.296875 99.566406 95.574219 99.109375 95.652344 98.882812 C 95.675781 98.855469 95.878906 98.199219 95.777344 98.070312 C 95.777344 98.070312 93.625 97.4375 93.472656 97.414062 C 92.8125 97.335938 93.472656 95.511719 93.421875 95.308594 C 93.34375 95.082031 93.675781 94.777344 93.675781 94.726562 C 93.675781 94.675781 93.574219 94.472656 93.828125 94.347656 C 94.082031 94.195312 93.800781 94.296875 94.003906 93.941406 C 94.082031 93.789062 93.980469 93.585938 93.929688 93.433594 Z M 109.867188 88.773438 " fill-opacity="1" fill-rule="evenodd"/><path fill="#87289a" d="M 203.148438 182.953125 L 203.148438 230.789062 L 213.5625 234.386719 L 220.660156 231.929688 L 221.039062 184.699219 L 211.003906 181.203125 Z M 203.148438 182.953125 " fill-opacity="1" fill-rule="evenodd"/><path fill="#87289a" d="M 213.5625 186.804688 L 203.148438 182.953125 L 203.148438 230.789062 L 213.5625 234.386719 Z M 213.5625 186.804688 " fill-opacity="1" fill-rule="evenodd"/><path fill="#a7c500" d="M 213.5625 186.804688 L 213.5625 234.386719 L 220.660156 231.929688 L 221.039062 184.699219 Z M 213.5625 186.804688 " fill-opacity="1" fill-rule="evenodd"/><path fill="#1d3b79" d="M 203.148438 182.953125 L 213.5625 186.804688 L 221.039062 184.699219 L 211.003906 181.203125 Z M 203.148438 182.953125 " fill-opacity="1" fill-rule="evenodd"/><path fill="#87289a" d="M 190.882812 191.363281 L 190.882812 235.324219 L 201.273438 238.621094 L 208.367188 236.339844 L 208.773438 192.960938 L 198.714844 189.769531 Z M 190.882812 191.363281 " fill-opacity="1" fill-rule="evenodd"/><path fill="#87289a" d="M 201.273438 194.910156 L 190.882812 191.363281 L 190.882812 235.324219 L 201.273438 238.621094 Z M 201.273438 194.910156 " fill-opacity="1" fill-rule="evenodd"/><path fill="#a7c500" d="M 201.273438 194.910156 L 201.273438 238.621094 L 208.367188 236.339844 L 208.773438 192.960938 Z M 201.273438 194.910156 " fill-opacity="1" fill-rule="evenodd"/><path fill="#1d3b79" d="M 190.882812 191.363281 L 201.273438 194.910156 L 208.773438 192.960938 L 198.714844 189.769531 Z M 190.882812 191.363281 " fill-opacity="1" fill-rule="evenodd"/><path fill="#87289a" d="M 178.796875 202.714844 L 178.796875 239.355469 L 189.210938 242.117188 L 196.28125 240.214844 L 196.6875 204.058594 L 186.652344 201.398438 Z M 178.796875 202.714844 " fill-opacity="1" fill-rule="evenodd"/><path fill="#87289a" d="M 189.210938 205.679688 L 178.796875 202.714844 L 178.796875 239.355469 L 189.210938 242.117188 Z M 189.210938 205.679688 " fill-opacity="1" fill-rule="evenodd"/><path fill="#a7c500" d="M 189.210938 205.679688 L 189.210938 242.117188 L 196.28125 240.214844 L 196.6875 204.058594 Z M 189.210938 205.679688 " fill-opacity="1" fill-rule="evenodd"/><path fill="#1d3b79" d="M 178.796875 202.714844 L 189.210938 205.679688 L 196.6875 204.058594 L 186.652344 201.398438 Z M 178.796875 202.714844 " fill-opacity="1" fill-rule="evenodd"/><path fill="#87289a" d="M 166.378906 213.863281 L 166.378906 243.761719 L 176.792969 245.992188 L 183.863281 244.445312 L 184.269531 214.980469 L 174.234375 212.800781 Z M 166.378906 213.863281 " fill-opacity="1" fill-rule="evenodd"/><path fill="#87289a" d="M 176.792969 216.296875 L 166.378906 213.863281 L 166.378906 243.761719 L 176.792969 245.992188 Z M 176.792969 216.296875 " fill-opacity="1" fill-rule="evenodd"/><path fill="#a7c500" d="M 176.792969 216.296875 L 176.792969 245.992188 L 183.863281 244.445312 L 184.269531 214.980469 Z M 176.792969 216.296875 " fill-opacity="1" fill-rule="evenodd"/><path fill="#1d3b79" d="M 166.378906 213.863281 L 176.792969 216.296875 L 184.269531 214.980469 L 174.234375 212.800781 Z M 166.378906 213.863281 " fill-opacity="1" fill-rule="evenodd"/><path fill="#87289a" d="M 56.523438 104.027344 C 56.523438 98.855469 52.34375 94.652344 47.175781 94.652344 C 42.003906 94.652344 37.796875 98.855469 37.796875 104.027344 C 37.796875 109.195312 42.003906 113.375 47.175781 113.375 C 52.34375 113.375 56.523438 109.195312 56.523438 104.027344 Z M 53.078125 92.496094 L 53.558594 89.480469 L 55.207031 90.394531 L 60.808594 95.992188 L 58.679688 98.097656 C 59.007812 98.730469 59.289062 99.386719 59.488281 100.074219 L 60.832031 99.136719 L 62.480469 100.074219 L 62.480469 107.976562 L 59.488281 107.976562 C 59.289062 108.664062 59.007812 109.320312 58.679688 109.929688 L 60.808594 112.058594 L 55.207031 117.65625 L 53.558594 116.746094 L 53.078125 115.527344 C 52.46875 115.859375 51.8125 116.113281 51.128906 116.339844 L 51.128906 119.328125 L 43.222656 119.328125 L 41.574219 118.417969 L 43.222656 116.3125 C 42.535156 116.113281 41.878906 115.859375 41.246094 115.527344 L 39.117188 117.65625 L 37.492188 116.746094 L 33.515625 112.058594 L 35.644531 109.929688 C 35.339844 109.320312 35.0625 108.664062 34.832031 107.976562 L 31.84375 107.976562 L 30.195312 107.066406 L 31.84375 100.074219 L 34.832031 100.074219 C 35.0625 99.386719 35.339844 98.730469 35.644531 98.097656 L 33.539062 95.96875 L 37.492188 89.480469 L 39.140625 90.367188 L 41.246094 92.496094 C 41.878906 92.191406 42.535156 91.914062 43.222656 91.6875 L 43.222656 88.695312 L 49.480469 87.785156 L 51.128906 88.695312 L 51.128906 91.6875 C 51.8125 91.914062 52.46875 92.191406 53.078125 92.496094 Z M 53.078125 92.496094 " fill-opacity="1" fill-rule="evenodd"/><path fill="#a7c500" d="M 54.878906 103.113281 C 54.878906 97.945312 50.695312 93.738281 45.527344 93.738281 C 40.359375 93.738281 36.152344 97.945312 36.152344 103.113281 C 36.152344 108.28125 40.359375 112.464844 45.527344 112.464844 C 50.695312 112.464844 54.878906 108.28125 54.878906 103.113281 Z M 51.429688 91.585938 L 53.558594 89.480469 L 59.160156 95.082031 L 57.03125 97.183594 C 57.363281 97.816406 57.640625 98.476562 57.84375 99.136719 L 60.832031 99.136719 L 60.832031 107.066406 L 57.84375 107.066406 C 57.640625 107.75 57.363281 108.382812 57.03125 109.015625 L 59.160156 111.144531 L 53.558594 116.746094 L 51.429688 114.617188 C 50.824219 114.945312 50.164062 115.199219 49.480469 115.425781 L 49.480469 118.417969 L 41.574219 118.417969 L 41.574219 115.425781 C 40.890625 115.199219 40.230469 114.945312 39.597656 114.617188 L 37.492188 116.746094 L 31.894531 111.144531 L 33.996094 109.015625 C 33.691406 108.382812 33.414062 107.75 33.210938 107.066406 L 30.195312 107.066406 L 30.195312 99.136719 L 33.210938 99.136719 C 33.414062 98.476562 33.691406 97.816406 33.996094 97.183594 L 31.894531 95.082031 L 37.492188 89.480469 L 39.597656 91.585938 C 40.230469 91.28125 40.890625 91 41.574219 90.773438 L 41.574219 87.785156 L 49.480469 87.785156 L 49.480469 90.773438 C 50.164062 91 50.824219 91.28125 51.429688 91.585938 Z M 51.429688 91.585938 " fill-opacity="1" fill-rule="evenodd"/><path fill="#3a7cd1" d="M 64.785156 137.851562 C 64.785156 134.355469 61.972656 131.515625 58.476562 131.515625 C 54.980469 131.515625 52.140625 134.355469 52.140625 137.851562 C 52.140625 141.347656 54.980469 144.160156 58.476562 144.160156 C 61.972656 144.160156 64.785156 141.347656 64.785156 137.851562 Z M 62.453125 130.074219 L 62.785156 128.019531 L 63.898438 128.652344 L 67.675781 132.429688 L 66.257812 133.847656 C 66.457031 134.277344 66.636719 134.710938 66.789062 135.164062 L 67.699219 134.558594 L 68.816406 135.164062 L 68.816406 140.511719 L 66.789062 140.511719 C 66.636719 140.96875 66.457031 141.425781 66.257812 141.855469 L 67.675781 143.273438 L 63.898438 147.050781 L 62.785156 146.441406 L 62.453125 145.628906 C 62.050781 145.832031 61.59375 146.035156 61.136719 146.160156 L 61.136719 148.1875 L 55.789062 148.1875 L 54.699219 147.582031 L 55.789062 146.160156 C 55.335938 146.011719 54.902344 145.832031 54.472656 145.628906 L 53.054688 147.050781 L 51.9375 146.441406 L 49.253906 143.273438 L 50.695312 141.855469 C 50.492188 141.425781 50.292969 140.96875 50.164062 140.511719 L 48.136719 140.511719 L 47.023438 139.902344 L 48.136719 135.164062 L 50.164062 135.164062 C 50.292969 134.710938 50.492188 134.277344 50.695312 133.847656 L 49.277344 132.429688 L 51.9375 128.019531 L 53.054688 128.652344 L 54.472656 130.074219 C 54.902344 129.871094 55.335938 129.667969 55.789062 129.539062 L 55.789062 127.511719 L 60.023438 126.878906 L 61.136719 127.511719 L 61.136719 129.539062 C 61.59375 129.667969 62.050781 129.871094 62.453125 130.074219 Z M 62.453125 130.074219 " fill-opacity="1" fill-rule="evenodd"/><path fill="#32bfd8" d="M 63.695312 137.242188 C 63.695312 133.746094 60.859375 130.910156 57.363281 130.910156 C 53.863281 130.910156 51.027344 133.746094 51.027344 137.242188 C 51.027344 140.714844 53.863281 143.550781 57.363281 143.550781 C 60.859375 143.550781 63.695312 140.714844 63.695312 137.242188 Z M 61.367188 129.464844 L 62.785156 128.019531 L 66.558594 131.796875 L 65.140625 133.238281 C 65.34375 133.671875 65.546875 134.101562 65.671875 134.558594 L 67.699219 134.558594 L 67.699219 139.902344 L 65.671875 139.902344 C 65.546875 140.359375 65.34375 140.816406 65.140625 141.222656 L 66.558594 142.664062 L 62.785156 146.441406 L 61.367188 144.996094 C 60.933594 145.222656 60.503906 145.402344 60.023438 145.554688 L 60.023438 147.582031 L 54.699219 147.582031 L 54.699219 145.554688 C 54.21875 145.402344 53.789062 145.222656 53.359375 144.996094 L 51.9375 146.441406 L 48.164062 142.664062 L 49.582031 141.222656 C 49.378906 140.816406 49.175781 140.359375 49.050781 139.902344 L 47.023438 139.902344 L 47.023438 134.558594 L 49.050781 134.558594 C 49.175781 134.101562 49.378906 133.671875 49.582031 133.238281 L 48.164062 131.796875 L 51.9375 128.019531 L 53.359375 129.464844 C 53.789062 129.238281 54.21875 129.058594 54.699219 128.90625 L 54.699219 126.878906 L 60.023438 126.878906 L 60.023438 128.90625 C 60.503906 129.058594 60.933594 129.238281 61.367188 129.464844 Z M 61.367188 129.464844 " fill-opacity="1" fill-rule="evenodd"/><path fill="#e9e9e9" d="M 31.589844 203.070312 C 20.691406 203.070312 11.847656 194.226562 11.847656 183.332031 C 11.847656 172.410156 20.691406 163.59375 31.589844 163.59375 C 42.484375 163.59375 51.332031 172.410156 51.332031 183.332031 C 51.332031 194.226562 42.484375 203.070312 31.589844 203.070312 Z M 60.328125 183.332031 C 60.328125 167.472656 47.453125 154.597656 31.589844 154.597656 C 15.726562 154.597656 2.851562 167.472656 2.851562 183.332031 C 2.851562 199.195312 15.726562 212.039062 31.589844 212.039062 C 47.453125 212.039062 60.328125 199.195312 60.328125 183.332031 Z M 60.328125 183.332031 " fill-opacity="1" fill-rule="evenodd"/><g clip-path="url(#1be7c7f459)"><path fill="#bf262b" d="M 28.878906 202.082031 C 17.957031 202.082031 9.136719 193.238281 9.136719 182.34375 C 9.136719 171.449219 17.957031 162.605469 28.878906 162.605469 C 39.773438 162.605469 48.617188 171.449219 48.617188 182.34375 C 48.617188 193.238281 39.773438 202.082031 28.878906 202.082031 Z M 57.589844 182.34375 C 57.589844 166.484375 44.742188 153.613281 28.878906 153.613281 C 13.015625 153.613281 0.140625 166.484375 0.140625 182.34375 C 0.140625 198.207031 13.015625 211.078125 28.878906 211.078125 C 44.742188 211.078125 57.589844 198.207031 57.589844 182.34375 Z M 57.589844 182.34375 " fill-opacity="1" fill-rule="evenodd"/></g><path fill="#02979b" d="M 41.246094 197.722656 C 37.875 200.460938 33.566406 202.082031 28.878906 202.082031 C 21.984375 202.082031 15.929688 198.558594 12.40625 193.238281 L 5.335938 198.8125 C 10.53125 206.238281 19.121094 211.078125 28.878906 211.078125 C 36.050781 211.078125 42.585938 208.441406 47.628906 204.109375 Z M 41.246094 197.722656 " fill-opacity="1" fill-rule="evenodd"/><path fill="#a7c500" d="M 48.617188 182.34375 C 48.617188 188.550781 45.730469 194.101562 41.246094 197.722656 L 47.628906 204.109375 C 53.738281 198.839844 57.589844 191.035156 57.589844 182.34375 C 57.589844 169.929688 49.707031 159.363281 38.683594 155.335938 L 34.859375 163.542969 C 42.839844 166.078125 48.617188 173.527344 48.617188 182.34375 Z M 48.617188 182.34375 " fill-opacity="1" fill-rule="evenodd"/><path fill="#87289a" d="M 13.496094 169.953125 C 17.121094 165.46875 22.644531 162.605469 28.878906 162.605469 C 30.957031 162.605469 32.984375 162.9375 34.859375 163.542969 L 38.683594 155.335938 C 35.617188 154.21875 32.324219 153.613281 28.878906 153.613281 C 20.160156 153.613281 12.382812 157.488281 7.109375 163.59375 Z M 13.496094 169.953125 " fill-opacity="1" fill-rule="evenodd"/><path fill="#a7c500" d="M 40.535156 130.476562 C 40.535156 128.199219 38.683594 126.324219 36.378906 126.324219 C 34.074219 126.324219 32.222656 128.199219 32.222656 130.476562 C 32.222656 132.785156 34.074219 134.632812 36.378906 134.632812 C 38.683594 134.632812 40.535156 132.785156 40.535156 130.476562 Z M 39.015625 125.386719 L 39.21875 124.015625 L 39.953125 124.421875 L 42.4375 126.929688 L 41.496094 127.867188 C 41.625 128.148438 41.75 128.425781 41.851562 128.730469 L 42.460938 128.324219 L 43.195312 128.730469 L 43.195312 132.25 L 41.851562 132.25 C 41.75 132.554688 41.625 132.835938 41.496094 133.113281 L 42.4375 134.050781 L 39.953125 136.535156 L 39.21875 136.128906 L 39.015625 135.597656 C 38.734375 135.75 38.433594 135.875 38.128906 135.949219 L 38.128906 137.292969 L 34.628906 137.292969 L 33.894531 136.886719 L 34.628906 135.949219 C 34.328125 135.851562 34.023438 135.75 33.742188 135.597656 L 32.804688 136.535156 L 32.070312 136.128906 L 30.324219 134.050781 L 31.261719 133.113281 C 31.132812 132.835938 31.007812 132.554688 30.90625 132.25 L 29.5625 132.25 L 28.851562 131.847656 L 29.5625 128.730469 L 30.90625 128.730469 C 31.007812 128.425781 31.132812 128.148438 31.261719 127.867188 L 30.324219 126.90625 L 32.070312 124.015625 L 32.804688 124.421875 L 33.742188 125.386719 C 34.023438 125.234375 34.328125 125.105469 34.628906 125.003906 L 34.628906 123.6875 L 37.417969 123.28125 L 38.128906 123.6875 L 38.128906 125.003906 C 38.433594 125.105469 38.734375 125.234375 39.015625 125.386719 Z M 39.015625 125.386719 " fill-opacity="1" fill-rule="evenodd"/><path fill="#87289a" d="M 39.800781 130.074219 C 39.800781 127.792969 37.949219 125.917969 35.644531 125.917969 C 33.363281 125.917969 31.488281 127.792969 31.488281 130.074219 C 31.488281 132.378906 33.363281 134.226562 35.644531 134.226562 C 37.949219 134.226562 39.800781 132.378906 39.800781 130.074219 Z M 38.28125 124.980469 L 39.21875 124.015625 L 41.699219 126.523438 L 40.761719 127.460938 C 40.914062 127.742188 41.015625 128.019531 41.117188 128.324219 L 42.460938 128.324219 L 42.460938 131.847656 L 41.117188 131.847656 C 41.015625 132.148438 40.914062 132.429688 40.761719 132.707031 L 41.699219 133.644531 L 39.21875 136.128906 L 38.28125 135.191406 C 38 135.34375 37.695312 135.46875 37.417969 135.546875 L 37.417969 136.886719 L 33.894531 136.886719 L 33.894531 135.546875 C 33.589844 135.46875 33.289062 135.34375 33.007812 135.191406 L 32.070312 136.128906 L 29.585938 133.644531 L 30.523438 132.707031 C 30.398438 132.429688 30.273438 132.148438 30.171875 131.847656 L 28.851562 131.847656 L 28.851562 128.324219 L 30.171875 128.324219 C 30.273438 128.019531 30.398438 127.742188 30.523438 127.460938 L 29.585938 126.523438 L 32.070312 124.015625 L 33.007812 124.980469 C 33.289062 124.828125 33.589844 124.699219 33.894531 124.601562 L 33.894531 123.28125 L 37.417969 123.28125 L 37.417969 124.601562 C 37.695312 124.699219 38 124.828125 38.28125 124.980469 Z M 38.28125 124.980469 " fill-opacity="1" fill-rule="evenodd"/><g clip-path="url(#b396f6ada2)"><path fill="#a12024" d="M 227.691406 107.914062 C 244.542969 107.914062 258.199219 121.570312 258.199219 138.421875 C 258.199219 155.269531 244.542969 168.925781 227.691406 168.925781 C 210.863281 168.925781 197.207031 155.269531 197.207031 138.421875 C 197.207031 121.570312 210.863281 107.914062 227.691406 107.914062 Z M 227.691406 107.914062 " fill-opacity="1" fill-rule="evenodd"/></g><path fill="#cccccc" d="M 224.648438 106.015625 C 241.5 106.015625 255.136719 119.671875 255.136719 136.519531 C 255.136719 153.371094 241.5 167.003906 224.648438 167.003906 C 207.796875 167.003906 194.140625 153.371094 194.140625 136.519531 C 194.140625 119.671875 207.796875 106.015625 224.648438 106.015625 Z M 224.648438 106.015625 " fill-opacity="1" fill-rule="evenodd"/><path fill="#e9e9e9" d="M 224.648438 113.464844 C 237.371094 113.464844 247.710938 123.777344 247.710938 136.519531 C 247.710938 149.242188 237.371094 159.578125 224.648438 159.578125 C 211.902344 159.578125 201.589844 149.242188 201.589844 136.519531 C 201.589844 123.777344 211.902344 113.464844 224.648438 113.464844 Z M 224.648438 113.464844 " fill-opacity="1" fill-rule="evenodd"/><path fill="#bf262b" d="M 224.648438 159.578125 C 211.902344 159.578125 201.589844 149.242188 201.589844 136.519531 C 201.589844 123.777344 211.902344 113.464844 224.648438 113.464844 C 237.371094 113.464844 247.710938 123.777344 247.710938 136.519531 C 247.710938 149.242188 237.371094 159.578125 224.648438 159.578125 Z M 255.136719 136.519531 C 255.136719 119.671875 241.5 106.015625 224.648438 106.015625 C 207.796875 106.015625 194.140625 119.671875 194.140625 136.519531 C 194.140625 153.371094 207.796875 167.003906 224.648438 167.003906 C 241.5 167.003906 255.136719 153.371094 255.136719 136.519531 Z M 255.136719 136.519531 " fill-opacity="1" fill-rule="evenodd"/><path fill="#bf262b" d="M 209.039062 136.519531 C 209.039062 145.136719 216.035156 152.128906 224.648438 152.128906 C 233.265625 152.128906 240.257812 145.136719 240.257812 136.519531 C 240.257812 127.90625 233.265625 120.914062 224.648438 120.914062 C 216.035156 120.914062 209.039062 127.90625 209.039062 136.519531 Z M 224.648438 144.703125 C 220.140625 144.703125 216.464844 141.03125 216.464844 136.519531 C 216.464844 132.011719 220.140625 128.335938 224.648438 128.335938 C 229.160156 128.335938 232.835938 132.011719 232.835938 136.519531 C 232.835938 141.03125 229.160156 144.703125 224.648438 144.703125 Z M 224.648438 144.703125 " fill-opacity="1" fill-rule="evenodd"/><path fill="#bf262b" d="M 224.648438 132.921875 C 226.625 132.921875 228.222656 134.542969 228.222656 136.519531 C 228.222656 138.496094 226.625 140.09375 224.648438 140.09375 C 222.671875 140.09375 221.050781 138.496094 221.050781 136.519531 C 221.050781 134.542969 222.671875 132.921875 224.648438 132.921875 Z M 224.648438 132.921875 " fill-opacity="1" fill-rule="evenodd"/><g clip-path="url(#939819f076)"><path fill="#1a1a1a" d="M 255.996094 116.78125 L 255.414062 120.152344 L 258.632812 121.394531 L 250.953125 125.703125 L 248.316406 125.144531 L 225.5625 138.089844 L 224.726562 136.597656 L 247.457031 123.675781 L 248.316406 121.066406 Z M 255.996094 116.78125 " fill-opacity="1" fill-rule="evenodd"/></g><path fill="#1a1a1a" d="M 222.976562 99.476562 L 225.484375 101.832031 L 228.273438 99.804688 L 227.664062 108.597656 L 225.789062 110.5 L 224.167969 136.621094 L 222.445312 136.519531 L 224.066406 110.421875 L 222.367188 108.269531 Z M 222.976562 99.476562 " fill-opacity="1" fill-rule="evenodd"/><path fill="#343339" d="M 130.660156 35.195312 L 195.863281 39.199219 C 197.789062 39.324219 199.359375 40.1875 200.550781 41.53125 C 200.5 41.453125 200.449219 41.402344 200.398438 41.351562 C 204.375 42.238281 210.128906 49.867188 207.746094 57.289062 L 150.679688 235.035156 C 148.777344 240.9375 136.996094 243.546875 130.886719 242.355469 L 66.828125 230.066406 C 60.058594 228.75 55.167969 219.703125 56.664062 215.75 C 56.4375 213.851562 56.613281 211.875 57.246094 210.050781 L 116.191406 41.984375 C 118.242188 36.105469 124.453125 34.816406 130.660156 35.195312 Z M 130.660156 35.195312 " fill-opacity="1" fill-rule="evenodd"/><path fill="#343339" d="M 130.660156 35.195312 L 195.863281 39.199219 C 202.070312 39.578125 204.554688 47.761719 202.652344 53.691406 L 145.5625 231.410156 C 143.660156 237.339844 137.171875 239.441406 131.089844 238.199219 L 64.011719 224.519531 C 57.933594 223.277344 55.195312 215.929688 57.246094 210.050781 L 116.191406 41.984375 C 118.242188 36.105469 124.453125 34.816406 130.660156 35.195312 Z M 130.660156 35.195312 " fill-opacity="1" fill-rule="evenodd"/><path fill="#32bfd8" d="M 129.316406 38.515625 C 125.894531 38.3125 120.625 38.4375 119.28125 42.339844 L 61.429688 211.519531 C 60.414062 214.484375 61.300781 219.449219 64.902344 220.1875 L 133.144531 233.765625 C 136.589844 234.449219 141.304688 233.84375 142.519531 229.964844 L 198.421875 52.324219 C 199.15625 49.941406 197.535156 44.796875 194.265625 44.492188 Z M 129.316406 38.515625 " fill-opacity="1" fill-rule="evenodd"/><path fill="#333333" d="M 138.109375 39.300781 L 182.433594 43.175781 C 181.621094 46.824219 179.035156 50.472656 175.058594 50.144531 L 142.191406 47.433594 C 139.148438 47.179688 137.984375 45.886719 138.035156 42.847656 Z M 138.109375 39.300781 " fill-opacity="1" fill-rule="evenodd"/><path fill="#0b0b0b" d="M 85.730469 221.074219 L 114.921875 226.140625 C 115.203125 226.191406 115.378906 226.445312 115.328125 226.699219 C 115.277344 226.949219 115.023438 227.128906 114.769531 227.078125 L 85.578125 222.011719 C 85.300781 221.960938 85.121094 221.730469 85.171875 221.453125 C 85.222656 221.199219 85.476562 221.023438 85.730469 221.074219 Z M 85.730469 221.074219 " fill-opacity="1" fill-rule="evenodd"/><path fill="#0b0b0b" d="M 200.398438 41.351562 C 204.375 42.238281 210.128906 49.867188 207.746094 57.289062 L 150.679688 235.035156 C 148.777344 240.9375 136.996094 243.546875 130.886719 242.355469 L 66.828125 230.066406 C 60.058594 228.75 55.167969 219.703125 56.664062 215.75 C 57.222656 219.90625 59.832031 223.683594 64.011719 224.519531 L 131.089844 238.199219 C 137.171875 239.441406 143.660156 237.339844 145.5625 231.410156 L 202.652344 53.691406 C 203.972656 49.535156 203.160156 44.242188 200.398438 41.351562 Z M 200.398438 41.351562 " fill-opacity="1" fill-rule="evenodd"/><path fill="#e6e6e6" d="M 117.558594 186.207031 C 115.125 184.863281 112.339844 184.105469 109.449219 184.054688 C 111.554688 182.230469 112.464844 179.339844 111.78125 176.628906 C 111.097656 173.917969 108.917969 171.839844 106.207031 171.234375 C 103.46875 170.625 100.632812 171.613281 98.855469 173.765625 C 99.894531 168.699219 98.046875 163.453125 94.066406 160.136719 C 90.089844 156.816406 84.589844 155.929688 79.777344 157.878906 L 61.429688 211.519531 C 60.414062 214.484375 61.300781 219.453125 64.902344 220.1875 L 128.660156 232.855469 C 132.839844 230.371094 134.890625 225.40625 133.699219 220.691406 C 132.484375 215.980469 128.328125 212.585938 123.464844 212.382812 C 127.390625 207.035156 128 199.941406 125.035156 193.988281 C 123.386719 190.617188 120.75 187.929688 117.558594 186.207031 Z M 85.730469 221.074219 L 114.921875 226.140625 C 115.203125 226.191406 115.378906 226.445312 115.328125 226.699219 C 115.277344 226.949219 115.023438 227.128906 114.769531 227.078125 L 85.578125 222.011719 C 85.300781 221.960938 85.121094 221.730469 85.171875 221.453125 C 85.222656 221.199219 85.476562 221.023438 85.730469 221.074219 Z M 85.730469 221.074219 " fill-opacity="1" fill-rule="evenodd"/><path fill="#ffffff" d="M 128.988281 178.503906 C 123.96875 178.503906 119.460938 181.546875 117.558594 186.207031 C 120.75 187.929688 123.386719 190.617188 125.035156 193.988281 C 128 199.941406 127.390625 207.035156 123.464844 212.382812 C 128.328125 212.585938 132.484375 215.980469 133.699219 220.691406 C 134.890625 225.40625 132.839844 230.371094 128.660156 232.855469 L 133.144531 233.765625 C 136.589844 234.449219 141.304688 233.84375 142.519531 229.964844 L 160.839844 171.742188 C 158.433594 171.613281 156.128906 172.828125 154.886719 174.882812 C 153.617188 176.960938 153.570312 179.542969 154.785156 181.621094 C 152.65625 179.113281 149.234375 178.152344 146.09375 179.140625 C 142.949219 180.128906 140.71875 182.914062 140.441406 186.183594 C 138.542969 181.546875 134.003906 178.503906 128.988281 178.503906 Z M 128.988281 178.503906 " fill-opacity="1" fill-rule="evenodd"/><path fill="#faaf3b" d="M 127.113281 153.800781 C 135.726562 173.84375 140.011719 183.851562 140.011719 183.851562 C 137.476562 153.777344 136.210938 138.75 136.210938 138.75 C 129.089844 140.929688 125.464844 141.992188 125.3125 141.917969 C 121.257812 123.953125 119.027344 115.058594 118.625 115.238281 L 106.433594 94.765625 L 102.125 119.390625 C 108.96875 144.554688 112.390625 157.144531 112.390625 157.144531 C 122.195312 154.914062 127.113281 153.800781 127.113281 153.800781 Z M 127.113281 153.800781 " fill-opacity="1" fill-rule="evenodd"/><path fill="#f0f0f0" d="M 112.464844 82.273438 C 114.949219 54.199219 105.726562 31.800781 82.96875 8.894531 C 75.238281 1.117188 76.582031 0.734375 74.277344 11.453125 C 67.433594 42.972656 71.71875 66.84375 88.921875 89.140625 Z M 112.464844 82.273438 " fill-opacity="1" fill-rule="evenodd"/><path fill="#bf262b" d="M 112.464844 82.195312 L 88.871094 89.089844 L 90.648438 95.117188 L 114.238281 88.226562 Z M 112.464844 82.195312 " fill-opacity="1" fill-rule="evenodd"/><path fill="#bf262b" d="M 112.871094 72.617188 C 112.792969 67.246094 112.261719 62.054688 111.222656 57.035156 L 126.199219 65.195312 L 127.921875 82.527344 L 123.183594 80.878906 L 122.5 75.988281 Z M 112.871094 72.617188 " fill-opacity="1" fill-rule="evenodd"/><path fill="#bf262b" d="M 76.480469 67.476562 C 78.332031 72.238281 80.664062 76.851562 83.5 81.386719 L 77.394531 89.164062 L 79.445312 93.675781 L 76.355469 97.601562 L 68.449219 82.042969 Z M 76.480469 67.476562 " fill-opacity="1" fill-rule="evenodd"/><path fill="#bf262b" d="M 91.761719 18.523438 C 86.464844 23.4375 79.167969 25.566406 72.070312 24.273438 C 72.578125 20.144531 73.3125 15.863281 74.277344 11.453125 C 76.582031 0.734375 75.238281 1.117188 82.96875 8.894531 C 86.160156 12.113281 89.101562 15.304688 91.761719 18.523438 Z M 91.761719 18.523438 " fill-opacity="1" fill-rule="evenodd"/><path fill="#bf262b" d="M 82.589844 23.742188 C 79.21875 24.707031 75.621094 24.933594 72.070312 24.273438 C 72.578125 20.144531 73.3125 15.863281 74.277344 11.453125 C 75.441406 6.105469 75.671875 3.523438 76.582031 3.246094 Z M 82.589844 23.742188 " fill-opacity="1" fill-rule="evenodd"/><path fill="#f8fae5" d="M 72.070312 24.273438 C 75.621094 24.933594 79.21875 24.707031 82.589844 23.742188 L 100.683594 85.644531 L 88.871094 89.089844 L 88.898438 89.113281 C 86.921875 86.554688 85.121094 83.996094 83.5 81.386719 C 80.664062 76.851562 78.332031 72.238281 76.480469 67.476562 C 71.4375 54.425781 70.042969 40.363281 72.070312 24.273438 Z M 72.070312 24.273438 " fill-opacity="1" fill-rule="evenodd"/><path fill="#bf262b" d="M 85.324219 33.042969 C 79.015625 34.890625 75.390625 41.503906 77.242188 47.8125 C 79.066406 54.121094 85.679688 57.71875 91.988281 55.894531 C 98.300781 54.046875 101.921875 47.433594 100.074219 41.125 C 98.222656 34.839844 91.609375 31.21875 85.324219 33.042969 Z M 85.324219 33.042969 " fill-opacity="1" fill-rule="evenodd"/><path fill="#cacaca" d="M 86.566406 37.375 C 82.664062 38.539062 80.410156 42.617188 81.574219 46.546875 C 82.714844 50.449219 86.796875 52.703125 90.722656 51.5625 C 94.625 50.421875 96.878906 46.320312 95.742188 42.390625 C 94.601562 38.488281 90.496094 36.234375 86.566406 37.375 Z M 86.566406 37.375 " fill-opacity="1" fill-rule="evenodd"/><path fill="#faaf3b" d="M 112.492188 88.734375 C 113.503906 89.011719 113.734375 89.976562 114.871094 90.609375 C 115 90.683594 116.367188 91.671875 116.746094 92.027344 C 117.152344 92.40625 122.449219 96.765625 123.414062 98.765625 C 123.589844 99.171875 113.125 94.765625 118.371094 99.753906 C 118.824219 100.210938 120.902344 102.769531 121.03125 103.175781 C 121.234375 103.859375 124.171875 109.5625 123.566406 108.800781 C 121.664062 106.445312 119.5625 105.710938 118.574219 105.152344 C 117.761719 104.722656 117.863281 104.671875 116.898438 104.621094 C 116.648438 103.757812 116.417969 104.722656 116.597656 105.355469 C 117 106.722656 116.847656 107.535156 117.203125 108.726562 C 118.066406 111.691406 119.230469 115.007812 119.433594 118.074219 L 119.410156 118.453125 C 119.382812 119.417969 119.5625 120.152344 119.738281 121.902344 C 119.761719 122.382812 117.507812 120.355469 117.203125 119.976562 C 116.949219 119.671875 115.277344 117.871094 114.898438 117.746094 C 113.453125 117.238281 113.402344 117.515625 113.226562 118.988281 L 113.074219 119.292969 C 113.074219 119.339844 113.074219 120.078125 113.074219 120.179688 C 113.097656 120.609375 113.046875 123.191406 112.996094 123.371094 C 112.84375 123.828125 112.945312 124.15625 112.792969 124.433594 L 112.339844 125.828125 C 111.855469 126.867188 112.1875 127.777344 110.742188 128.183594 C 108.789062 128.765625 108.765625 129.652344 108.15625 127.550781 C 107.878906 126.664062 107.296875 126.105469 106.890625 125.015625 C 106.585938 124.179688 106.484375 124.460938 106.179688 123.445312 C 105.523438 121.214844 105.117188 118.429688 103.039062 117.035156 C 102.910156 116.933594 102.53125 116.933594 102.40625 116.960938 C 101.265625 117.289062 99.84375 119.722656 99.058594 120.734375 C 98.554688 121.394531 97.867188 122.28125 97.589844 123.042969 C 97.414062 123.523438 97.464844 124.027344 96.78125 123.292969 C 96.347656 122.839844 95.460938 119.113281 95.613281 118.453125 C 95.742188 117.796875 95.765625 117.1875 96.070312 116.53125 L 96.5 115.007812 C 96.527344 114.984375 96.957031 111.003906 96.929688 110.855469 C 96.828125 109.96875 96.703125 109.585938 96.425781 108.699219 C 95.613281 108.953125 92.394531 112.878906 91.863281 112.449219 C 91.585938 112.222656 93.839844 106.34375 93.839844 106.316406 L 93.992188 105.507812 C 94.246094 104.367188 94.625 103.785156 93.6875 102.796875 C 93.484375 102.871094 93.714844 102.667969 93.078125 102.847656 C 91.789062 103.226562 90.46875 104.390625 88.339844 106.496094 C 88.0625 106.773438 89.761719 101.78125 90.496094 99.679688 C 90.648438 99.324219 90.546875 98.917969 90.875 98.816406 C 90.976562 98.261719 92.34375 97.753906 92.140625 97.042969 C 91.886719 96.183594 91.835938 96.867188 91.507812 95.726562 C 91.355469 95.246094 91.355469 95.421875 91.558594 94.839844 Z M 112.492188 88.734375 " fill-opacity="1" fill-rule="evenodd"/><path fill="#a7c500" d="M 110.335938 89.34375 C 110.566406 90.128906 110.765625 90.027344 111.324219 90.507812 C 111.707031 90.835938 112.492188 91.394531 112.617188 91.824219 C 112.742188 92.28125 112.085938 92.332031 111.804688 92.6875 C 111.679688 92.863281 111.578125 92.789062 111.503906 92.839844 L 111.300781 93.117188 C 110.84375 93.242188 111.222656 93.523438 111.199219 93.726562 C 111.171875 93.902344 110.996094 93.800781 111.273438 94.460938 C 111.65625 95.371094 113.023438 97.296875 113.65625 98.007812 C 114.085938 98.515625 114.339844 99.019531 114.796875 99.503906 C 114.898438 99.628906 115.152344 100.109375 114.921875 100.1875 C 114.847656 100.210938 114.265625 100.363281 114.265625 100.363281 L 113.632812 100.339844 C 113.53125 100.339844 112.667969 100.007812 112.515625 99.957031 C 112.136719 99.832031 111.984375 100.035156 111.605469 99.730469 C 111.578125 99.703125 110.386719 99.679688 110.335938 99.679688 C 109.980469 99.78125 109.121094 100.007812 109.042969 100.414062 C 108.867188 101.429688 109.476562 103.554688 109.878906 104.46875 C 110.386719 105.582031 110.589844 106.140625 110.945312 107.355469 C 111.097656 107.914062 112.566406 112.550781 112.492188 112.90625 C 112.441406 113.234375 112.441406 113.414062 111.90625 113.363281 C 111.527344 113.3125 110.894531 112.527344 110.386719 112.246094 C 109.527344 111.765625 108.386719 109.992188 108.105469 109.03125 C 107.828125 108.015625 107.195312 106.851562 106.585938 106.015625 C 105.902344 105.050781 105.902344 104.847656 104.636719 105.101562 C 104 105.203125 104.078125 105.28125 103.925781 105.8125 L 103.648438 107.28125 C 103.546875 107.890625 103.417969 107.253906 103.722656 108.269531 C 104.101562 109.535156 104.8125 111.285156 104.636719 112.578125 C 104.535156 113.363281 104.535156 113.894531 103.699219 113.71875 C 102.53125 113.464844 101.46875 111.765625 101.0625 110.726562 C 100.402344 109.105469 99.644531 104.570312 98.503906 103.503906 C 97.894531 102.898438 98.097656 102.972656 97.363281 103.203125 C 97.082031 103.277344 96.855469 104.039062 96.070312 102.644531 L 95.867188 102.136719 C 95.460938 101.378906 94.980469 101.046875 95.613281 100.3125 C 95.765625 100.136719 96.042969 99.679688 96.121094 99.453125 C 96.144531 99.425781 96.347656 98.765625 96.246094 98.640625 C 96.246094 98.640625 94.09375 98.007812 93.941406 97.980469 C 93.28125 97.90625 93.941406 96.082031 93.890625 95.878906 C 93.816406 95.652344 94.144531 95.347656 94.144531 95.296875 C 94.144531 95.246094 94.042969 95.042969 94.296875 94.917969 C 94.550781 94.765625 94.269531 94.867188 94.472656 94.511719 C 94.550781 94.359375 94.449219 94.15625 94.398438 94.003906 Z M 110.335938 89.34375 " fill-opacity="1" fill-rule="evenodd"/><path fill="#87289a" d="M 203.617188 183.523438 L 203.617188 231.359375 L 214.03125 234.957031 L 221.128906 232.5 L 221.507812 185.269531 L 211.472656 181.773438 Z M 203.617188 183.523438 " fill-opacity="1" fill-rule="evenodd"/><path fill="#87289a" d="M 214.03125 187.375 L 203.617188 183.523438 L 203.617188 231.359375 L 214.03125 234.957031 Z M 214.03125 187.375 " fill-opacity="1" fill-rule="evenodd"/><path fill="#a7c500" d="M 214.03125 187.375 L 214.03125 234.957031 L 221.128906 232.5 L 221.507812 185.269531 Z M 214.03125 187.375 " fill-opacity="1" fill-rule="evenodd"/><path fill="#1d3b79" d="M 203.617188 183.523438 L 214.03125 187.375 L 221.507812 185.269531 L 211.472656 181.773438 Z M 203.617188 183.523438 " fill-opacity="1" fill-rule="evenodd"/><path fill="#87289a" d="M 191.351562 191.933594 L 191.351562 235.894531 L 201.742188 239.1875 L 208.835938 236.910156 L 209.242188 193.53125 L 199.183594 190.339844 Z M 191.351562 191.933594 " fill-opacity="1" fill-rule="evenodd"/><path fill="#87289a" d="M 201.742188 195.480469 L 191.351562 191.933594 L 191.351562 235.894531 L 201.742188 239.1875 Z M 201.742188 195.480469 " fill-opacity="1" fill-rule="evenodd"/><path fill="#a7c500" d="M 201.742188 195.480469 L 201.742188 239.1875 L 208.835938 236.910156 L 209.242188 193.53125 Z M 201.742188 195.480469 " fill-opacity="1" fill-rule="evenodd"/><path fill="#1d3b79" d="M 191.351562 191.933594 L 201.742188 195.480469 L 209.242188 193.53125 L 199.183594 190.339844 Z M 191.351562 191.933594 " fill-opacity="1" fill-rule="evenodd"/><path fill="#87289a" d="M 179.265625 203.285156 L 179.265625 239.925781 L 189.679688 242.6875 L 196.75 240.785156 L 197.15625 204.628906 L 187.121094 201.96875 Z M 179.265625 203.285156 " fill-opacity="1" fill-rule="evenodd"/><path fill="#87289a" d="M 189.679688 206.25 L 179.265625 203.285156 L 179.265625 239.925781 L 189.679688 242.6875 Z M 189.679688 206.25 " fill-opacity="1" fill-rule="evenodd"/><path fill="#a7c500" d="M 189.679688 206.25 L 189.679688 242.6875 L 196.75 240.785156 L 197.15625 204.628906 Z M 189.679688 206.25 " fill-opacity="1" fill-rule="evenodd"/><path fill="#1d3b79" d="M 179.265625 203.285156 L 189.679688 206.25 L 197.15625 204.628906 L 187.121094 201.96875 Z M 179.265625 203.285156 " fill-opacity="1" fill-rule="evenodd"/><g clip-path="url(#01a468e51e)"><path fill="#87289a" d="M 166.847656 214.433594 L 166.847656 244.332031 L 177.261719 246.5625 L 184.332031 245.015625 L 184.738281 215.550781 L 174.703125 213.371094 Z M 166.847656 214.433594 " fill-opacity="1" fill-rule="evenodd"/></g><g clip-path="url(#e9d6a8a6aa)"><path fill="#87289a" d="M 177.261719 216.867188 L 166.847656 214.433594 L 166.847656 244.332031 L 177.261719 246.5625 Z M 177.261719 216.867188 " fill-opacity="1" fill-rule="evenodd"/></g><g clip-path="url(#597bdec48b)"><path fill="#a7c500" d="M 177.261719 216.867188 L 177.261719 246.5625 L 184.332031 245.015625 L 184.738281 215.550781 Z M 177.261719 216.867188 " fill-opacity="1" fill-rule="evenodd"/></g><path fill="#1d3b79" d="M 166.847656 214.433594 L 177.261719 216.867188 L 184.738281 215.550781 L 174.703125 213.371094 Z M 166.847656 214.433594 " fill-opacity="1" fill-rule="evenodd"/><path fill="#87289a" d="M 56.992188 104.59375 C 56.992188 99.425781 52.8125 95.21875 47.644531 95.21875 C 42.472656 95.21875 38.265625 99.425781 38.265625 104.59375 C 38.265625 109.765625 42.472656 113.945312 47.644531 113.945312 C 52.8125 113.945312 56.992188 109.765625 56.992188 104.59375 Z M 53.546875 93.066406 L 54.027344 90.050781 L 55.675781 90.964844 L 61.277344 96.5625 L 59.148438 98.667969 C 59.476562 99.300781 59.757812 99.957031 59.957031 100.640625 L 61.300781 99.703125 L 62.949219 100.640625 L 62.949219 108.546875 L 59.957031 108.546875 C 59.757812 109.230469 59.476562 109.890625 59.148438 110.5 L 61.277344 112.628906 L 55.675781 118.226562 L 54.027344 117.316406 L 53.546875 116.097656 C 52.941406 116.429688 52.28125 116.679688 51.597656 116.910156 L 51.597656 119.898438 L 43.691406 119.898438 L 42.042969 118.988281 L 43.691406 116.882812 C 43.007812 116.679688 42.347656 116.429688 41.714844 116.097656 L 39.585938 118.226562 L 37.964844 117.316406 L 33.984375 112.628906 L 36.113281 110.5 C 35.808594 109.890625 35.53125 109.230469 35.300781 108.546875 L 32.3125 108.546875 L 30.664062 107.636719 L 32.3125 100.640625 L 35.300781 100.640625 C 35.53125 99.957031 35.808594 99.300781 36.113281 98.667969 L 34.011719 96.539062 L 37.964844 90.050781 L 39.609375 90.9375 L 41.714844 93.066406 C 42.347656 92.761719 43.007812 92.484375 43.691406 92.253906 L 43.691406 89.265625 L 49.949219 88.355469 L 51.597656 89.265625 L 51.597656 92.253906 C 52.28125 92.484375 52.941406 92.761719 53.546875 93.066406 Z M 53.546875 93.066406 " fill-opacity="1" fill-rule="evenodd"/><path fill="#a7c500" d="M 55.347656 103.683594 C 55.347656 98.515625 51.164062 94.308594 45.996094 94.308594 C 40.828125 94.308594 36.621094 98.515625 36.621094 103.683594 C 36.621094 108.851562 40.828125 113.03125 45.996094 113.03125 C 51.164062 113.03125 55.347656 108.851562 55.347656 103.683594 Z M 51.902344 92.15625 L 54.027344 90.050781 L 59.628906 95.652344 L 57.5 97.753906 C 57.832031 98.386719 58.109375 99.046875 58.3125 99.703125 L 61.300781 99.703125 L 61.300781 107.636719 L 58.3125 107.636719 C 58.109375 108.320312 57.832031 108.953125 57.5 109.585938 L 59.628906 111.714844 L 54.027344 117.316406 L 51.902344 115.1875 C 51.292969 115.515625 50.632812 115.769531 49.949219 115.996094 L 49.949219 118.988281 L 42.042969 118.988281 L 42.042969 115.996094 C 41.359375 115.769531 40.699219 115.515625 40.066406 115.1875 L 37.964844 117.316406 L 32.363281 111.714844 L 34.464844 109.585938 C 34.160156 108.953125 33.882812 108.320312 33.679688 107.636719 L 30.664062 107.636719 L 30.664062 99.703125 L 33.679688 99.703125 C 33.882812 99.046875 34.160156 98.386719 34.464844 97.753906 L 32.363281 95.652344 L 37.964844 90.050781 L 40.066406 92.15625 C 40.699219 91.851562 41.359375 91.570312 42.042969 91.34375 L 42.042969 88.355469 L 49.949219 88.355469 L 49.949219 91.34375 C 50.632812 91.570312 51.292969 91.851562 51.902344 92.15625 Z M 51.902344 92.15625 " fill-opacity="1" fill-rule="evenodd"/><path fill="#3a7cd1" d="M 65.253906 138.421875 C 65.253906 134.925781 62.441406 132.085938 58.945312 132.085938 C 55.449219 132.085938 52.609375 134.925781 52.609375 138.421875 C 52.609375 141.917969 55.449219 144.730469 58.945312 144.730469 C 62.441406 144.730469 65.253906 141.917969 65.253906 138.421875 Z M 62.925781 130.640625 L 63.253906 128.589844 L 64.367188 129.222656 L 68.144531 133 L 66.726562 134.417969 C 66.929688 134.847656 67.105469 135.277344 67.257812 135.734375 L 68.167969 135.128906 L 69.285156 135.734375 L 69.285156 141.082031 L 67.257812 141.082031 C 67.105469 141.539062 66.929688 141.992188 66.726562 142.425781 L 68.144531 143.84375 L 64.367188 147.617188 L 63.253906 147.011719 L 62.925781 146.199219 C 62.519531 146.402344 62.0625 146.605469 61.605469 146.730469 L 61.605469 148.757812 L 56.257812 148.757812 L 55.167969 148.152344 L 56.257812 146.730469 C 55.804688 146.578125 55.371094 146.402344 54.941406 146.199219 L 53.523438 147.617188 L 52.40625 147.011719 L 49.722656 143.84375 L 51.164062 142.425781 C 50.964844 141.992188 50.761719 141.539062 50.632812 141.082031 L 48.605469 141.082031 L 47.492188 140.472656 L 48.605469 135.734375 L 50.632812 135.734375 C 50.761719 135.277344 50.964844 134.847656 51.164062 134.417969 L 49.746094 133 L 52.40625 128.589844 L 53.523438 129.222656 L 54.941406 130.640625 C 55.371094 130.441406 55.804688 130.238281 56.257812 130.109375 L 56.257812 128.082031 L 60.492188 127.449219 L 61.605469 128.082031 L 61.605469 130.109375 C 62.0625 130.238281 62.519531 130.441406 62.925781 130.640625 Z M 62.925781 130.640625 " fill-opacity="1" fill-rule="evenodd"/><path fill="#32bfd8" d="M 64.164062 137.8125 C 64.164062 134.316406 61.328125 131.480469 57.832031 131.480469 C 54.332031 131.480469 51.496094 134.316406 51.496094 137.8125 C 51.496094 141.285156 54.332031 144.121094 57.832031 144.121094 C 61.328125 144.121094 64.164062 141.285156 64.164062 137.8125 Z M 61.835938 130.035156 L 63.253906 128.589844 L 67.027344 132.367188 L 65.609375 133.808594 C 65.8125 134.242188 66.015625 134.671875 66.140625 135.128906 L 68.167969 135.128906 L 68.167969 140.472656 L 66.140625 140.472656 C 66.015625 140.929688 65.8125 141.386719 65.609375 141.789062 L 67.027344 143.234375 L 63.253906 147.011719 L 61.835938 145.566406 C 61.402344 145.792969 60.972656 145.972656 60.492188 146.125 L 60.492188 148.152344 L 55.167969 148.152344 L 55.167969 146.125 C 54.6875 145.972656 54.257812 145.792969 53.828125 145.566406 L 52.40625 147.011719 L 48.632812 143.234375 L 50.050781 141.789062 C 49.847656 141.386719 49.644531 140.929688 49.519531 140.472656 L 47.492188 140.472656 L 47.492188 135.128906 L 49.519531 135.128906 C 49.644531 134.671875 49.847656 134.242188 50.050781 133.808594 L 48.632812 132.367188 L 52.40625 128.589844 L 53.828125 130.035156 C 54.257812 129.804688 54.6875 129.628906 55.167969 129.476562 L 55.167969 127.449219 L 60.492188 127.449219 L 60.492188 129.476562 C 60.972656 129.628906 61.402344 129.804688 61.835938 130.035156 Z M 61.835938 130.035156 " fill-opacity="1" fill-rule="evenodd"/><path fill="#e9e9e9" d="M 32.058594 203.640625 C 21.160156 203.640625 12.316406 194.796875 12.316406 183.902344 C 12.316406 172.980469 21.160156 164.164062 32.058594 164.164062 C 42.957031 164.164062 51.800781 172.980469 51.800781 183.902344 C 51.800781 194.796875 42.957031 203.640625 32.058594 203.640625 Z M 60.796875 183.902344 C 60.796875 168.039062 47.921875 155.167969 32.058594 155.167969 C 16.195312 155.167969 3.320312 168.039062 3.320312 183.902344 C 3.320312 199.765625 16.195312 212.609375 32.058594 212.609375 C 47.921875 212.609375 60.796875 199.765625 60.796875 183.902344 Z M 60.796875 183.902344 " fill-opacity="1" fill-rule="evenodd"/><g clip-path="url(#ce356ba7a2)"><path fill="#bf262b" d="M 29.347656 202.652344 C 18.425781 202.652344 9.605469 193.808594 9.605469 182.914062 C 9.605469 172.019531 18.425781 163.175781 29.347656 163.175781 C 40.242188 163.175781 49.085938 172.019531 49.085938 182.914062 C 49.085938 193.808594 40.242188 202.652344 29.347656 202.652344 Z M 58.058594 182.914062 C 58.058594 167.050781 45.210938 154.179688 29.347656 154.179688 C 13.484375 154.179688 0.609375 167.050781 0.609375 182.914062 C 0.609375 198.777344 13.484375 211.648438 29.347656 211.648438 C 45.210938 211.648438 58.058594 198.777344 58.058594 182.914062 Z M 58.058594 182.914062 " fill-opacity="1" fill-rule="evenodd"/></g><path fill="#02979b" d="M 41.714844 198.292969 C 38.34375 201.03125 34.035156 202.652344 29.347656 202.652344 C 22.453125 202.652344 16.398438 199.128906 12.875 193.808594 L 5.804688 199.382812 C 11 206.808594 19.589844 211.648438 29.347656 211.648438 C 36.519531 211.648438 43.054688 209.011719 48.097656 204.679688 Z M 41.714844 198.292969 " fill-opacity="1" fill-rule="evenodd"/><path fill="#a7c500" d="M 49.085938 182.914062 C 49.085938 189.121094 46.199219 194.671875 41.714844 198.292969 L 48.097656 204.679688 C 54.207031 199.410156 58.058594 191.605469 58.058594 182.914062 C 58.058594 170.5 50.175781 159.933594 39.152344 155.902344 L 35.328125 164.113281 C 43.308594 166.648438 49.085938 174.097656 49.085938 182.914062 Z M 49.085938 182.914062 " fill-opacity="1" fill-rule="evenodd"/><path fill="#87289a" d="M 13.964844 170.523438 C 17.589844 166.039062 23.113281 163.175781 29.347656 163.175781 C 31.425781 163.175781 33.453125 163.503906 35.328125 164.113281 L 39.152344 155.902344 C 36.085938 154.789062 32.792969 154.179688 29.347656 154.179688 C 20.628906 154.179688 12.851562 158.058594 7.578125 164.164062 Z M 13.964844 170.523438 " fill-opacity="1" fill-rule="evenodd"/><path fill="#a7c500" d="M 41.003906 131.046875 C 41.003906 128.765625 39.152344 126.890625 36.847656 126.890625 C 34.542969 126.890625 32.691406 128.765625 32.691406 131.046875 C 32.691406 133.355469 34.542969 135.203125 36.847656 135.203125 C 39.152344 135.203125 41.003906 133.355469 41.003906 131.046875 Z M 39.484375 125.953125 L 39.6875 124.585938 L 40.421875 124.992188 L 42.90625 127.5 L 41.96875 128.4375 C 42.09375 128.714844 42.21875 128.996094 42.320312 129.300781 L 42.929688 128.894531 L 43.664062 129.300781 L 43.664062 132.820312 L 42.320312 132.820312 C 42.21875 133.125 42.09375 133.402344 41.96875 133.683594 L 42.90625 134.621094 L 40.421875 137.105469 L 39.6875 136.699219 L 39.484375 136.167969 C 39.203125 136.316406 38.902344 136.445312 38.597656 136.519531 L 38.597656 137.863281 L 35.097656 137.863281 L 34.363281 137.457031 L 35.097656 136.519531 C 34.796875 136.417969 34.492188 136.316406 34.210938 136.167969 L 33.273438 137.105469 L 32.539062 136.699219 L 30.792969 134.621094 L 31.730469 133.683594 C 31.601562 133.402344 31.476562 133.125 31.375 132.820312 L 30.03125 132.820312 L 29.320312 132.417969 L 30.03125 129.300781 L 31.375 129.300781 C 31.476562 128.996094 31.601562 128.714844 31.730469 128.4375 L 30.792969 127.476562 L 32.539062 124.585938 L 33.273438 124.992188 L 34.210938 125.953125 C 34.492188 125.804688 34.796875 125.675781 35.097656 125.574219 L 35.097656 124.257812 L 37.886719 123.851562 L 38.597656 124.257812 L 38.597656 125.574219 C 38.902344 125.675781 39.203125 125.804688 39.484375 125.953125 Z M 39.484375 125.953125 " fill-opacity="1" fill-rule="evenodd"/><path fill="#87289a" d="M 40.269531 130.640625 C 40.269531 128.363281 38.417969 126.488281 36.113281 126.488281 C 33.832031 126.488281 31.957031 128.363281 31.957031 130.640625 C 31.957031 132.949219 33.832031 134.796875 36.113281 134.796875 C 38.417969 134.796875 40.269531 132.949219 40.269531 130.640625 Z M 38.75 125.550781 L 39.6875 124.585938 L 42.167969 127.09375 L 41.230469 128.03125 C 41.382812 128.3125 41.484375 128.589844 41.585938 128.894531 L 42.929688 128.894531 L 42.929688 132.417969 L 41.585938 132.417969 C 41.484375 132.71875 41.382812 133 41.230469 133.277344 L 42.167969 134.214844 L 39.6875 136.699219 L 38.75 135.761719 C 38.46875 135.914062 38.164062 136.039062 37.886719 136.117188 L 37.886719 137.457031 L 34.363281 137.457031 L 34.363281 136.117188 C 34.0625 136.039062 33.757812 135.914062 33.476562 135.761719 L 32.539062 136.699219 L 30.058594 134.214844 L 30.996094 133.277344 C 30.867188 133 30.742188 132.71875 30.640625 132.417969 L 29.320312 132.417969 L 29.320312 128.894531 L 30.640625 128.894531 C 30.742188 128.589844 30.867188 128.3125 30.996094 128.03125 L 30.058594 127.09375 L 32.539062 124.585938 L 33.476562 125.550781 C 33.757812 125.398438 34.0625 125.269531 34.363281 125.167969 L 34.363281 123.851562 L 37.886719 123.851562 L 37.886719 125.167969 C 38.164062 125.269531 38.46875 125.398438 38.75 125.550781 Z M 38.75 125.550781 " fill-opacity="1" fill-rule="evenodd"/></svg>