<svg width="112.1375px" height="131.6px" xmlns="http://www.w3.org/2000/svg" viewBox="193.93125 9.200000000000003 112.1375 131.6" style="background: rgba(0, 0, 0, 0);" preserveAspectRatio="xMidYMid"><defs><filter id="editing-extrusion" x="-100%" y="-100%" width="300%" height="300%"><feFlood result="color1" flood-color="#444444"></feFlood><feConvolveMatrix order="8,8" divisor="1" kernelMatrix="1 0 0 0 0 0 0 0 0 1 0 0 0 0 0 0 0 0 1 0 0 0 0 0 0 0 0 1 0 0 0 0 0 0 0 0 1 0 0 0 0 0 0 0 0 1 0 0 0 0 0 0 0 0 1 0 0 0 0 0 0 0 0 1" in="SourceAlpha" result="extrude"></feConvolveMatrix><feComposite in="color1" in2="extrude" result="comp-extrude" operator="in"></feComposite><feOffset dx="4" dy="4" in="comp-extrude" result="offset-extrude"></feOffset><feMerge><feMergeNode in="offset-extrude"></feMergeNode><feMergeNode in="SourceGraphic"></feMergeNode></feMerge></filter></defs><g filter="url(#editing-extrusion)"><g transform="translate(214.62501096725464, 98.53000068664551)"><path d="M31.81-12.63L31.81-12.63L31.81-12.63Q31.81-10.13 30.78-7.78L30.78-7.78L30.78-7.78Q29.75-5.44 27.88-3.66L27.88-3.66L27.88-3.66Q26-1.88 23.25-0.81L23.25-0.81L23.25-0.81Q20.50 0.25 17 0.25L17 0.25L17 0.25Q15.50 0.25 13.91 0.09L13.91 0.09L13.91 0.09Q12.31-0.06 10.69-0.44L10.69-0.44L10.69-0.44Q9.06-0.81 7.59-1.47L7.59-1.47L7.59-1.47Q6.13-2.13 5.06-3.06L5.06-3.06L6.38-8.44L6.38-8.44Q7.25-7.94 8.59-7.47L8.59-7.47L8.59-7.47Q9.94-7 11.38-6.59L11.38-6.59L11.38-6.59Q12.81-6.19 14.25-5.94L14.25-5.94L14.25-5.94Q15.69-5.69 16.94-5.69L16.94-5.69L16.94-5.69Q20.75-5.69 22.78-7.47L22.78-7.47L22.78-7.47Q24.81-9.25 24.81-12.75L24.81-12.75L24.81-12.75Q24.81-14.88 23.38-16.38L23.38-16.38L23.38-16.38Q21.94-17.88 19.78-19.09L19.78-19.09L19.78-19.09Q17.63-20.31 15.13-21.53L15.13-21.53L15.13-21.53Q12.63-22.75 10.44-24.41L10.44-24.41L10.44-24.41Q8.25-26.06 6.81-28.31L6.81-28.31L6.81-28.31Q5.38-30.56 5.38-33.94L5.38-33.94L5.38-33.94Q5.38-37 6.50-39.38L6.50-39.38L6.50-39.38Q7.63-41.75 9.53-43.41L9.53-43.41L9.53-43.41Q11.44-45.06 13.97-45.94L13.97-45.94L13.97-45.94Q16.50-46.81 19.31-46.81L19.31-46.81L19.31-46.81Q22.19-46.81 25.13-46.28L25.13-46.28L25.13-46.28Q28.06-45.75 29.88-44.56L29.88-44.56L29.88-44.56Q29.50-43.75 29-42.78L29-42.78L29-42.78Q28.50-41.81 28.06-40.97L28.06-40.97L28.06-40.97Q27.63-40.13 27.31-39.56L27.31-39.56L27.31-39.56Q27-39 26.94-38.94L26.94-38.94L26.94-38.94Q26.56-39.13 26.09-39.44L26.09-39.44L26.09-39.44Q25.63-39.75 24.75-40.06L24.75-40.06L24.75-40.06Q23.88-40.38 22.44-40.50L22.44-40.50L22.44-40.50Q21-40.63 18.75-40.44L18.75-40.44L18.75-40.44Q17.50-40.31 16.38-39.72L16.38-39.72L16.38-39.72Q15.25-39.13 14.38-38.25L14.38-38.25L14.38-38.25Q13.50-37.38 13-36.28L13-36.28L13-36.28Q12.50-35.19 12.50-34.19L12.50-34.19L12.50-34.19Q12.50-31.69 13.94-30.16L13.94-30.16L13.94-30.16Q15.38-28.63 17.50-27.47L17.50-27.47L17.50-27.47Q19.63-26.31 22.13-25.22L22.13-25.22L22.13-25.22Q24.63-24.13 26.78-22.56L26.78-22.56L26.78-22.56Q28.94-21 30.38-18.66L30.38-18.66L30.38-18.66Q31.81-16.31 31.81-12.63ZM65.69-12.63L65.69-12.63L65.69-12.63Q65.69-10.13 64.66-7.78L64.66-7.78L64.66-7.78Q63.63-5.44 61.75-3.66L61.75-3.66L61.75-3.66Q59.88-1.88 57.13-0.81L57.13-0.81L57.13-0.81Q54.38 0.25 50.88 0.25L50.88 0.25L50.88 0.25Q49.38 0.25 47.78 0.09L47.78 0.09L47.78 0.09Q46.19-0.06 44.56-0.44L44.56-0.44L44.56-0.44Q42.94-0.81 41.47-1.47L41.47-1.47L41.47-1.47Q40-2.13 38.94-3.06L38.94-3.06L40.25-8.44L40.25-8.44Q41.13-7.94 42.47-7.47L42.47-7.47L42.47-7.47Q43.81-7 45.25-6.59L45.25-6.59L45.25-6.59Q46.69-6.19 48.13-5.94L48.13-5.94L48.13-5.94Q49.56-5.69 50.81-5.69L50.81-5.69L50.81-5.69Q54.63-5.69 56.66-7.47L56.66-7.47L56.66-7.47Q58.69-9.25 58.69-12.75L58.69-12.75L58.69-12.75Q58.69-14.88 57.25-16.38L57.25-16.38L57.25-16.38Q55.81-17.88 53.66-19.09L53.66-19.09L53.66-19.09Q51.50-20.31 49-21.53L49-21.53L49-21.53Q46.50-22.75 44.31-24.41L44.31-24.41L44.31-24.41Q42.13-26.06 40.69-28.31L40.69-28.31L40.69-28.31Q39.25-30.56 39.25-33.94L39.25-33.94L39.25-33.94Q39.25-37 40.38-39.38L40.38-39.38L40.38-39.38Q41.50-41.75 43.41-43.41L43.41-43.41L43.41-43.41Q45.31-45.06 47.84-45.94L47.84-45.94L47.84-45.94Q50.38-46.81 53.19-46.81L53.19-46.81L53.19-46.81Q56.06-46.81 59-46.28L59-46.28L59-46.28Q61.94-45.75 63.75-44.56L63.75-44.56L63.75-44.56Q63.38-43.75 62.88-42.78L62.88-42.78L62.88-42.78Q62.38-41.81 61.94-40.97L61.94-40.97L61.94-40.97Q61.50-40.13 61.19-39.56L61.19-39.56L61.19-39.56Q60.88-39 60.81-38.94L60.81-38.94L60.81-38.94Q60.44-39.13 59.97-39.44L59.97-39.44L59.97-39.44Q59.50-39.75 58.63-40.06L58.63-40.06L58.63-40.06Q57.75-40.38 56.31-40.50L56.31-40.50L56.31-40.50Q54.88-40.63 52.63-40.44L52.63-40.44L52.63-40.44Q51.38-40.31 50.25-39.72L50.25-39.72L50.25-39.72Q49.13-39.13 48.25-38.25L48.25-38.25L48.25-38.25Q47.38-37.38 46.88-36.28L46.88-36.28L46.88-36.28Q46.38-35.19 46.38-34.19L46.38-34.19L46.38-34.19Q46.38-31.69 47.81-30.16L47.81-30.16L47.81-30.16Q49.25-28.63 51.38-27.47L51.38-27.47L51.38-27.47Q53.50-26.31 56-25.22L56-25.22L56-25.22Q58.50-24.13 60.66-22.56L60.66-22.56L60.66-22.56Q62.81-21 64.25-18.66L64.25-18.66L64.25-18.66Q65.69-16.31 65.69-12.63Z" fill="#ccc"></path></g></g><style>text {
  font-size: 64px;
  font-family: Arial Black;
  dominant-baseline: central;
  text-anchor: middle;
}</style></svg>