<svg xmlns="http://www.w3.org/2000/svg" xmlns:xlink="http://www.w3.org/1999/xlink" width="600" zoomAndPan="magnify" viewBox="0 0 450 359.999987" height="480" preserveAspectRatio="xMidYMid meet" version="1.0"><defs><clipPath id="958f91025e"><path d="M 0 105 L 449.25 105 L 449.25 359 L 0 359 Z M 0 105 " clip-rule="nonzero"/></clipPath><clipPath id="5e87d2a959"><path d="M 181 0.160156 L 210 0.160156 L 210 87 L 181 87 Z M 181 0.160156 " clip-rule="nonzero"/></clipPath><clipPath id="ce92cb5941"><path d="M 245 0.160156 L 272 0.160156 L 272 87 L 245 87 Z M 245 0.160156 " clip-rule="nonzero"/></clipPath><clipPath id="0ac1ab67f5"><path d="M 0.0664062 105 L 449.316406 105 L 449.316406 359 L 0.0664062 359 Z M 0.0664062 105 " clip-rule="nonzero"/></clipPath></defs><g clip-path="url(#958f91025e)"><path fill="#ffffff" d="M -0.238281 254.519531 C -0.238281 251.625 -0.238281 248.761719 -0.238281 245.871094 C 1.210938 245.769531 1.457031 244.585938 1.820312 243.539062 C 10.035156 220.222656 18.253906 196.894531 26.472656 173.574219 C 30.273438 164.460938 33.910156 155.300781 36.214844 145.660156 C 40.328125 134.78125 44.402344 123.871094 48.609375 113.011719 C 51.585938 105.3125 58.339844 103.335938 65.570312 107.5 C 77.660156 114.460938 90.53125 119.691406 103.484375 124.734375 C 113.371094 134.105469 125.773438 133.640625 138.046875 133.5625 C 149.5 135.554688 161.070312 136.074219 172.652344 136.539062 C 177.113281 136.992188 181.671875 138.816406 185.964844 135.957031 C 193.097656 131.222656 200.199219 126.460938 207.316406 121.699219 C 218.109375 116.03125 230.066406 115.734375 241.777344 114.3125 C 253.042969 114.699219 263.78125 117.289062 274.089844 121.730469 C 285.683594 127.773438 295.957031 138.097656 310.949219 133 C 323.835938 133.429688 336.027344 131.613281 345.730469 121.976562 C 354.671875 117.191406 363.160156 111.648438 371.34375 105.660156 C 373.667969 105.609375 375.988281 105.554688 378.304688 105.492188 C 378.8125 105.773438 379.3125 106.046875 379.820312 106.332031 C 385.730469 117.105469 391.652344 127.902344 397.558594 138.683594 C 402.011719 148.816406 406.699219 158.828125 412.707031 168.15625 C 413.476562 169.855469 414.261719 171.550781 415.039062 173.246094 C 426.425781 195.714844 437.8125 218.199219 449.199219 240.691406 C 449.199219 242.4375 449.199219 244.144531 449.199219 245.875 C 432.097656 257.628906 412.300781 263.9375 393.914062 273.101562 C 390.839844 274.628906 387.109375 273.550781 385.511719 270.617188 C 381.882812 263.90625 378.167969 265.542969 373.730469 269.507812 C 370.785156 272.144531 367.523438 274.480469 364.402344 276.964844 C 361.203125 278.421875 357.945312 279.683594 359.765625 284.417969 C 363.441406 294.050781 360.609375 302.351562 354.09375 309.765625 C 351.222656 311.507812 348.347656 313.25 345.496094 314.992188 C 341.71875 316.671875 335.414062 312.15625 333.875 318.699219 C 330.933594 331.164062 322.894531 337.648438 310.992188 340.339844 C 303.84375 339.824219 294.984375 333.546875 291.710938 346.074219 C 287.179688 349.976562 282.003906 352.734375 276.285156 354.46875 C 270.945312 354.09375 265.519531 353.796875 260.695312 351.179688 C 258.316406 349.886719 256.617188 350.480469 254.476562 351.667969 C 250.3125 353.949219 245.964844 355.910156 241.6875 357.984375 C 230.449219 359.441406 219.886719 356.859375 209.597656 352.644531 C 206.855469 350.710938 204.605469 348.257812 200.542969 350.742188 C 190.683594 356.742188 181.339844 354.558594 172.605469 347.910156 C 172.050781 347.316406 171.492188 346.714844 170.9375 346.125 C 169.289062 343.457031 169.242188 339.242188 164.3125 339.871094 C 153.949219 341.195312 146.429688 336.019531 139.855469 328.832031 C 139.050781 324.589844 136.945312 323.085938 132.234375 323.085938 C 122.019531 323.078125 114.167969 318.195312 109.703125 308.796875 C 108.355469 305.976562 106.933594 304.691406 103.609375 304.164062 C 91.753906 302.3125 84.726562 295.214844 83.589844 283.132812 C 83.226562 279.21875 81.402344 277.550781 78.027344 276.765625 C 73.265625 274.394531 69.339844 267.335938 63.625 270.777344 C 58.574219 273.8125 54.683594 273.355469 49.90625 271.910156 C 36.980469 267.949219 24.050781 264.015625 11.050781 260.328125 C 6.839844 259.089844 2.980469 257.511719 -0.238281 254.519531 Z M 343.222656 263.441406 C 345.789062 268.105469 348.839844 268.304688 352.773438 264.867188 C 355.578125 262.410156 358.777344 260.417969 361.800781 258.214844 C 372.015625 250.832031 372.015625 250.832031 364.636719 240.421875 C 353.105469 218.746094 342.921875 196.464844 334.710938 173.304688 C 333.710938 169.730469 332.761719 166.132812 331.707031 162.574219 C 327.25 147.605469 327.230469 147.605469 310.863281 149.820312 C 299.476562 151.21875 288.226562 151.839844 278.789062 143.453125 C 266.683594 135.328125 253.765625 128.703125 238.824219 131.960938 C 232.269531 133.398438 224.640625 130.597656 219.054688 136.285156 C 214.40625 136.753906 210.5 138.78125 207.09375 141.886719 C 203.480469 144.089844 199.847656 146.246094 196.273438 148.488281 C 187.050781 154.273438 179.488281 161.199219 179.660156 173.28125 C 178.648438 179.933594 176.109375 185.730469 171.066406 190.480469 C 169.304688 192.132812 168.3125 194.820312 167.507812 197.222656 C 165.59375 202.949219 167.910156 206.054688 173.914062 206.386719 C 180.515625 206.773438 186.359375 204.902344 191.382812 200.523438 C 196.652344 195.949219 201.4375 190.707031 203.988281 184.339844 C 207.667969 175.097656 214.84375 172.285156 223.53125 171.710938 C 228.640625 171.363281 233.800781 171.96875 238.957031 172.136719 C 241.046875 173.105469 243.144531 174.066406 245.222656 175.019531 C 255.539062 183.964844 265.832031 192.902344 276.140625 201.839844 C 278.085938 204.273438 280.128906 206.574219 283.042969 207.914062 C 291.78125 217.101562 301.210938 225.503906 310.992188 233.535156 C 314.410156 237.777344 318.367188 241.441406 322.867188 244.503906 C 329.117188 251.382812 335.972656 257.625 343.222656 263.441406 Z M 162.226562 173.265625 C 163.792969 167.804688 165.152344 162.265625 167.003906 156.898438 C 168.246094 153.273438 166.953125 152.523438 163.640625 152.367188 C 155.101562 151.992188 146.585938 151.355469 138.058594 150.808594 C 130.671875 150.074219 123.257812 149.53125 115.894531 148.523438 C 111.625 147.941406 110.585938 149.84375 109.996094 153.582031 C 108.980469 160.078125 107.367188 166.472656 106.011719 172.902344 C 104.558594 178.191406 103.113281 183.488281 101.652344 188.777344 C 94.414062 206.773438 87.699219 224.984375 79.046875 242.390625 C 72.695312 255.132812 72.886719 255.085938 85.605469 261.988281 C 88.816406 263.726562 91.042969 264.617188 93.296875 260.816406 C 95.703125 256.746094 99.816406 254.511719 103.8125 252.273438 C 113.6875 249.671875 122.515625 251.425781 129.023438 259.648438 C 132.039062 263.453125 134.898438 261.492188 138.03125 260.859375 C 145.65625 260.890625 153.511719 261.898438 158.117188 268.296875 C 162.476562 274.335938 166.953125 274.140625 172.636719 271.839844 C 178.535156 272.644531 184.128906 274.304688 189.324219 277.246094 C 192.289062 280.925781 196.3125 284.109375 197.183594 288.925781 C 198.207031 294.734375 201.621094 296.699219 206.914062 296.761719 C 210.304688 299.335938 214.589844 304.746094 216.921875 304.011719 C 227.414062 300.671875 231.742188 308.933594 238.148438 313.359375 C 246.722656 320.449219 255.175781 327.660156 263.929688 334.535156 C 268.816406 338.367188 274.75 340.21875 279.238281 334.59375 C 283.652344 329.027344 279.550781 324.097656 275.40625 320.488281 C 264.417969 310.867188 253.078125 301.664062 241.875 292.296875 C 236.539062 286.625 230.628906 281.617188 224.328125 277.054688 C 220.753906 273.753906 217.21875 270.414062 213.59375 267.183594 C 209.570312 263.558594 208.382812 259.289062 212.054688 255.085938 C 215.78125 250.835938 220.210938 251.71875 224.296875 255.070312 C 229.164062 259.074219 234.011719 263.078125 238.878906 267.078125 C 242.257812 270.910156 246.027344 274.289062 250.359375 277.019531 C 257.359375 284.191406 264.96875 290.65625 273.113281 296.527344 C 279.152344 302.878906 285.851562 308.488281 293.035156 313.554688 C 298.140625 318.476562 302.769531 324.308594 311.113281 323.1875 C 319.574219 316.972656 320.359375 311.578125 312.804688 305.039062 C 289.824219 285.167969 266.59375 265.59375 243.460938 245.910156 C 242.648438 244.675781 241.816406 243.433594 241.007812 242.210938 C 240.324219 239.4375 241.347656 236.894531 242.039062 234.289062 C 247.640625 229.785156 252.324219 231.515625 257.273438 235.824219 C 278.53125 254.320312 299.996094 272.570312 321.335938 290.957031 C 325.53125 294.582031 329.910156 297.738281 335.40625 298.992188 C 338.703125 299.738281 341.703125 299.175781 343.890625 296.3125 C 346.171875 293.3125 345.464844 290.214844 343.632812 287.480469 C 340.730469 283.171875 337 279.609375 332.601562 276.804688 C 325.878906 270.5625 319.167969 264.308594 312.449219 258.078125 C 288.78125 235.078125 264.320312 212.9375 239.285156 191.457031 C 230.746094 184.140625 222.449219 185.929688 216.484375 195.277344 C 213.714844 199.597656 210.570312 203.6875 207.605469 207.90625 C 207.058594 207.925781 206.832031 208.207031 206.867188 208.734375 C 197.394531 218.144531 185.957031 222.917969 172.652344 223.296875 C 163.011719 221.371094 154.824219 217.46875 151.070312 207.5 C 149.269531 198.308594 151.765625 190.207031 156.660156 182.425781 C 158.539062 179.382812 162.511719 177.585938 162.226562 173.265625 Z M 177.949219 290.398438 C 176.511719 288.515625 174.632812 288.5625 172.617188 289.175781 C 168.382812 288.542969 166.429688 291.582031 164.515625 294.398438 C 161.292969 299.136719 158.484375 304.15625 155.105469 308.785156 C 151.636719 313.511719 151.429688 317.992188 155.996094 321.636719 C 160.851562 325.492188 165.808594 324.445312 169.503906 319.644531 C 173.53125 314.414062 177.332031 309.007812 180.839844 303.445312 C 184.03125 298.367188 183.710938 293.667969 177.949219 290.398438 Z M 395.839844 173.171875 C 391.902344 163.609375 387.351562 154.359375 381.796875 145.609375 C 381.214844 143.019531 380.328125 140.589844 378.359375 138.6875 C 372.65625 124.308594 372.65625 124.296875 360.253906 132.375 C 358.613281 133.449219 357.121094 134.730469 355.566406 135.917969 C 342.925781 142.738281 342.847656 142.761719 346.972656 156.382812 C 348.679688 162.0625 350.804688 167.625 352.722656 173.246094 C 361.574219 201.0625 374.769531 226.757812 390.894531 251.007812 C 392.855469 253.976562 394.46875 255.671875 398.4375 253.636719 C 407.390625 249.070312 416.558594 244.949219 425.730469 240.863281 C 428.8125 239.503906 429.503906 237.972656 427.871094 234.960938 C 422.941406 225.929688 418.183594 216.804688 413.359375 207.707031 C 408.199219 195.84375 402.4375 184.292969 395.839844 173.171875 Z M 88.039062 136.667969 C 80.648438 133.125 73.195312 129.671875 65.859375 125.984375 C 62.949219 124.523438 61.316406 124.636719 60.164062 128.09375 C 55.105469 143.179688 49.859375 158.21875 44.6875 173.269531 C 35.601562 195.960938 27.613281 219.050781 19.890625 242.238281 C 17.921875 244.5625 19.0625 245.75 21.445312 246.480469 C 31.023438 249.394531 40.636719 252.199219 50.175781 255.253906 C 53.28125 256.226562 54.226562 254.417969 55.363281 252.320312 C 69 227.113281 81.28125 201.351562 88.128906 173.34375 C 91.824219 164.703125 92.734375 155.355469 94.890625 146.335938 C 96.386719 140.132812 93.953125 137.316406 88.039062 136.667969 Z M 140.226562 277.097656 C 139.734375 277.242188 138.414062 277.28125 137.601562 277.941406 C 131 283.269531 126.1875 290.03125 123.84375 298.117188 C 122.835938 301.609375 125.175781 304.902344 128.851562 306.195312 C 132.277344 307.375 135.867188 307.316406 138.246094 304.046875 C 141.804688 299.179688 145.355469 294.269531 148.355469 289.054688 C 151.503906 283.59375 147.179688 277.019531 140.226562 277.097656 Z M 221.871094 320.730469 C 219.554688 325.082031 217.707031 328.898438 215.503906 332.515625 C 214.339844 334.449219 213.664062 335.59375 215.996094 337.363281 C 222.480469 342.234375 235.851562 343.15625 243.433594 338.644531 C 236.335938 332.738281 229.367188 326.953125 221.871094 320.730469 Z M 204.539062 318.867188 C 204.652344 316.074219 203.773438 314.101562 201.691406 312.734375 C 199.542969 311.339844 197.132812 311.1875 195.351562 312.929688 C 190.226562 317.910156 186.265625 323.847656 183.109375 330.210938 C 181.683594 333.054688 183.148438 335.964844 186.109375 337.296875 C 189.476562 338.828125 191.25 337.433594 191.960938 333.753906 C 192.476562 331.128906 194.78125 329.792969 197.230469 328.597656 C 201.320312 326.605469 203.027344 322.585938 204.539062 318.867188 Z M 117.789062 273.042969 C 117.554688 269.722656 115.410156 267.695312 111.777344 267.449219 C 108.023438 267.1875 99.726562 277.285156 99.832031 281.84375 C 99.910156 285.675781 102.070312 287.648438 105.78125 287.832031 C 109.414062 287.988281 117.855469 277.832031 117.789062 273.042969 Z M 117.789062 273.042969 " fill-opacity="1" fill-rule="nonzero"/></g><g clip-path="url(#5e87d2a959)"><path fill="#ffffff" d="M 193.371094 0.40625 C 200.972656 10.1875 199.207031 22.417969 201.796875 33.484375 C 204.589844 45.359375 206.339844 57.488281 208.535156 69.511719 C 208.203125 74.6875 210.917969 80.132812 207.152344 85 C 198.058594 88.394531 194.8125 86.644531 192.96875 77.429688 C 192.414062 74.671875 191.792969 71.941406 191.210938 69.199219 C 189.332031 57.699219 187.457031 46.207031 185.578125 34.699219 C 184.558594 27.609375 183.988281 20.40625 182.367188 13.453125 C 181.101562 7.949219 182.496094 3.9375 186.441406 0.40625 C 188.769531 0.40625 191.070312 0.40625 193.371094 0.40625 Z M 193.371094 0.40625 " fill-opacity="1" fill-rule="nonzero"/></g><g clip-path="url(#ce92cb5941)"><path fill="#ffffff" d="M 259.0625 0.40625 C 261.945312 0.40625 264.820312 0.40625 267.707031 0.40625 C 271.378906 4.5625 271.949219 9.320312 271.03125 14.664062 C 269.867188 21.394531 269.21875 28.230469 268.335938 35.007812 C 266.8125 46.484375 265.277344 57.964844 263.746094 69.433594 C 263.117188 72.757812 262.613281 76.097656 261.871094 79.382812 C 260.722656 84.46875 257.75 87.726562 252.230469 86.605469 C 247.363281 85.621094 245.300781 82.0625 245.824219 77.101562 C 246.085938 74.582031 246.335938 72.042969 246.574219 69.523438 C 248.191406 58.085938 249.789062 46.644531 251.414062 35.203125 C 254.660156 23.765625 252.59375 11.144531 259.0625 0.40625 Z M 259.0625 0.40625 " fill-opacity="1" fill-rule="nonzero"/></g><path fill="#ffffff" d="M 302.597656 71.863281 C 309.167969 61.953125 315.949219 52.15625 322.246094 42.0625 C 325.867188 36.261719 330.128906 34.183594 336.429688 37.4375 C 339.589844 41.683594 339.28125 45.773438 336.390625 50.121094 C 332.757812 55.601562 329.464844 61.304688 326.023438 66.890625 C 320.1875 75.734375 314.363281 84.570312 308.523438 93.410156 C 304.441406 95.492188 300.355469 96.242188 296.984375 92.285156 C 293.308594 87.960938 295.285156 83.894531 297.90625 79.875 C 299.601562 77.285156 301.050781 74.542969 302.597656 71.863281 Z M 302.597656 71.863281 " fill-opacity="1" fill-rule="nonzero"/><path fill="#ffffff" d="M 140.601562 89.929688 C 136.277344 82.796875 131.878906 75.734375 126.394531 69.433594 C 123.832031 65.382812 121.398438 61.242188 118.683594 57.292969 C 115.554688 52.71875 114.722656 48.070312 119.679688 44.664062 C 124.464844 41.363281 128.789062 43.140625 131.929688 47.941406 C 133.003906 49.585938 134.324219 51.070312 135.542969 52.621094 C 139.414062 58.265625 143.296875 63.921875 147.164062 69.5625 C 149.3125 72.941406 151.328125 76.394531 153.621094 79.65625 C 156.855469 84.25 159.078125 88.984375 153.71875 93.269531 C 148.25 97.636719 144.214844 94.09375 140.601562 89.929688 Z M 140.601562 89.929688 " fill-opacity="1" fill-rule="nonzero"/><g clip-path="url(#0ac1ab67f5)"><path fill="#ffffff" d="M -0.171875 254.359375 C -0.171875 251.464844 -0.171875 248.601562 -0.171875 245.710938 C 1.28125 245.609375 1.523438 244.425781 1.886719 243.378906 C 10.101562 220.0625 18.324219 196.734375 26.539062 173.414062 C 30.339844 164.300781 33.980469 155.140625 36.28125 145.5 C 40.394531 134.621094 44.472656 123.710938 48.675781 112.851562 C 51.652344 105.152344 58.40625 103.171875 65.640625 107.339844 C 77.726562 114.300781 90.601562 119.53125 103.550781 124.574219 C 113.4375 133.945312 125.839844 133.480469 138.113281 133.402344 C 149.566406 135.394531 161.136719 135.910156 172.71875 136.378906 C 177.179688 136.832031 181.738281 138.65625 186.03125 135.796875 C 193.164062 131.0625 200.269531 126.300781 207.386719 121.539062 C 218.175781 115.871094 230.132812 115.574219 241.84375 114.152344 C 253.109375 114.539062 263.847656 117.128906 274.15625 121.566406 C 285.75 127.613281 296.023438 137.933594 311.015625 132.839844 C 323.902344 133.269531 336.09375 131.453125 345.796875 121.816406 C 354.738281 117.03125 363.226562 111.488281 371.414062 105.5 C 373.734375 105.449219 376.054688 105.394531 378.371094 105.332031 C 378.878906 105.613281 379.378906 105.886719 379.886719 106.171875 C 385.796875 116.945312 391.722656 127.742188 397.625 138.519531 C 402.078125 148.65625 406.765625 158.664062 412.773438 167.996094 C 413.546875 169.695312 414.332031 171.390625 415.105469 173.085938 C 426.492188 195.554688 437.878906 218.039062 449.265625 240.53125 C 449.265625 242.273438 449.265625 243.984375 449.265625 245.714844 C 432.164062 257.46875 412.367188 263.777344 393.980469 272.941406 C 390.90625 274.46875 387.179688 273.386719 385.578125 270.457031 C 381.949219 263.746094 378.238281 265.382812 373.796875 269.347656 C 370.851562 271.980469 367.589844 274.316406 364.46875 276.804688 C 361.269531 278.257812 358.011719 279.523438 359.832031 284.257812 C 363.511719 293.890625 360.675781 302.191406 354.160156 309.605469 C 351.289062 311.347656 348.414062 313.089844 345.5625 314.832031 C 341.785156 316.511719 335.484375 311.996094 333.941406 318.539062 C 331 331.003906 322.960938 337.488281 311.058594 340.179688 C 303.910156 339.660156 295.050781 333.382812 291.78125 345.914062 C 287.246094 349.816406 282.074219 352.574219 276.351562 354.308594 C 271.015625 353.929688 265.585938 353.636719 260.761719 351.019531 C 258.382812 349.726562 256.683594 350.316406 254.542969 351.503906 C 250.378906 353.785156 246.035156 355.75 241.753906 357.824219 C 230.515625 359.277344 219.953125 356.699219 209.667969 352.484375 C 206.921875 350.550781 204.671875 348.097656 200.609375 350.582031 C 190.75 356.582031 181.40625 354.398438 172.671875 347.75 C 172.117188 347.15625 171.558594 346.554688 171.003906 345.964844 C 169.359375 343.292969 169.308594 339.078125 164.378906 339.710938 C 154.015625 341.035156 146.496094 335.859375 139.925781 328.671875 C 139.117188 324.429688 137.011719 322.925781 132.300781 322.925781 C 122.085938 322.917969 114.234375 318.035156 109.769531 308.636719 C 108.421875 305.8125 107 304.53125 103.675781 304.003906 C 91.824219 302.152344 84.792969 295.054688 83.65625 282.972656 C 83.292969 279.058594 81.46875 277.390625 78.09375 276.605469 C 73.332031 274.234375 69.40625 267.175781 63.691406 270.613281 C 58.640625 273.652344 54.75 273.195312 49.972656 271.75 C 37.046875 267.785156 24.117188 263.855469 11.117188 260.167969 C 6.90625 258.929688 3.050781 257.347656 -0.171875 254.359375 Z M 343.292969 263.277344 C 345.855469 267.945312 348.90625 268.144531 352.839844 264.707031 C 355.648438 262.25 358.84375 260.257812 361.871094 258.054688 C 372.082031 250.667969 372.082031 250.667969 364.703125 240.261719 C 353.171875 218.585938 342.988281 196.304688 334.777344 173.144531 C 333.777344 169.570312 332.828125 165.972656 331.773438 162.414062 C 327.316406 147.441406 327.296875 147.441406 310.929688 149.660156 C 299.542969 151.054688 288.296875 151.675781 278.855469 143.292969 C 266.75 135.167969 253.832031 128.542969 238.890625 131.800781 C 232.335938 133.238281 224.707031 130.433594 219.121094 136.125 C 214.472656 136.59375 210.566406 138.621094 207.160156 141.726562 C 203.546875 143.929688 199.914062 146.085938 196.339844 148.328125 C 187.117188 154.113281 179.558594 161.035156 179.726562 173.121094 C 178.71875 179.773438 176.175781 185.570312 171.132812 190.320312 C 169.371094 191.972656 168.378906 194.660156 167.574219 197.0625 C 165.660156 202.785156 167.976562 205.894531 173.980469 206.226562 C 180.582031 206.613281 186.425781 204.738281 191.449219 200.359375 C 196.71875 195.789062 201.503906 190.542969 204.054688 184.179688 C 207.734375 174.9375 214.910156 172.125 223.597656 171.546875 C 228.707031 171.199219 233.867188 171.808594 239.027344 171.976562 C 241.113281 172.945312 243.210938 173.90625 245.289062 174.859375 C 255.605469 183.804688 265.898438 192.742188 276.207031 201.679688 C 278.152344 204.113281 280.195312 206.414062 283.113281 207.75 C 291.847656 216.941406 301.277344 225.339844 311.058594 233.375 C 314.480469 237.617188 318.433594 241.28125 322.933594 244.34375 C 329.1875 251.222656 336.039062 257.464844 343.292969 263.277344 Z M 162.296875 173.105469 C 163.859375 167.640625 165.21875 162.105469 167.070312 156.738281 C 168.3125 153.113281 167.023438 152.363281 163.707031 152.203125 C 155.167969 151.832031 146.652344 151.195312 138.125 150.648438 C 130.738281 149.914062 123.324219 149.371094 115.960938 148.363281 C 111.695312 147.78125 110.65625 149.683594 110.0625 153.421875 C 109.050781 159.917969 107.433594 166.308594 106.078125 172.742188 C 104.625 178.03125 103.179688 183.328125 101.71875 188.617188 C 94.480469 206.613281 87.765625 224.824219 79.113281 242.230469 C 72.761719 254.972656 72.957031 254.925781 85.675781 261.828125 C 88.886719 263.566406 91.113281 264.457031 93.363281 260.65625 C 95.769531 256.585938 99.882812 254.351562 103.878906 252.109375 C 113.757812 249.511719 122.582031 251.265625 129.089844 259.488281 C 132.105469 263.292969 134.964844 261.332031 138.101562 260.699219 C 145.722656 260.730469 153.578125 261.738281 158.183594 268.136719 C 162.542969 274.175781 167.023438 273.980469 172.703125 271.679688 C 178.601562 272.484375 184.195312 274.144531 189.394531 277.085938 C 192.355469 280.765625 196.382812 283.949219 197.25 288.765625 C 198.273438 294.570312 201.6875 296.539062 206.984375 296.597656 C 210.371094 299.175781 214.65625 304.585938 216.988281 303.851562 C 227.480469 300.511719 231.808594 308.773438 238.214844 313.199219 C 246.789062 320.289062 255.242188 327.5 263.996094 334.375 C 268.882812 338.207031 274.816406 340.058594 279.304688 334.433594 C 283.71875 328.867188 279.617188 323.9375 275.472656 320.328125 C 264.484375 310.703125 253.144531 301.503906 241.941406 292.136719 C 236.605469 286.464844 230.695312 281.457031 224.394531 276.890625 C 220.820312 273.59375 217.285156 270.253906 213.664062 267.023438 C 209.636719 263.398438 208.449219 259.128906 212.121094 254.925781 C 215.847656 250.675781 220.277344 251.558594 224.363281 254.910156 C 229.230469 258.914062 234.082031 262.917969 238.945312 266.917969 C 242.324219 270.75 246.09375 274.128906 250.425781 276.859375 C 257.425781 284.03125 265.035156 290.496094 273.179688 296.367188 C 279.21875 302.71875 285.917969 308.328125 293.101562 313.394531 C 298.207031 318.316406 302.839844 324.148438 311.179688 323.027344 C 319.644531 316.8125 320.429688 311.414062 312.875 304.878906 C 289.890625 285.007812 266.660156 265.429688 243.527344 245.75 C 242.714844 244.515625 241.882812 243.273438 241.074219 242.050781 C 240.390625 239.277344 241.417969 236.734375 242.105469 234.128906 C 247.707031 229.625 252.390625 231.355469 257.339844 235.664062 C 278.597656 254.160156 300.066406 272.410156 321.402344 290.792969 C 325.597656 294.421875 329.976562 297.578125 335.472656 298.832031 C 338.769531 299.578125 341.769531 299.015625 343.957031 296.152344 C 346.238281 293.148438 345.53125 290.054688 343.699219 287.320312 C 340.796875 283.011719 337.070312 279.449219 332.667969 276.644531 C 325.945312 270.402344 319.234375 264.148438 312.515625 257.917969 C 288.847656 234.917969 264.390625 212.777344 239.355469 191.296875 C 230.816406 183.980469 222.515625 185.769531 216.550781 195.117188 C 213.78125 199.4375 210.636719 203.527344 207.671875 207.746094 C 207.125 207.765625 206.898438 208.046875 206.933594 208.570312 C 197.460938 217.984375 186.023438 222.757812 172.71875 223.132812 C 163.082031 221.210938 154.890625 217.308594 151.136719 207.339844 C 149.339844 198.148438 151.832031 190.046875 156.730469 182.265625 C 158.605469 179.222656 162.578125 177.421875 162.296875 173.105469 Z M 178.015625 290.238281 C 176.578125 288.355469 174.699219 288.402344 172.683594 289.015625 C 168.449219 288.382812 166.496094 291.421875 164.582031 294.238281 C 161.359375 298.976562 158.550781 303.996094 155.171875 308.621094 C 151.703125 313.347656 151.496094 317.832031 156.0625 321.476562 C 160.917969 325.332031 165.875 324.285156 169.570312 319.480469 C 173.597656 314.253906 177.398438 308.847656 180.910156 303.285156 C 184.101562 298.203125 183.777344 293.507812 178.015625 290.238281 Z M 395.90625 173.011719 C 391.96875 163.445312 387.417969 154.199219 381.863281 145.449219 C 381.285156 142.859375 380.394531 140.429688 378.425781 138.527344 C 372.726562 124.148438 372.726562 124.136719 360.320312 132.214844 C 358.679688 133.289062 357.1875 134.570312 355.632812 135.757812 C 342.992188 142.578125 342.914062 142.601562 347.039062 156.21875 C 348.75 161.902344 350.871094 167.464844 352.789062 173.085938 C 361.640625 200.902344 374.835938 226.597656 390.960938 250.847656 C 392.921875 253.816406 394.535156 255.511719 398.503906 253.476562 C 407.457031 248.910156 416.625 244.789062 425.796875 240.703125 C 428.878906 239.34375 429.570312 237.8125 427.9375 234.800781 C 423.007812 225.769531 418.253906 216.644531 413.425781 207.546875 C 408.265625 195.683594 402.507812 184.132812 395.90625 173.011719 Z M 88.105469 136.507812 C 80.714844 132.964844 73.261719 129.511719 65.925781 125.824219 C 63.015625 124.359375 61.382812 124.476562 60.230469 127.933594 C 55.171875 143.019531 49.929688 158.058594 44.753906 173.109375 C 35.667969 195.796875 27.679688 218.890625 19.957031 242.074219 C 17.988281 244.402344 19.128906 245.589844 21.511719 246.320312 C 31.089844 249.234375 40.703125 252.035156 50.242188 255.09375 C 53.347656 256.066406 54.292969 254.257812 55.429688 252.160156 C 69.070312 226.953125 81.351562 201.191406 88.195312 173.183594 C 91.890625 164.539062 92.800781 155.195312 94.957031 146.175781 C 96.453125 139.972656 94.019531 137.15625 88.105469 136.507812 Z M 140.292969 276.9375 C 139.800781 277.082031 138.484375 277.121094 137.667969 277.78125 C 131.066406 283.109375 126.257812 289.871094 123.910156 297.957031 C 122.902344 301.449219 125.242188 304.742188 128.921875 306.03125 C 132.34375 307.214844 135.933594 307.15625 138.3125 303.886719 C 141.871094 299.019531 145.421875 294.109375 148.421875 288.894531 C 151.570312 283.433594 147.246094 276.859375 140.292969 276.9375 Z M 221.9375 320.570312 C 219.621094 324.917969 217.773438 328.738281 215.570312 332.355469 C 214.40625 334.289062 213.730469 335.433594 216.0625 337.203125 C 222.550781 342.070312 235.917969 342.996094 243.5 338.484375 C 236.402344 332.578125 229.433594 326.792969 221.9375 320.570312 Z M 204.605469 318.707031 C 204.722656 315.914062 203.839844 313.941406 201.757812 312.574219 C 199.613281 311.175781 197.199219 311.027344 195.417969 312.769531 C 190.292969 317.746094 186.332031 323.6875 183.175781 330.050781 C 181.75 332.890625 183.214844 335.804688 186.175781 337.136719 C 189.542969 338.667969 191.316406 337.269531 192.027344 333.59375 C 192.542969 330.96875 194.851562 329.632812 197.296875 328.4375 C 201.386719 326.445312 203.097656 322.425781 204.605469 318.707031 Z M 117.855469 272.882812 C 117.621094 269.5625 115.476562 267.535156 111.84375 267.289062 C 108.089844 267.027344 99.792969 277.125 99.898438 281.683594 C 99.980469 285.515625 102.136719 287.488281 105.847656 287.671875 C 109.480469 287.828125 117.921875 277.671875 117.855469 272.882812 Z M 117.855469 272.882812 " fill-opacity="1" fill-rule="nonzero"/></g><path fill="#ffffff" d="M 193.4375 0.246094 C 201.039062 10.027344 199.273438 22.257812 201.863281 33.320312 C 204.65625 45.199219 206.40625 57.328125 208.601562 69.351562 C 208.269531 74.523438 210.984375 79.972656 207.222656 84.839844 C 198.125 88.234375 194.878906 86.484375 193.035156 77.269531 C 192.480469 74.511719 191.859375 71.78125 191.277344 69.039062 C 189.398438 57.535156 187.523438 46.046875 185.644531 34.539062 C 184.625 27.445312 184.054688 20.246094 182.433594 13.292969 C 181.167969 7.789062 182.5625 3.777344 186.511719 0.246094 C 188.835938 0.246094 191.136719 0.246094 193.4375 0.246094 Z M 193.4375 0.246094 " fill-opacity="1" fill-rule="nonzero"/><path fill="#ffffff" d="M 259.128906 0.246094 C 262.011719 0.246094 264.886719 0.246094 267.773438 0.246094 C 271.445312 4.398438 272.019531 9.160156 271.097656 14.503906 C 269.933594 21.234375 269.285156 28.066406 268.40625 34.847656 C 266.878906 46.324219 265.34375 57.804688 263.8125 69.269531 C 263.1875 72.597656 262.679688 75.9375 261.9375 79.222656 C 260.789062 84.304688 257.816406 87.566406 252.296875 86.445312 C 247.429688 85.460938 245.367188 81.902344 245.890625 76.941406 C 246.152344 74.421875 246.402344 71.878906 246.640625 69.359375 C 248.261719 57.925781 249.855469 46.484375 251.480469 35.042969 C 254.726562 23.605469 252.660156 10.984375 259.128906 0.246094 Z M 259.128906 0.246094 " fill-opacity="1" fill-rule="nonzero"/><path fill="#ffffff" d="M 302.664062 71.703125 C 309.234375 61.792969 316.015625 51.996094 322.3125 41.898438 C 325.933594 36.101562 330.195312 34.023438 336.496094 37.277344 C 339.65625 41.523438 339.351562 45.613281 336.457031 49.960938 C 332.824219 55.4375 329.535156 61.144531 326.089844 66.730469 C 320.253906 75.574219 314.429688 84.410156 308.589844 93.246094 C 304.507812 95.332031 300.421875 96.082031 297.054688 92.125 C 293.375 87.800781 295.351562 83.734375 297.972656 79.714844 C 299.667969 77.125 301.117188 74.378906 302.664062 71.703125 Z M 302.664062 71.703125 " fill-opacity="1" fill-rule="nonzero"/><path fill="#ffffff" d="M 140.667969 89.769531 C 136.34375 82.636719 131.945312 75.574219 126.460938 69.269531 C 123.898438 65.21875 121.464844 61.082031 118.75 57.132812 C 115.621094 52.554688 114.789062 47.910156 119.746094 44.503906 C 124.53125 41.203125 128.855469 42.980469 131.996094 47.78125 C 133.070312 49.425781 134.390625 50.910156 135.609375 52.460938 C 139.480469 58.101562 143.363281 63.757812 147.230469 69.402344 C 149.378906 72.78125 151.394531 76.234375 153.6875 79.496094 C 156.921875 84.085938 159.144531 88.824219 153.785156 93.109375 C 148.320312 97.476562 144.28125 93.933594 140.667969 89.769531 Z M 140.667969 89.769531 " fill-opacity="1" fill-rule="nonzero"/></svg>