<svg xmlns="http://www.w3.org/2000/svg" xmlns:xlink="http://www.w3.org/1999/xlink" width="61" zoomAndPan="magnify" viewBox="0 0 45.75 45.749998" height="61" preserveAspectRatio="xMidYMid meet" version="1.0"><defs><clipPath id="590cb2a3a8"><path d="M 0 0 L 45.316406 0 L 45.316406 45.316406 L 0 45.316406 Z M 0 0 " clip-rule="nonzero"/></clipPath><clipPath id="04561d5387"><path d="M 22.65625 0 C 10.144531 0 0 10.144531 0 22.65625 C 0 35.171875 10.144531 45.316406 22.65625 45.316406 C 35.171875 45.316406 45.316406 35.171875 45.316406 22.65625 C 45.316406 10.144531 35.171875 0 22.65625 0 Z M 22.65625 0 " clip-rule="nonzero"/></clipPath><clipPath id="286e845651"><path d="M 10.808594 12.5625 L 34.679688 12.5625 L 34.679688 34.195312 L 10.808594 34.195312 Z M 10.808594 12.5625 " clip-rule="nonzero"/></clipPath></defs><g clip-path="url(#590cb2a3a8)"><g clip-path="url(#04561d5387)"><path stroke-linecap="butt" transform="matrix(0.745924, 0, 0, 0.745924, 0.00000075, 0.00000000000001325)" fill="none" stroke-linejoin="miter" d="M 30.373407 -0.000000000000017764 C 13.599954 -0.000000000000017764 -0.00000100546 13.599955 -0.00000100546 30.373408 C -0.00000100546 47.152098 13.599954 60.752054 30.373407 60.752054 C 47.152097 60.752054 60.752053 47.152098 60.752053 30.373408 C 60.752053 13.599955 47.152097 -0.000000000000017764 30.373407 -0.000000000000017764 Z M 30.373407 -0.000000000000017764 " stroke="#1d3b79" stroke-width="8" stroke-opacity="1" stroke-miterlimit="4"/></g></g><g clip-path="url(#286e845651)"><path fill="#1d3b79" d="M 33.917969 27.800781 L 29.632812 26.039062 L 33.917969 24.265625 C 34.09375 24.191406 34.230469 24.078125 34.335938 23.921875 C 34.4375 23.765625 34.492188 23.59375 34.492188 23.40625 C 34.492188 23.21875 34.4375 23.046875 34.335938 22.890625 C 34.230469 22.734375 34.09375 22.621094 33.917969 22.546875 L 29.609375 20.726562 L 33.910156 18.941406 C 34.082031 18.867188 34.222656 18.753906 34.324219 18.597656 C 34.429688 18.441406 34.480469 18.269531 34.480469 18.082031 C 34.480469 17.894531 34.429688 17.722656 34.324219 17.566406 C 34.222656 17.410156 34.082031 17.296875 33.910156 17.226562 L 23.007812 12.714844 C 22.769531 12.613281 22.53125 12.613281 22.296875 12.714844 L 11.394531 17.234375 C 11.21875 17.308594 11.082031 17.421875 10.976562 17.578125 C 10.875 17.734375 10.820312 17.90625 10.820312 18.09375 C 10.820312 18.28125 10.875 18.453125 10.976562 18.609375 C 11.082031 18.765625 11.21875 18.878906 11.394531 18.953125 L 15.695312 20.726562 L 11.394531 22.511719 C 11.21875 22.582031 11.082031 22.699219 10.976562 22.851562 C 10.875 23.007812 10.820312 23.179688 10.820312 23.367188 C 10.820312 23.554688 10.875 23.726562 10.976562 23.882812 C 11.082031 24.039062 11.21875 24.15625 11.394531 24.226562 L 15.679688 26.039062 L 11.394531 27.800781 C 11.21875 27.875 11.082031 27.988281 10.976562 28.144531 C 10.875 28.300781 10.820312 28.472656 10.820312 28.660156 C 10.820312 28.847656 10.875 29.019531 10.976562 29.175781 C 11.082031 29.332031 11.21875 29.445312 11.394531 29.519531 L 22.300781 34.050781 C 22.539062 34.152344 22.777344 34.152344 23.011719 34.050781 L 33.917969 29.519531 C 34.09375 29.445312 34.230469 29.332031 34.335938 29.175781 C 34.4375 29.019531 34.492188 28.847656 34.492188 28.660156 C 34.492188 28.472656 34.4375 28.300781 34.335938 28.144531 C 34.230469 27.988281 34.09375 27.875 33.917969 27.800781 Z M 22.65625 14.578125 L 31.15625 18.097656 L 22.65625 21.613281 L 18.496094 19.886719 L 14.15625 18.097656 Z M 18.125 21.746094 L 22.296875 23.476562 C 22.410156 23.523438 22.527344 23.546875 22.652344 23.546875 C 22.773438 23.546875 22.894531 23.523438 23.007812 23.476562 L 27.183594 21.746094 L 31.15625 23.382812 L 26.90625 25.152344 L 22.65625 26.886719 L 18.464844 25.15625 L 14.15625 23.382812 Z M 22.65625 32.183594 L 14.15625 28.664062 L 18.09375 27.019531 L 22.285156 28.757812 C 22.398438 28.804688 22.519531 28.828125 22.640625 28.828125 C 22.761719 28.824219 22.882812 28.800781 22.996094 28.757812 L 27.1875 27.019531 L 31.15625 28.664062 Z M 22.65625 32.183594 " fill-opacity="1" fill-rule="nonzero"/></g></svg>